<mxfile host="app.diagrams.net" modified="2021-06-14T10:17:02.018Z" agent="5.0 (Macintosh; Intel Mac OS X 10_14_6) AppleWebKit/537.36 (KHTML, like Gecko) Chrome/91.0.4472.77 Safari/537.36" etag="Vtsr3h8V885uMoXahPGm" version="14.7.7" type="github">
  <diagram id="Q6vmfHSKAtvPzZ5-ZgXQ" name="Page-1">
    <mxGraphModel dx="1186" dy="741" grid="1" gridSize="10" guides="1" tooltips="1" connect="1" arrows="1" fold="1" page="1" pageScale="1" pageWidth="850" pageHeight="1100" math="0" shadow="0">
      <root>
        <mxCell id="0" />
        <mxCell id="1" parent="0" />
        <mxCell id="c6pDoz5_FZRxsxJMvY2V-2" value="" style="shape=image;verticalLabelPosition=bottom;labelBackgroundColor=#ffffff;verticalAlign=top;aspect=fixed;imageAspect=0;image=data:image/png,iVBORw0KGgoAAAANSUhEUgAABVYAAANkCAYAAABcW3GOAAAgAElEQVR4Aezdu64cR54v6vUGdOXxBQTwCRoEji/wCQS+QAP05dBsWUNrBB2LQAtjncGmcLwNjEBrjOkDNIFxGtsidje2K+7RXHtmz+RBiIrFqFj/zMqoysrrt4CFvEXk5cuoWFm/ysp11/khQIAAAQIECBAgQIAAAQIECBAgQIAAgSaBu6bSChMgQIAAAQIECBAgQIAAAQIECBAgQIBAJ1jVCAgQIECAAAECBAgQIECAAAECBAgQINAoIFhtBFOcAAECBAgQIECAAAECBAgQIECAAAECglVtgAABAgQIECBAgAABAgQIECBAgAABAo0CgtVGMMUJECBAgAABAgQIECBAgAABAgQIECAgWNUGCBAgQIAAAQIECBAgQIAAAQIECBAg0CggWG0EU5wAAQIECBAgQIAAAQIECBAgQIAAAQKCVW2AAAECBAgQIECAAAECBAgQIECAAAECjQKC1UYwxQkQIECAAAECBAgQIECAAAECBAgQICBY1QYIECBAgAABAgQIECBAgAABAgQIECDQKCBYbQRTnAABAgQIECBAgAABAgQIECBAgAABAoJVbYAAAQIECBAgQIAAAQIECBAgQIAAAQKNAoLVRjDFCRAgQIAAAQIECBAgQIAAAQIECBAgIFjVBggQIECAAAECBAgQIECAAAECBAgQINAoIFhtBFOcAAECBAgQIECAAAECBAgQIECAAAECglVtgAABAgQIECBAgAABAgQIECBAgAABAo0CgtVGMMUJECBAgAABAgQIECBAgAABAgQIECAgWNUGCBAgQIAAAQIECBAgQIAAAQIECBAg0CggWG0EU5wAAQIECBAgQIAAAQIECBAgQIAAAQKCVW2AAAECBAgQIECAAAECBAgQIECAAAECjQKC1UYwxY8t8PZt1/llsJc28P79sV/Pjp4AAQIECBAgQIAAAQIECFwjIFi9Rk/d3Qu8edN1z5933ePHXXd355fB/trAo0dd9/Rp17161XWC1t13aQ6QAAECBAgQIECAAAECBCYUEKxOiGlV+xBI4dLLl12XAidBIoOjtYEUsqY7cv0QIECAAAECBAgQIECAAAECwwKC1WEfSw8k8OGDQPVoIaLj7Q/OBawH6vwcKgECBAgQIECAAAECBAhcJCBYvYhNpb0JvHvn6/5Cxv6Q8cg2L17s7dXueAgQIECAAAECBAgQIECAwDQCgtVpHK1lwwKvX58P1H71q//TffXVv3W//e0/dz/88I9+GeyiDXz99b92X375791nn/3X4GMvnjzpunRHtx8CBAgQIECAAAECBAgQIEDgk4Bg9ZOFsQMKDIWqKWxKYeof/vAP3YcPHx78/vjjjw/mReX65qnPr69tjJk/dfv57rt/7r744j96A1bh6gE7SIdMgAABAgQIECBAgAABAoMCgtVBHgv3LDAUqv7613/u/vSn/30SnI4NsvrK9c2vQ7S+cn3z1T8Nvfuc+ubzO/V78+Yfu88//88wYBWu7rlHdGwECBAgQIAAAQIECBAg0CogWG0VU34XAum/nkfPzUx3qX7//T+dBKp18Gb6NIjjsT+P9KFC+nAheo2kf2rlhwABAgQIECBAgAABAgQIEOg6wapWcDiB9KzIR48eBqspVP3d7356EKpGdzpG8/oCxqhsNE/9OKCMrKJ5/Kb3S4/CiMLVly8P1204YAIECBAgQIAAAQIECBAg8EBAsPqAxIy9Czx7Foeqf/d38bNU+wK7en5L2FfXTdPqe+Zq1C7GzrtV++kLV9+923tP4fgIECBAgAABAgQIECBAgMCwgGB12MfSnQn0PQKgvlP1ViHV0iGZ7cd3ddYuzv9pyP3ll//+4M5VjwTYWefocAgQIECAAAECBAgQIECgWUCw2kymwpYFUhhUf7X566//9cHX/+ugzfS4QJLTPp3SM1fTozLq1076oMIPAQIECBAgQIAAAQIECBA4qoBg9ahn/oDHnb66XAdD6b+fj7k7cajM0LIcNA6VGVqm/segcshoaBm/6fy+++6fH7x+0mM1/BAgQIAAAQIECBAgQIAAgaMKCFaPeuYPeNwvXjwMVlNYlMO3scMxQd7QutQ//Zr5kFW0jN9yfumDiPrDifTP4PwQIECAAAECBAgQIECAAIEjCghWj3jWD3rMjx+fBqspJIqCuzxPgLdcgJfOAf/1+Ud3rb5+fdAOxWETIECAAAECBAgQIECAwOEFBKuHbwLHAIgeA5D+23kOUQ33+WxQ53Xa85qetVrfsfr8+TH6EEdJgAABAgQIECBAgAABAgRqAcFqLWJ6lwLprro6EPrhh398cFdk612Sdfl6+lywV5evp9UfDgZrr3qa3/R+X3zxHyevpXQnuB8CBAgQIECAAAECBAgQIHBEAcHqEc/6AY/55cuHweq50K1e3hraqX8a6vFb31f76zY6NJ3PX7rTu/6Q4oBdikMmQIAAAQIECBAgQIAAAQKdYFUjOIRA+rpyGQade77qUMBk2WlgyuNYHt988y8nr6X0unr//hDdiIMkQIAAAQIECBAgQIAAAQInAoLVEw4TexV4+vQ0WE1fZx4TCOa79MaUjcqov4+7NKNzO2beHs9/eoRG+SFFGn/7dq89h+MiQIAAAQIECBAgQIAAAQL9AoLVfhtLdiQwFKzuMfwaE/rlMo5f+JvbwpihYHVHHaNDIUCAAAECBAgQIECAAIGrBASrV/GpvBWBKFgVKAoUxwSJfWWO2n4Eq1vp9ewnAQIECBAgQIAAAQIECNxaQLB6a2HrX4VAFKy2BmZjg7S+cn3z6/3oK9c3X/3TZ5z2OfXN59fmJ1hdRZdmJwgQIECAAAECBAgQIEBgBQKC1RWcBLtwe4GWYLUO2kyfBm88ju0hWL19f2ULBAgQIECAAAECBAgQILANAcHqNs6TvbxS4JpgNbrTMZrXFzhGZaN56seBZWQVzeM3j59g9crOSHUCBAgQIECAAAECBAgQ2I2AYHU3p9KBDAmMCVZbwrooxFPfM1ujdjF23lbaj2B1qKexjAABAgQIECBAgAABAgSOJCBYPdLZPvCxjglWywBsKyFXuc/luP0X8pbtoXV8qP0IVg/ckTp0AgQIECBAgAABAgQIEDgREKyecJjYq0BrsNoaRCkffw2dy/5cBKt77SUdFwECBAgQIECAAAECBAi0CghWW8WU36TAULA6dHdeDgaHygwtU/9jsDhkNLSM3/r8BKub7ALtNAECBAgQIECAAAECBAjcQECwegNUq1yfwFCwmsO7scMxQeDQutT3Nf2h9nFu2dLt54cffuru7rqT37dv1/eat0cECBAgQIAAAQIECBAgQODWAoLVWwtb/yoELglWlw6wbF8Aey5kHVp+q/bjjtVVdGl2ggABAgQIECBAgAABAgRWICBYXcFJsAu3F7gkWB0KrSzb37NDndNx51Swevv+yhYIECBAgAABAgQIECBAYBsCgtVtnCd7eaVAX7Ba39VXT58L2+ry9bT6w2Fd7VVP81ufn2D1ys5IdQIECBAgQIAAAQIECBDYjYBgdTen0oEMCfQFq+eCu3J5a+hX1k3j6vtqf90mWqbX0n4Eq0M9jWUECBAgQIAAAQIECBAgcCQBweqRzvaBj3WKYLUlBFN2+E5LPtv1EaweuCN16AQIECBAgAABAgQIECBwIiBYPeEwsVeBS4PVtdwleGkQaf/dJXtp20n1ovYjWN1rL+m4CBAgQIAAAQIECBAgQKBVQLDaKqb8JgWGgtUoPGoJo9QXXra0l7rs1tqPYHWTXaCdJkCAAAECBAgQIECAAIEbCAhWb4BqlesTiILVrQVaWw/k7P/p1/+32v4Eq+vr3+wRAQIECBAgQIAAAQIECCwjIFhdxt1WZxaIgtU66MvTfYFX3/xcLw/7yvXNz/XysK9c3/xcLw/7yvXNz/XysK9c3/xcLw/7yvXNz/XysK9c3/xcLw/7yvXNz/XysK9c3/xcLw/7yvXNz/XysK9c3/xcLw/7yvXNz/XysK9cni9YnbnzsjkCBAgQIECAAAECBAgQWK2AYHW1p8aOTSnQEqzmgMnw9A5LHjxSGxCsTtkzWRcBAgQIECBAgAABAgQIbFlAsLrls2ffRwtcE6zmO/XKYDGaVy4vx6Oy0byyTjkelY3mlXXK8ahsNK+sU45HZaN5ZZ1yPCobzSvrlONR2WheWaccj8pG88o65XhUNppX1inHo7LRvLJOOR6VjeaVdcrxqGw0r6xTjtdlBaujux0FCRAgQIAAAQIECBAgQGDnAoLVnZ9gh/dRYEywWgdIZbg0Zlx9/8RqTDvpK7OV9iNY1asSIECAAAECBAgQIECAAIGPAoJVLeEQAmOC1TLw2krIVe5zOT52///whz90P/zwQ/fdd991X3/9dff999//PJ3ml+trHR+7/b71qr/ekFqweogu00ESIECAAAECBAgQIECAwAgBweoIJEW2L9AarPYFfnuY/7vf/a779a9/3X3++efd3d1d729ansLWP/3pT2dD1hTOlutK9WqrMWXqOlubvjaQ3sLxCla33x86AgIECBAgQIAAAQIECBCYRkCwOo2jtaxcYChYHXN35FCZoWU5KBsqM7Rsyvop9Pviiy9OAtAyDO0b/+yzz7pvvvnmQVBa7tu50DQdY1+ZuY4/7289nGL7KaxOtlGgnLY3tI2hZXlfh8oMLbtFfcHqyjs7u0eAAAECBAgQIECAAAECswkIVmejtqElBYaC1Rw+jR2OCbKG1rVE/fRV/xSQ9oWnY+anu1zTcUX73xealg5jypTl+8aj7feVjeZPWT/dzfvVV1/du/7mN7/pDaDzvky5/bzOluG12//hh5+6u7vu5Pft2yVf3bZNgAABAgQIECBAgAABAgSWERCsLuNuqzMLXBKsXhtAraV+ClWj4DR/1T8Fnvkr7Gk8lf/yyy/DOjlcrYO8KDStjz8qU6+nnK7rl8vGjM9Rf+iY5tj+kMOttu+O1Zk7L5sjQIAAAQIECBAgQIAAgdUKCFZXe2rs2JQClwSrQ6HVVpalf0ZVh6rpztU0/9wxpK+3/+pXv3pQP6o7FDDm7aTwNn1VPv+mOnnZVodjjnurx9a334LVKXsm6yJAgAABAgQIECBAgACBLQsIVrd89uz7aIG+YLW+q6+e7guX8vy6fD2dy/UN6/L1dF+9PL8uX06nr6nXX/9PQWm+OzWtoywfTad11P/kKk3X2780YDy3/bydvuHS9evjHvMogPJYlt7/S7YvWB3d7ShIgAABAgQIECBAgAABAjsXEKzu/AQ7vI8CfcFqGXKdG69DqHPl6+Vz109f2y/vVk0ha7oLtd6vc9N1eJjW+dvf/vZkPXWZ6J84zX389XHdYvtjjjvvxy22n9c9ZjjV9gWrelUCBAgQIECAAAECBAgQIPBRQLCqJRxCYIpgdUx4tZYyf/zjHx/crRqFnWP3tw5p052vZd06YGy9c7NcVzSe1v/NN9/cP0Ygjad5UdnWeekO3vRc2fyIgrTuv/u7vxu17vq4rzFu3e+lygtWD9FlOkgCBAgQIECAAAECBAgQGCEgWB2BpMj2BS4NVqe6y+/SEOzS7df/sCrdrZq+1t+6H3n7+VmtX3zxRffVV189eEZrX8CY66ft9pXp26e0vymgrR9nUN+Fm8LMvmPL20/7neul8bTNdPduOT8vz8P0yIP6zty8r0P1cv00zNvP9VqHa6wvWN1+f+gICBAgQIAAAQIECBAgQGAaAcHqNI7WsnKBoWB1jeFVSwAX7f+XX355HySmgC/dcdq3zqh+X9lofqo/JjTtKxNtP4WeQ4FqGV6m8RSCDj3moAxC03gdPNfrK6cju3J9Zdl6PPKq50XHX5cZmp67vmB15Z2d3SNAgAABAgQIECBAgACB2QQEq7NR29CSAlGwOncgVYdjt9x+/Q+nUpB4y+33hablNusyfY8L6AtV0zGlQDP91seXAs2hZ8iWQWhfYButMwel6Y7d8ljK9eUy0bCsU4/f8vzX24qmL92+YHXJnsy2CRAgQIAAAQIECBAgQGBNAoLVNZ0N+3IzgShYjcKmNK8vcOqbX6+nr1zf/FvUr0O+FGrecvt1aBo9a3RMmfSV/jr4TIFntP9pXnrWa3msaTo6zr4gNN3ZW97pmp63mr7+X64zjaf60XqjY4rKDbWrW5z/ep1Tbl+werNuyooJECBAgAABAgQIECBAYGMCgtWNnTC7e5lAS7AahVJbmpeCwjoYvPX+RwFjvc0xZVIgW+57Ckr7np+a1p+W1eFqdHduFKxG5fI+R48KKAPYXG7MMeWyexkKVi/rg9QiQIAAAQIECBAgQIAAgf0JCFb3d04dUSBwTbAa3YEYzesLzqKy0byp6tdhXwoq63VPvf16m+Udq3lbQ2Xy/tV3q6YwM9fPZdKwnFcHyekO17psHaym6bJMNF4/pzbtfy6Xtz/mmHLZXDcNo3nl8nI8KhvNK+uU41HZaF5ZpxyvywpWgw7GLAIECBAgQIAAAQIECBA4pIBg9ZCn/XgHPSZYrQOkMlwaM76W+nXYFwWr0fFcs//1NstgNW/rXJk3b96c3K2ags1c99ywvms1faW/rFMHq9HdqvXx13fPXnJM5T6cG6+3f658vXyu+oLV4/WfjpgAAQIECBAgQIAAAQIEYgHBauxi7s4ExgSrZVA1V0hVbrMcv2b7dYA5Nli9Zvv1NqN/TFWXqYPKOsj85ptvTsLRcv/q8bpuek5qWaYOVqOv9Zflk3/afvlYgnp/U/m+Y7rm/KX1rrm+YHVnnaPDIUCAAAECBAgQIECAAIGLBQSrF9OpuCWB1mC1DNm2Np6eO1oGgpcEq63H3Bcwlus5V6YOP3/96193KcyMflNwW86v69YhaL283K++8XP7m+qNKdO3/q3OF6xuqeezrwQIECBAgAABAgQIECBwSwHB6i11rXs1AkPB6pi7A4fKDC3L4dlQmaFll9avg9UUAOZ11cMptn8uYEzb6CuTt1+Hn/UxtEy3BKt5+7VL3/6W5caUSeX7tnFuWd7WmuoLVlfTrdkRAgQIECBAgAABAgQIEFhYQLC68Amw+XkEhoLVHF6NHQ6FXGPWMUf9+pmj5TNFL91++vp8uhs2qj8mYDxXZqlgte+c9e1vefx1megRCPX6y/r1sjHTS9f/4Yefuru77uT37dt5Xse2QoAAAQIECBAgQIAAAQIE1iQgWF3T2bAvNxO4JFhdOsC6ZvtfffXVyeMA0tfqx4R2ZZl6+zmsTcO0/vI5pXXAmO4YretHZcrt1cFq/XX/8qv/58bTtsrt1+sut9s3/jd/8zcnhvVdsKne0DGV2+/bxtD8tdZ3x+rNuikrJkCAAAECBAgQIECAAIGNCQhWN3bC7O5lApcEq0Oh19qXff/99yeh4GeffdYcrJbH+Ic//OFkfelr+SlUzGWGAsaxZerws1x/Xselw3rdY9YzxTGN2c7WyghWL+uD1CJAgAABAgQIECBAgACB/QkIVvd3Th1RINAXrNZ3BdbT50Kvunw9vWT9FKaWzyUtHweQ96ve33o6l0t3vJbrykFtLn9pCJnrp+3Ud9l+880398Ft3o96WNZPy+rpXL4vWK3Ll9OXHNOYRwHkfYr2t9x+Wa5vvC5fT/fVy/Pr8vV0LlcOBatBB2MWAQIECBAgQIAAAQIECBxSQLB6yNN+vIPuC1bLwOjc+JjQaWgdc9dPX12vw9D0jNShfYyWpa/8l+tJ4ykELcteEkLWX61PwW+5nRSGltsY8kv7k8qn37TetD9l3b5gtSxTj9fHFIWmdZn6mMp1Du1/Wa5vfC31BavH6z8dMQECBAgQIECAAAECBAjEAoLV2MXcnQlMEaz2BV5rnZ9C1Pqu1fR81JZwNZXNz1bNoWdaZ3o0QHncdcB4SQiZtpW3kYd1QFpuM49Hx5kehZCXp+EUwWoUmtbHHZUp92MP44LVnXWODocAAQIECBAgQIAAAQIELhYQrF5Mp+KWBC4NVtdyl+Clgdxf/uVfPggrU1A6JrBMd6rWoWoKPKPwsC9gLP36ypTHFj1yoA5xy/Jp/Msvvzw5xs8///w+VM3bnytYrf9JWN5+vc9jp9dYX7C6pZ7PvhIgQIAAAQIECBAgQIDALQUEq7fUte7VCAwFq2sMr8YGb6ncuf2vw8p8N2gKG9PX78vgMt39me72HKpT71va/pjQtK9Muf9pX+q7bNN09HzYVLYOTNOx1Xerpv2ty5XHUG6/nN+3v2WZ6C7bFDynuuk3LS/LR+N924/KRvPmri9YXU23ZkcIECBAgAABAgQIECBAYGEBwerCJ8Dm5xGIgtW5A6k6FJtz+31BaQ5ZxwzrxwiU+z8mhKzLRI8LSEb1s1bzvqWANQWk6Te6kzaVq+8YzeZRsFrufy5XDuv9re/UzfXrIDjvbxqmdZTrLMdz/XJey/hS9QWr8/RZtkKAAAECBAgQIECAAAEC6xcQrK7/HNnDCQSiYLUvxOoLrPrm1+vpK9c3f676KcgsQ7+W8fTPoYb2/1wImY5xTJlULm0n3XU6FFhG+57/oVa0n1GwWrvn6Vy/3t/WIDjt4zfffHMfrOb15u30DfvK9c2v19NXrm9+a33B6gQdklUQIECAAAECBAgQIECAwC4EBKu7OI0O4pxAS7BaB017mk5fn08BZHoOaRROlvNSsJnuAC0fFdBnUYeQ9d2dqd6YMuX609fo0/bPBawpNE3rLuvW4y3Baq7bsr+//e1vQ8/IIa9/q0PB6rnexnICBAgQIECAAAECBAgQOIqAYPUoZ/rgx3lNsBrd6RfN6wvKorLRvLnrp39Ole4MTeFf+ZvusiyDymhfo3m33P+0P2m/8n6mu0fTvo8JfaN9jeZdu/8pCE77mX/zvkXbiuZdu/256gtWD96ZOnwCBAgQIECAAAECBAgQuBcQrN5TGNmzwJhgtSXsikIs9X8cvGs0Mivn8duGn2B1zz2lYyNAgAABAgQIECBAgACBFgHBaouWspsVGBOsCvk+3AejQs5thJxlmy3Hb3n+BKub7QbtOAECBAgQIECAAAECBAhMLCBYnRjU6tYp0BqsliGV8U+BKwsWgtV19nH2igABAgQIECBAgAABAgTmFxCszm9uiwsIDAWrY+7uGyoztCwHkUNlhpap/zHIHDIaWsZvej/B6gIdmE0SIECAAAECBAgQIECAwCoFBKurPC12amqBoWA1h29jh2OCvKF1qe9r9kPt49yypdvPDz/81N3ddSe/b99O/Yq1PgIECBAgQIAAAQIECBAgsH4Bwer6z5E9nEDgkmB16QDL9gWw50LWoeW3aj/uWJ2gQ7IKAgQIECBAgAABAgQIENiFgGB1F6fRQZwTuCRYHQqtLPOs0aO2AcHqud7GcgIECBAgQIAAAQIECBA4ioBg9Shn+uDH2Res1nf11dPnwrO6fD2t/nAAW3vV0/zW5ydYPXhn6vAJECBAgAABAgQIECBA4F5AsHpPYWTPAn3B6rngrlzeGvqVddO4+r7aX7eJlum1tB/B6p57SsdGgAABAgQIECBAgAABAi0CgtUWLWU3KzBFsNoSgik7fKcln+36CFY32w3acQIECBAgQIAAAQIECBCYWECwOjGo1a1T4NJgdS13CV4aRNp/d8le2nZSvaj9CFbX2cfZKwIECBAgQIAAAQIECBCYX0CwOr+5LS4gMBSsRuFRSxilvvCypb3UZbfWfgSrC3RgNkmAAAECBAgQIECAAAECqxQQrK7ytNipqQWiYHVrgdbWAzn7f/r1/622P8Hq1L2T9REgQIAAAQIECBAgQIDAVgUEq1s9c/a7SSAKVuugL0/3BV5983O9POwr1zc/18vDvnJ983O9POwr1zc/18vDvnJ983O9POwr1zc/18vDvnJ983O9POwr1zc/18vDvnJ983O9POwr1zc/18vDvnJ983O9POwr1zc/18vDvnJ5vmC1qetRmAABAgQIECBAgAABAgR2LCBY3fHJdWifBFqC1RwwGZ7eYcmDR2oDgtVP/YoxAgQIECBAgAABAgQIEDi2gGD12Of/MEd/TbCa79Qrg8VoXrm8HI/KRvPKOuV4VDaaV9Ypx6Oy0byyTjkelY3mlXXK8ahsNK+sU45HZaN5ZZ1yPCobzSvrlONR2WheWaccj8pG88o65XhUNppX1inHo7LRvLJOOV6XFaweptt0oAQIECBAgAABAgQIECBwRkCwegbI4n0IjAlW6wCpDJfGjKvvn1iNaSd9ZbbSfgSr++gTHQUBAgQIECBAgAABAgQIXC8gWL3e0Bo2IDAmWC0Dr62EXOU+l+P2X8hbtofW8aH2I1jdQIdnFwkQIECAAAECBAgQIEBgFgHB6izMNrK0QGuw2hpEKe/5o0dpA4LVpXsz2ydAgAABAgQIECBAgACBtQgIVtdyJuzHTQWGgtWhu/NyWDZUZmiZ+h8D1yGjoWX81ucnWL1pV2XlBAgQIECAAAECBAgQILAhAcHqhk6WXb1cYChYzeHd2OGYIHBoXer7mv5Q+zi3bOn288MPP3V3d93J79u3l7821SRAgAABAgQIECBAgAABAlsVEKxu9czZ7yaBS4LVpQMs2xfAngtZh5bfqv24Y7Wp61GYAAECBAgQIECAAAECBHYsIFjd8cl1aJ8ELglWh0IryzxT9ahtQLD6qV8xRoAAAQIECBAgQIAAAQLHFhCsHvv8H+boX7w4/epy+ipzCsbqu/rq6XPhWV2+nlZ/OICtveppfuvz+/rrfz15DMDH19JhuhIHSoAAAQIECBAgQIAAAQIE7gUEq/cURvYs8PLlw2D1D3/4h5/D1XPhXV7eGvrlenmovq/257ZwyXAt7efXv/7zg2B1z32HYyNAgAABAgQIECBAgAABAn0CgtU+GfN3JZD+uU79D3e+++6fm4LVS8IwdYbvuOSzPZ/PP//Pk9dSesyGHwIECBAgQIAAAQIECBAgcEQBweoRz/oBj7BHbowAACAASURBVPnDh4fB6pdf/vvZYHUtdwleGkDaf3fJXtp2Ur26/fzudz+dhKrpw4r0mA0/BAgQIECAAAECBAgQIEDgiAKC1SOe9YMe85MnD8PVP/3pfz8Ij1qDqDp8Ur/tLkx+2wl/v/rq3x4Eq//tvx20Q3HYBAgQIECAAAECBAgQIHB4AcHq4ZvAcQBevXoYrKZ/xNMahObyAsHtBIL5nJVD56/t/KUPIT777L9OgtVHj47TfzhSAgQIECBAgAABAgQIECBQCwhWaxHTuxX48ceuS0FQ+azVFBTV/8SqL3Drm1+GdWm8r1zffPVP73Dtc+qbz28ev+hu1fRP4fwQIECAAAECBAgQIECAAIGjCghWj3rmD3rcz5+fBqspZP3ii/+4+K7VOtQzfRry8diHxw8//OPJBxL5w4n37w/akThsAgQIECBAgAABAgQIECDQdZ1gVTM4lED6J1b1XaspJBp6JEB0p2Q0ry9EjMpG89SPQ8jIKprH7zZ+f/zjhwePAEivGXerHqrrdLAECBAgQIAAAQIECBAgEAgIVgMUs/YtED1rNQVFv/3tP11152pL2BeFgOq3PfOzNuQ3vV96ruqvfvV/Htyt+vhx16UPKfwQIECAAAECBAgQIECAAIEjCwhWj3z2D3zsT58+fCRACle/+eZffg5XhXTTh3R1EDo0zX95//Ts4ShUTa+Tt28P3Hk4dAIECBAgQIAAAQIECBAg8IuAYFVTOKRAutsu3XWXQqL698sv/71Ld+oNBX+WxV8757IPl++//6fw6//ptZLu+PZDgAABAgQIECBAgAABAgQIeMaqNnBggXfv4uetpvDos8/+q/vuu3++D1eH7qAcWpaDxqEyQ8vU/xhUDhkNLePX5pfuUk0fLNQfNuTp9M/f/BAgQIAAAQIECBAgQIAAAQIfBdyxqiUcWmAoXE1h0uef/2f31Vf/1v3udz+NCllzkDc0HBMEqt9/5ye/aR8TkO7OTh8ifPHFf/QGqum1IFQ9dFfp4AkQIECAAAECBAgQIEAgEBCsBihmHUsgPRbgyZOHjwTId+nlYbqLNYVPKWj9+ut/Pfv7m9/8y9kyQ+tRn99Q+zi37Fz7SXem9j1DNbf5PHz9+lh9gqMlQIAAAQIECBAgQIAAAQJjBASrY5SUOYTAy5fnw9UcNBmyOkIbSB84pLu6/RAgQIAAAQIECBAgQIAAAQIPBQSrD03MObDA+/dd9/Sp0PAIoaFj7G/n6R+7uUv1wB2hQydAgAABAgQIECBAgACBUQKC1VFMCh1NIAWs6ZmSjx71h0+COTZ7awPpDlWB6tF6O8dLgAABAgQIECBAgAABApcKCFYvlVPvMAJv33ZdekzAs2cf72YVtgpU9xCophA13Z394sXHMDV9mOCHAAECBAgQIECAAAECBAgQGC8gWB1vpSQBAgQIECBAgAABAgQIECBAgAABAgR+FhCsaggECBAgQIAAAQIECBAgQIAAAQIECBBoFBCsNoIpToAAAQIECBAgQIAAAQIECBAgQIAAAcGqNkCAAAECBAgQIECAAAECBAgQIECAAIFGAcFqI5jiBAgQIECAAAECBAgQIECAAAECBAgQEKxqAwQIECBAgAABAgQIECBAgAABAgQIEGgUEKw2gilOgAABAgQIECBAgAABAgQIECBAgAABwao2QIAAAQIECBAgQIAAAQIECBAgQIAAgUYBwWojmOIECBAgQIAAAQIECBAgQIAAAQIECBAQrGoDBAgQIECAAAECBAgQIECAAAECBAgQaBQQrDaCKU6AAAECBAgQIECAAAECBAgQIECAAAHBqjZAgAABAgQIECBAgAABAgQIECBAgACBRgHBaiOY4gQIECBAgAABAgQIECBAgAABAgQIEBCsagMECBAgQIAAAQIECBAgQIAAAQIECBBoFBCsNoIpToAAAQIECBAgQIAAAQIECBAgQIAAAcGqNkCAAAECBAgQIECAAAECBAgQIECAAIFGAcFqI5jiBAgQIECAAAECBAgQIECAAAECBAgQEKxqAwQIECBAgAABAgQIECBAgAABAgQIEGgUEKw2gilOgAABAgQIECBAgAABAgQIECBAgAABwao2QIAAAQIECBAgQIAAAQIECBAgQIAAgUYBwWojmOIECBAgQIAAAQIECBAgQIAAAQIECBAQrGoDBAgQIECAAAECBAgQIECAAAECBAgQaBQQrDaCKU5gbQJ3d10X/a5tP/e2P3/+0HXv3+ztqBwPAQIECBAgQIAAAQIECBAgMFZAsDpWSjkCKxWIQtU0z89tBf7+Vdf99ZPbbsPaCRAgQIAAAQIECBAgQIAAgfUKiF/We27sGYFRAoLVUUyTF0qh6v9913U/vZ981VZIgAABAgQIECBAgAABAgQIbEBAsLqBk2QXCQwJCFaHdG6zLIWpKVRNv//fy9tsw1oJECBAgAABAgQIECBAgACBdQsIVtd9fuwdgbMCgtWzRJMX+NsXn4LVv3o8+eqtkAABAgQIECBAgAABAgQIENiAgGB1AyfJLhIYEhCsDuncZlkKU/Mdq2n4v97eZjvWSoAAAQIECBAgQIAAAQIECKxXQLC63nNjzwiMEhCsjmKarFAKUctQNY2/fT7Z6q2IAAECBAgQIECAAAECBAgQ2IiAYHUjJ8puEugTEKz2ydxmfgpRc7D67S/PWX396DbbslYCBAgQIECAAAECBAgQIEBgvQKC1fWeG3tGYJSAYHUU02SFUoiag9Vy+D9eT7YJKyJAgAABAgQIECBAgAABAgQ2ICBY3cBJsosEhgQEq0M60y5L4WkZppbj//3ZtNuyNgIECBAgQIAAAQIECBAgQGDdAoLVdZ8fe0fgrIBg9SzRZAVSeFqGqfX4nz9MtikrIkCAAAECBAgQIECAAAECBFYuIFhd+QmyewTOCQhWzwlNszyFpnWQWk///atptmUtBAgQIECAAAECBAgQIECAwPoFBKvrP0f2kMCggGB1kGeyhSk0LYPU/I+rynl//WSyzVkRAQIECBAgQIAAAQIECBAgsHIBwerKT5DdI3BOQLB6Tmia5f/Pk9NgtQxUy/F/eD/N9qyFAAECBAgQIECAAAECBAgQWLeAYHXd58feETgrIFg9S3R1gZ/ejwtVU8D6ty+u3pwVECBAgAABAgQIECBAgAABAhsQEKxu4CTZRQJDAoLVIZ1plqWwtLwrdWj8rx5Ps01rIUCAAAECBAgQIECAAAECBNYtIFhd9/mxdwTOCghWzxJdXSCFpUNhalpWPnP1f729epNWQIAAAQIECBAgQIAAAQIECKxcQLC68hNk9wicExCsnhO6bnkKSc+FqvXyt8+v26baBAgQIECAAAECBAgQIECAwPoFBKvrP0f2kMCggGB1kOfqhSkkrYPTc9OvH129WSsgQIAAAQIECBAgQIAAAQIEVi4gWF35CbJ7BM4JCFbPCV23PIWk54LUaPn/eH3ddtUmQIAAAQIECBAgQIAAAQIE1i0gWF33+bF3BM4KCFbPEl1cIIWjUWg6Zt5/f3bxZlUkQIAAAQIECBAgQIAAAQIENiAgWN3ASbKLBIYEBKtDOtctS+HomBA1KpP+mdWfP1y3fbUJECBAgAABAgQIECBAgACB9QoIVtd7buwZgVECgtVRTM2FUigaBaYt8/7+VfNmVSBAgAABAgQIECBAgAABAgQ2IiBY3ciJspsE+gQEq30y181Poei5EDXdlTpU5q+fXLcPahMgQIAAAQIECBAgQIAAAQLrFRCsrvfc2DMCowQEq6OYmgulUHQoNB277Kf3zZtWgQABAgQIECBAgAABAgQIENiAgGB1AyfJLhIYEhCsDulctiyFoWOD03Pl/vbFZfugFgECBAgQIECAAAECBAgQILBuAcHqus+PvSNwVkCwepaouUAKQ1Ngeu6r/udC1VT/rx43b14FAgQIECBAgAABAgQIECBAYAMCgtUNnCS7SGBIQLA6pHPZsrfPu+7/fdr/GwWqQ+U9DuCy86AWAQIECBAgQIAAAQIECBBYs4Bgdc1nx74RGCEgWB2BNHGR6G7WiTdhdQQIECBAgAABAgQIECBAgMDKBQSrKz9Bdo/AOQHB6jmh6ZdHd6xOvxVrJECAAAECBAgQIECAAAECBNYsIFhd89mxbwRGCAhWRyBNXESwOjGo1REgQIAAAQIECBAgQIAAgQ0KCFY3eNLsMoFSQLBaaswzLlidx9lWCBAgQIAAAQIECBAgQIDAmgUEq2s+O/aNwAgBweoIpImLCFYnBrU6AgQIECBAgAABAgQIECCwQQHB6gZPml0mUAoIVkuNecYFq/M42woBAgQIECBAgAABAgQIEFizgGB1zWfHvhEYISBYHYE0cRHB6sSgVkeAAAECBAgQIECAAAECBDYoIFjd4EmzywRKAcFqqTHPuGB1HmdbIUCAAAECBAgQIECAAAECaxYQrK757Ng3AiMEBKsjkCYuIlidGNTqCBAgQIAAAQIECBAgQIDABgUEqxs8aXaZQCkgWC015hkXrM7jbCsECBAgQIAAAQIECBAgQGDNAoLVNZ8d+0ZghIBgdQTSxEUEqxODWh0BAgQIECBAgAABAgQIENiggGB1gyfNLhMoBQSrpcY84zlY/fau6/L4PFu2FQIECBAgQIAAAQIECBAgQGAtAoLVtZwJ+0HgQgHB6oVwV1TLYWo5vGJ1qhIgQIAAAQIECBAgQIAAAQIbFBCsbvCk2WUCpYBgtdSYZ7wMVPP4PFu2FQIECBAgQIAAAQIECBAgQGAtAoLVtZwJ+0HgQgHB6oVwV1TLYWo5vGJ1qhIgQIAAAQIECBAgQIAAAQIbFBCsbvCk2WUCpYBgtdSYZ7wMVPP4PFu2FQIECBAgQIAAAQIECBAgQGAtAoLVtZwJ+0HgQgHB6oVwV1RLYWr5j6vStB8CBAgQIECAAAECBAgQIEDgWALigGOdb0e7QwHB6vwnNd+lWg7n3wtbJECAAAECBAgQIECAAAECBJYUEKwuqW/bBCYQEKxOgNi4ijJQzeONq1CcAAECBAgQIECAAAECBAgQ2LiAYHXjJ9DuExCszt8GcphaDuffC1skQIAAAQIECBAgQIAAAQIElhQQrC6pb9sEJhAQrE6A2LiKMlDN442rUJwAAQIECBAgQIAAAQIECBDYuIBgdeMn0O4TEKzO3wZymFoO598LWyRAgAABAgQIECBAgAABAgSWFBCsLqlv2wQmEBCsToDYuIoyUM3jjatQnAABAgQIECBAgAABAgQIENi4gGB14yfQ7hMQrM7fBnKYWg7n3wtbJECAAAECBAgQIECAAAECBJYUEKwuqW/bBCYQEKxOgNi4ijJQzeONq1CcAAECBAgQIECAAAECBAgQ2LiAYHXjJ9DuExCszt8GcphaDuffC1skQIAAAQIECBAgQIAAAQIElhQQrC6pb9sEJhAQrE6A2LiKMlDN442rUJwAAQIECBAgQIAAAQIECBDYuIBgdeMn0O4TEKzO3wZymPrtXdfl8fn3whYJECBAgAABAgQIECBAgACBJQUEq0vq2zaBCQQEqxMgNq4ih6nlsHEVihMgQIAAAQIECBAgQIAAAQIbFxCsbvwE2n0CgtX520AZqObx+ffCFgkQIECAAAECBAgQIECAAIElBQSrS+rbNoEJBASrEyA2riKHqeWwcRWKEyBAgAABAgQIECBAgAABAhsXEKxu/ATafQKC1fnbQBmo5vH598IWCRAgQIAAAQIECBAgQIAAgSUFBKtL6ts2gQkEBKsTIDauIoWp5T+uStN+CBAgQIAAAQIECBAgQIAAgWMJiAOOdb4d7Q4FBKvzn9R8l2o5nH8vbJEAAQIECBAgQIAAAQIECBBYUkCwuqS+bROYQECwOgFi4yrKQDWPN65CcQIECBAgQIAAAQIECBAgQGDjAoLVjZ9Au09AsDp/G8hhajmcfy9skQABAgQIECBAgAABAgQIEFhSQLC6pL5tE5hAQLA6AWLjKspANY83rkJxAgQIECBAgAABAgQIECBAYOMCgtWNn0C7T0CwOn8byGFqOZx/L2yRAAECBAgQIECAAAECBAgQWFJAsLqkvm0TmEBAsDoBYuMqykA1jzeuQnECBAgQIECAAAECBAgQIEBg4wKC1Y2fQLtPQLA6fxvIYWo5nH8vbJEAAQIECBAgQIAAAQIECBBYUkCwuqS+bROYQECwOgFi4yrKQDWPN65CcQIECBAgQIAAAQIECBAgQGDjAoLVjZ9Au09AsDp/G8hhajmcfy9skQABAgQIECBAgAABAgQIEFhSQLC6pL5tE5hAQLA6AWLjKspANY83rkJxAgQIECBAgAABAgQIECBAYOMCgtWNn0C7T0CwOn8byGHqt3ddl8fn3wtbJECAAAECBAgQIECAAAECBJYUEKwuqW/bBCYQEKxOgNi4ihymlsPGVShOgAABAgQIECBAgAABAgQIbFxAsLrxE2j3CQhW528DZaCax+ffC1skQIAAAQIECBAgQIAAAQIElhQQrC6pb9sEJhAQrE6A2LiKHKaWw8ZVKE6AAAECBAgQIECAAAECBAhsXECwuvETaPcJCFbnbwNloJrH598LWyRAgAABAgQIECBAgAABAgSWFBCsLqlv2wQmEBCsToDYuIoUppb/uCpN+yFAgAABAgQIECBAgAABAgSOJSAOONb5drQ7FBCszn9S812q5XD+vbBFAgQIECBAgAABAgQIECBAYEkBweqS+rZNYAIBweoEiI2rKAPVPN64CsUJECBAgAABAgQIECBAgACBjQsIVjd+Au0+AcHq/G0gh6nlcP69sEUCBAgQIECAAAECBAgQIEBgSQHB6pL6tk1gAgHB6gSIjasoA9U83rgKxQkQIECAAAECBAgQIECAAIGNCwhWN34C7T4Bwer8bSCHqeVw/r2wRQIECBAgQIAAAQIECBAgQGBJAcHqkvq2TWACAcHqBIiNqygD1TzeuArFCRAgQIAAAQIECBAgQIAAgY0LCFY3fgLtPgHB6vxtIIep5XD+vbBFAgQIECBAgAABAgQIECBAYEkBweqS+rZNYAIBweoEiI2rKAPVPN64CsUJECBAgAABAgQIECBAgACBjQsIVjd+Au0+AcHq/G0gh6nlcP69sEUCBAgQIECAAAECBAgQIEBgSQHB6pL6tk1gAgHB6gSIjasoA9U83rgKxQkQIECAAAECBAgQIECAAIGNCwhWN34C7T4Bwer8bSCHqd/edV0en38vbJEAAQIECBAgQIAAAQIECBBYUkCwuqS+bROYQECwOgFi4ypymFoOG1ehOAECBAgQIECAAAECBAgQILBxAcHqxk+g3ScgWJ2/DZSBah6ffy9skQABAgQIECBAgAABAgQIEFhSQLC6pL5tE5hAQLA6AWLjKnKYWg4bV6E4AQIECBAgQIAAAQIECBAgsHEBwerGT6DdJyBYnb8NlIFqHp9/L2yRAAECBAgQIECAAAECBAgQWFJAsLqkvm0TmEBAsDoBYuMqUpha/uOqNO2HAAECBAgQIECAAAECBAgQOJaAOOBY59vR7lBAsDr/Sc13qZbD+ffCFgkQIECAAAECBAgQIECAAIElBQSrS+rbNoEJBASrEyA2rqIMVPN44yoUJ0CAAAECBAgQIECAAAECBDYuIFjd+Am0+wQEq/O3gRymlsP598IWCRAgQIAAAQIECBAgQIAAgSUFBKtL6tv27gVevXrVPX369OffWx2sYPVWsv3rLQPVPN5f2hICBAgQIECAAAECBAgQIEBgjwKC1T2eVce0CoH37993jx496u7u7n7+vdVOCVZvJdu/3hymlsP+0rdd8uHDh/s2ltva2OHLly9vu3PWToAAAQIECBAgQIAAAQIEdiwgWN3xyXVoywmksOvJkycngdet9kaweivZ/vWWgWoe7y992yVv3749aWdjQ9VUTrB623Nj7QQIECBAgAABAgQIECCwbwHB6r7Pr6NbQCAKVVOIdasfweqtZPvXm8PUcthf+rZL/uIv/kKweltiaydAgAABAgQIECBAgAABAqHA7dKecHNmEti3QF+oKljd13kvA9U8vtQRPn/+/CRYzc/0HTN8/fr1UrttuwQIECBAgAABAgQIECBAYPMCgtXNn0IHsBaB9JXs8pmq9Veyb7Wf7li9lWz/enOYWg77S992SfnIidT+/BAgQIAAAQIECBAgQIAAAQLzCAhW53G2lR0LpLtU67sG61DVHav7agBloJrHlzrCsq2lu1T9ECBAgAABAgQIECBAgAABAvMICFbncbaVnQqk51tGd6k+fvy4S79l6HUrAnes3kq2f705TP32ruvyeH/p2y2p/3GVf0Z1O2trJkCAAAECBAgQIECAAAECtYBgtRYxTaBBIN0hWIanafzZs2dduou1Xtaw2qaigtUmrkkK5zC1HE6y4saVpGeklu3vzZs3jWtQnAABAgQIECBAgAABAgQIELhUQLB6qZx6BLruJDxNd6imOwjzj2A1S+xvWAaqeXyJo3zx4sVJsPr+/fsldsM2CRAgQIAAAQIECBAgQIDAIQUEq4c87Q56KoEUnqZANfrv6oLVqZTXt54cppbDJfaybGP5H1elcDW1xxS6puXpNz0iIM1Ld1L7IUCAAAECBAgQIECAAAECBKYREKxO42gtBxUYukOwDL3S17Vv9eNRALeS7V9vGajm8f7St1tSPgbgyZMnZ/+JWgpfPYf1dufDmgkQIECAAAECBAgQIEDgWAK3S3uO5ehoCTwQEKw+INnNjBSmlv+4Kk3P/fP73//+5DEAZch6bjyFsD/++OPcu2x7BAgQIECAAAECBAgQIEBgVwILxAG78nMwBHoFBKu9NJtfkO9SLYdzH1T6R1V9AWoKTlP7S7/pURVRuVTGowHmPmu2R4AAAQIECBAgQIAAAQJ7EhCs7ulsOpZVCQhWV3U6Jt2ZMlDN45NuYMTK0lf668A0haXv3r17UDv9U7W0rC6fnsPqhwABAgQIECBAgAABAgQIELhMQLB6mZtaBM4KCFbPEm22QA5Ty+HcB1O3rzF3oD579uxBuDr0nOC5j8n2CBAgQIAAAQIECBAgQIDAlgQEq1s6W/Z1UwJ18HWrnffPq24l27/eMlDN4/2lb7ck3YmaHgmQ7l4d88zU9NX/9A+syjtXX716dbsdtGYCBAgQIECAAAECBAgQILBjAcHqjk+uQ1tWQLC6rP8tt57D1HJ4y+1Nue709f8yWE3t1A8BAgQIECBAgAABAgQIECDQLiBYbTdTg8AoAcHqKKZNFioD1Ty+lQNJd7mWwWp6hIAfAgQIECBAgAABAgQIECBAoF1AsNpupgaBUQKC1VFMmyyUw9RyuJUDSc9ULYPVNO6HAAECBAgQIECAAAECBAgQaBfwjrrdTA0CowQEq6OYNlmoDFTz+FYOpA5W0zNX/RAgQIAAAQIECBAgQIAAAQLtAoLVdjM1CIwSEKyOYtpkoRymlsM5DySFo+U/rkr/wGrsT/0ogNRO/RAgQIAAAQIECBAgQIAAAQLtAoLVdjM1CIwSEKyOYtpkoTJQzeNzHkgKUsuv87eEo69evTqp+/z58zl33bYIECBAgAABAgQIECBAgMBuBASruzmVDmRtAoLVtZ2R6fYnh6nf3nVdHp9u7efX9O7du5NwNIWs6S7WMT+PHz8+qfv69esx1ZQhQIAAAQIECBAgQIAAAQIEKgHBagViksBUAoLVqSTXt54cppbDufeyDkhfvHhxdhfqu1U9X/UsmQIECBAgQIAAAQIECBAgQKBXQLDaS2MBgesEBKvX+a25dhmo5vG59zfdaVo+DiCND9192lp+7uOxPQIECBAgQIAAAQIECBAgsDUBwerWzpj93YyAYHUzp6p5R3OYWg6bVzJBhSdPnjwIV589e9alZ7B++PCh+/HHH38er9tiCmFTOT8ECBAgQIAAAQIECBAgQIDA5QKC1cvt1CQwKFCHWYOFr1h4d9d10e8Vq1T1jEAZqObxM1VusjiFp1G4Wt/JWk+nOqmuHwIECBAgQIAAAQIECBAgQOByAcHq5XZqEhgUEKwO8mx6YQpTy39claaX+kkBad3W6iC1nB7zLNaljsV2CRAgQIAAAQIECBAgQIDAlgQWjAO2xGRfCbQLpGdavnz58v63fQ3jakR3q6Z5fm4nkO9SLYe329q4Nb99+7Z7/vx5V/9TqxSqpjtUU6D6/v37cStTigABAgQIECBAgAABAgQIEDgrIH45S6QAgXULCFbnPz9loJrH598LWyRAgAABAgQIECBAgAABAgSWFBCsLqlv2wQmEBCsToDYuIocppbDxlUoToAAAQIECBAgQIAAAQIECGxcQLC68RNo9wkIVudvA2Wgmsfn3wtbJECAAAECBAgQIECAAAECBJYUEKwuqW/bBCYQEKxOgNi4ihymlsPGVShOgAABAgQIECBAgAABAgQIbFxAsLrxE2j3CQhW528DZaCax+ffC1skQIAAAQIECBAgQIAAAQIElhQQrC6pb9sEJhAQrE6A2LiKHKaWw8ZVKE6AAAECBAgQIECAAAECBAhsXECwuvETaPcJCFbnbwNloJrH598LWyRAgAABAgQIECBAgAABAgSWFBCsLqlv2wQmEBCsToDYuIocppbDxlUoToAAAQIECBAgQIAAAQIECGxcQLC68RNo9wkIVudvA2Wgmsfn3wtbJECAAAECBAgQIECAAAECBJYUEKwuqW/bBCYQEKxOgNi4ihymfnvXdXm8cRWKEyBAgAABAgQIECBAgAABAhsXEKxu/ATafQKC1fnbQA5Ty+H8e2GLBAgQIECAAAECBAgQIECAwJICgtUl9W2bwAQCgtUJEBtXUQaqebxxFYoTIECAAAECBAgQIECAAAECGxcQrG78BNp9AoLV+dtADlPL4fx7YYsECBAgQIAAAQIECBAgQIDAkgKC1SX1bZvABAKC1QkQG1dRBqp5LssaDwAAIABJREFUvHEVihMgQIAAAQIECBAgQIAAAQIbFxCsbvwE2n0CgtX520AKU8t/XJWm/RAgQIAAAQIECBAgQIAAAQLHEhAHHOt8O9odCghW5z+p+S7Vcjj/XtgiAQIECBAgQIAAAQIECBAgsKSAYHVJfdsmMIGAYHUCxMZVlIFqHm9cheIECBAgQIAAAQIECBAgQIDAxgUEqxs/gXafgGB1/jaQw9RyOP9e2CIBAgQIECBAgAABAgQIECCwpIBgdUl92yYwgYBgdQLExlWUgWoeb1yF4gQIECBAgAABAgQIECBAgMDGBQSrGz+Bdp+AYHX+NpDD1HI4/17YIgECBAgQIECAAAECBAgQILCkgGB1SX3bJjCBgGB1AsTGVZSBah5vXIXiBAgQIECAAAECBAgQIECAwMYFBKsbP4F2n4Bgdf42kMPUcjj/XtgiAQIECBAgQIAAAQIECBAgsKSAYHVJfdsmMIGAYHUCxMZVlIFqHm9cheIECBAgQIAAAQIECBAgQIDAxgUEqxs/gXafgGB1/jaQw9RyOP9e2CIBAgQIECBAgAABAgQIECCwpIBgdUl92yYwgYBgdQLExlWUgWoeb1yF4gQIECBAgAABAgQIECBAgMDGBQSrGz+Bdp+AYHX+NpDD1G/vui6Pz78XtkiAAAECBAgQIECAAAECBAgsKSBYXVLftglMICBYnQCxcRU5TC2HjatQnAABAgQIECBAgAABAgQIENi4gGB14yfQ7hMQrM7fBspANY/Pvxe2SIAAAQIECBAgQIAAAQIECCwpIFhdUt+2CUwgIFidALFxFTlMLYeNq1CcAAECBAgQIECAAAECBAgQ2LiAYHXjJ9DuExCszt8GykA1j8+/F7ZIgAABAgQIECBAgAABAgQILCkgWF1S37YJTCAgWJ0AsXEVKUwt/3FVmvZDgAABAgQIECBAgAABAgQIHEtAHHCs8+1odyggWJ3/pOa7VMvh/HthiwQIECBAgAABAgQIECBAgMCSAoLVJfVtm8AEAoLVCRAbV1EGqnm8cRWKEyBAgAABAgQIECBAgAABAhsXEKxu/ATafQKC1fnbQA5Ty+H8e2GLBAgQIECAAAECBAgQIECAwJICgtUl9W2bwAQCgtUJEBtXUQaqebxxFYoTIECAAAECBAgQIECAAAECGxcQrG78BNp9AoLV+dtADlPL4fx7YYsECBAgQIAAAQIECBAgQIDAkgKC1SX1bZvABAKC1QkQG1dRBqp5vHEVihMgQIAAAQIECBAgQIAAAQIbFxCsbvwE2n0CgtX520AOU8vh/HthiwQIECBAgAABAgQIECBAgMCSAoLVJfVtm8AEAoLVCRAbV1EGqnm8cRWKEyBAgAABAgQIECBAgAABAhsXEKxu/ATafQKC1fnbQA5Ty+H8e2GLBAgQIECAAAECBAgQIECAwJICgtUl9W2bwAQCgtUJEBtXUQaqebxxFYoTIECAAAECBAgQIECAAAECGxcQrG78BNp9AoLV+dtADlO/veu6PD7/XtgiAQIECBAgQIAAAQIECBAgsKSAYHVJfdsmMIGAYHUCxMZV5DC1HDauQnECBAgQIECAAAECBAgQIEBg4wKC1Y2fQLtPQLA6fxsoA9U8Pv9e2CIBAgQIECBAgAABAgQIECCwpIBgdUl92yYwgYBgdQLExlXkMLUcNq5CcQIECBAgQIAAAQIECBAgQGDjAoLVjZ9Au09AsDp/GygD1Tw+/17YIgECBAgQIECAAAECBAgQILCkgGB1SX3bJjCBgGB1AsTGVaQwtfzHVWnaDwECBAgQIECAAAECBAgQIHAsAXHAsc63o92hgGB1/pOa71Ith/PvhS0SIECAAAECBAgQIECAAAECSwoIVpfUt20CEwgIVidAbFxFGajm8cZVKE6AAAECBAgQIECAAAECBAhsXECwuvETaPcJCFbnbwM5TC2H8++FLRIgQIAAAQIECBAgQIAAAQJLCghWl9S3bQIjBd6+7bq+375gta98mv/hw8gNKxYKlIFqHg8LmkmAAAECBAgQIECAAAECBAjsVkCwuttT68D2JPD4cdf1BaiXzBesXtc6cphaDq9bo9oECBAgQIAAAQIECBAgQIDA1gQEq1s7Y/b3kAIvX04XrD5/fkjCSQ+6DFTz+KQbsDICBAgQIECAAAECBAgQIEBg9QKC1dWfIjtIoOvev58uWH3zhui1AjlMLYfXrlN9AgQIECBAgAABAgQIECBAYFsCgtVtnS97e2CBJ0+uD1cfPTow4ISHXgaqeXzC1VsVAQIECBAgQIAAAQIECBAgsAEBweoGTpJdJJAEXr++Plh98YLlFAI5TC2HU6zXOggQIECAAAECBAgQIECAAIHtCAhWt3Ou7OnBBdI/nLrkH1WVdd69OzjiRIdfBqp5fKJVWw0BAgQIECBAgAABAgQIECCwEQHB6kZOlN0kkASePbs8XH38mOFUAjlM/fau6/L4VOu2HgIECBAgQIAAAQIECBAgQGAbAoLVbZwne0ngZ4H0j6fKO1Bbxv/iLyBOJZDD1HI41bqthwABAgQIECBAgAABAgQIENiGgGB1G+fJXhK4F0j/gKolUM1l37+/X4WRKwXKQDWPX7lK1QkQIECAAAECBAgQIECAAIGNCQhWN3bC7C6B58/bg9WnT7lNKZDD1HI45fqtiwABAgQIECBAgAABAgQIEFi/gGB1/efIHhI4EUj/gCrfhTp2+Pr1ySpMXClQBqp5/MpVqk6AAAECBAgQIECAAAECBAhsTECwurETZncJJIH0j6jGhqqp3IcP3KYUSGFq+Y+r0rQfAgQIECBAgAABAgQIECBA4FgC4oBjnW9HuxOBly/HB6vp0QF+phXId6mWw2m3YG0ECBAgQIAAAQIECBAgQIDA2gUEq2s/Q/aPQCCQ/hHV2DtW37wJVmDWVQJloJrHr1qhygQIECBAgAABAgQIECBAgMDmBASrmztldpjAR4EnT86Hq48e0bqFQA5Ty+EttmOdBAgQIECAAAECBAgQIECAwHoFBKvrPTf2jMCgQPqHVOfuWn3xYnAVFl4oUAaqefzCValGgAABAgQIECBAgAABAgQIbFRAsLrRE2e3CaR/SHUuWH33jtMtBHKYWg5vsR3rJECAAAECBAgQIECAAAECBNYrIFhd77mxZwTOCjx71h+uPn58troCFwqUgWoev3BVqhEgQIAAAQIECBAgQIAAAQIbFRCsbvTE2W0CSSD9Y6q+u1ZfvWJ0K4EcppbDW23LegkQIECAAAECBAgQIECAAIF1CghW13le7BWB0QLpH1RF4er796NXoWCjQBmo5vHGVShOgAABAgQIECBAgAABAgQIbFxAsLrxE2j3CTx//jBYffqUyy0FcphaDm+5PesmQIAAAQIECBAgQIAAAQIE1icgWF3fObFHBJoE0j+oqu9Yff26aRUKNwqUgWoeb1yF4gQIECCwMoG3b992L1++PPl99epV985/glzZmbI7BAgQIECAAIH1CAhW13Mu7AmBiwXSP6oqw9UPHy5elYojBHKY+u1d1+XxEdUUIUCAAIEVCqTw9PHjx93d3V3v79OnT7sUvPohQIAAAQIECBAgUAoIVksN4wQ2KvDy5adgNT0awA8BAgQIECBwXuD58+e9YWoUtL72lZDzqEoQIECAAAECBA4kIFg90Ml2qPsVSP+oKt+x+ubNfo/TkREgQIAAgakEolD10aNH3bNnz35+HEC6SzUKV9/4QzvVKbAeAgQIECBAgMDmBQSrmz+FDoDAR4EnT7ru0SMaBAgQIECAwDmB9LX+OjRNQeuH6lk679+/7548eXJSNoWvdblz27OcAAECBAgQIEBgnwKC1X2eV0d1QIH07cQXLw544A6ZAAECBAg0CqS7UstgNU33/aQQtX4Ga3ouqx8CBAgQIECAAAECglVtgMBOBNJNNumRAH4IECBAgACBYYF012kZrKY7U4d+0rNVy/JDQezQeiwjQIAAAQIECBDYl4BgdV/n09EQIECAAAECBAicEShD0nQ36rmfdNdqWSc9f9UPAQIECBAgQIAAAcGqNkCAAAECBAgQIHAogTIkTXevnvsRrJ4TspwAAQIECBAgcEwBweoxz7ujJkCAAAECBAgcVqB+ZqpHARy2KThwAgQIECBAgMBVAoLVq/hUJkCAAAECBAgQ2JrA8+fPT77aP/TM1OifV6VnrvohQIAAAQIECBAgIFjVBggQIECAAAECBA4lkO5Qrf+BVQpX6ztX37171z158uQkhE3TfggQIECAAAECBAgkAcGqdkCAAAECBAgQIHA4gRSa1uFqevZq+sdU6bcOVNOyNC/V80OAAAECBAgQIEAgCQhWtQMCBAgQIECAAIFDCqSv+acQtfxnVn3jL1686FJ5PwQIECBAgAABAgSygGA1SxgSIECAAAECBAgcRiCFpPWzVvtC1TQ/3d368uXLw/g4UAIECBAgQIAAgfMCgtXzRkoQIECAAAECBAjsSKDvMQDpOaspPE2/6Q7Vx48fP7ibNT0OwJ2rO2oMDoUAAQIECBAgcIWAYPUKPFUJECBAgAABAgS2JZBC0TowHXp26ps3bx48izUFsH4IECBAgAABAgQICFa1AQIECBAgQIAAgcMIpLtRy6/8p5D1xx9/HDz+dIdrWSeNv337drCOhQQIECBAgAABAvsXEKzu/xw7QgIECBAgQIAAgV8E6rtV0x2pY37qQDY9n9UPAQIECBAgQIDAsQUEq8c+/46eAAECBAgQIHAogfLO0/QPqcb+pEcIlHVTQOuHAAECBAgQIEDg2AKC1WOff0dPgAABAgQIEDiMQPr6fhmOPn36tOnY67tdmyorTIAAAQIECBAgsDsBweruTqkDIkCAAAECBAgQiASuDVbTP7kqg9loG+YRIECAAAECBAgcR0Cwepxz7UgJECBAgAABAocWuPbr/GWo2vIYgUOjO3gCBAgQIECAwI4FBKs7PrkOjQABAgQIECBA4FSg/jp/uot1zM/r169P7lZtfYzAmG0oQ4AAAQIECBAgsC0Bweq2zpe9JUCAAAECBAgQuELgxYsXJwFpuvP0/fv3g2tMd7rWgWwKWv0QIECAAAECBAgcW0Cweuzz7+gJECBAgAABAocSSCFqClPLr/WnZ6em8DT6SfPrZ6umkLWvfLQO8wgQIECAAAECBPYpIFjd53l1VAQIECBAgAABAj0C9df6U8iawtZ0N2t6NED+TdN1CJvKjn18QM/mzSZAgAABAgQIENiJgGB1JyfSYRAgQIAAAQIECIwXqB8JUN7BOjTuEQDjjZUkQIAAAQIECOxdQLC69zM80/ENvQGx7O7k64Y8eGgD87eBmbpCmyFAYGMCb968efDs1L4+On39352qGzvBdpcAgckE+vpG8+e/rmXOXBs4bQOTdXQXrkiweiGcap8EvKhPX9Q8eGgD62wDn3otYwQIEDgVSHehPnv27MGzVNOzVZ8/f96lANYPAQIEViNw5h/uTbmfrmvXeV3rvDgv2sDDNjBl39eyLsFqi5ayDwS8mB++mJkw0QbW2QYedGBmECBAgAABAgS2KHB313VPnnTd69dd1/OP96Y6LNe167yudV6cF23gYRuYqt9rXY9gtVVM+RMBL+aHL2YmTLSBdbaBk87LBAECBAgQIEBgqwIpWC1/nz3ruhvdWe+6dp3Xtc6L86INPGwDS3XpgtWl5HeyXS/mhy9mJky0gXW2gZ10uw6DAAECBAgQOLpAGaqW448edd3z51337t1kQq5r13ld67w4L9rAwzYwWcfXuCLBaiOY4qcCXswPX8xMmGgD62wDp72XKQIECBAgQIDARgXKMLVv/PHjrnv5suuufB6r69p1Xtc6L86LNvCwDSzVowtWl5LfyXajF/O7P/5jF/3+/n/+9Gn+/6zK1NPBOtTnd9+u6vZST2s/n15rv1gc7fUT9U076XYdBgECBAgQIHB0gb4wtW/+Fc9jja6pfr4md/394Hr7/r3KQa+/Hf9pxnG0919zn/+ob1rqT4NgdSn5nWw3asxj/9DWL7yT6RF/qE/K10Ga+mf/0PM7/cN34qH9bL79RH3TTrpdh0GAAAECBAgcXaAvQB0zv/F5rNE11cl1c34f5vp589fP4XnN5/fc0Pl3/s+1kaHlF7SfqG9a6k+DYHUp+Z1sN2rMZYd88inN0AupZ5n6xV2qPUaldz3Oj1/dJlqmt9x+or5pJ92uwyBAgAABAgSOLjAmQD1XZuTzWKNrqqHryS1fP6bjsv/ePw2173PLtJ/52k/UNy31p0GwupT8TrYbNebBzib4JOL35bxyPAoSg+XqF3deBj4n5yNYzo/ffRsJ2sf9svR6DJavtf3UfdPJf84990bD8tP/NMyDhzagDWgD2oA2sO82MPA81vqaKk2v9frv5Lo1v5fc0PWr/S/elzl/H++A1X4f3Amc+5+ob1oqZhOsLiW/k+1GjTn8g5A7xmLo05z5Ps2Jzgl//lG7GDtv7e2n7psEq3f7fkPoDb/zqw1oA9qANqANTNMGquex1tdUaXrs9WJdbu3Xj/X+1tP23/unuk20TGs/07afqG9aKmYTrC4lv5PtRo35pMMoPmHJnyyc63zULzocfvcXbtpP8Alu8UFFfl15/Xx8/dR9k2BVsKoNaAPagDagDWgD2kBjG3j2rPu/7h7+5+183ZmHrj+9f8ttofyGm/dv3r/dt4vgfWtedmn/Ub/fS9NL/Sy35aWO2HYnFYgac36BNA2LALGpXn6Bqn8fQPIb9wfsxEn72V37qfsmb6Qa30i562eau344ctQGtAFtQBvYahtI/+Tq9euuvqZK0z9fR7t+3t3188n7o/w+u2/o/Dv/fW1jzPwJ2k/UN00adjWsTLDagKXoQ4GoMdcd8sknEL+8yKJ5db08HZWN5uXy9TAqG82r6+XpqGw0L5evh1HZaF5dL09HZaN5uXw9jMpG8+p6eToqG83L5ethVDaaV9fL01HZaF4uXw+jstG8ul6ejspG83L5ehiVjebV9fJ0VDaal8vXw6hsNK+ul6ejstG8XL4eRmWjeXW9PB2Vjebl8nlY902CVcGqNqANaAPagDagDWgDZ9pAegzAq1dd9+OP92/86muqNJ2vt/qG0bVaNE/9+IaQyCqax49f1AaithLNi+qmeVHZaN7S9aO+6b7jmnlEsDoz+N42FzXmvhfYufktL9ZoXeoXX0EZ8ylRVYYfv+h1NXbe2tpP1Dftrf91PAQIECBAgMBBBaa8Czb946oXL7ru/fsQM7qmyteHa7v+y/s1dmj/vf8Z21aictrPsu0n6pvCTmyGmYLVGZD3vImoMadOJ3yeSsPt3uoHn77xO/vpeP6Dp/1oP1HftOe+2LERIECAAAECBxK4Nlh99Kjrnj/vurdvz6JF11T5mrscuv52/V22h5/HvX/1/rW6metBG7n/RnP76yfqm852aDcqIFi9EexRVhs15vsXy1BHOrQsv/iGygwtU/9jBz5kNLSMH7/UBobayNCylbSfqG86Sr/sOAkQIECAAIGdC1warP7y3NQWneia6v79Xr7uy8Oha8ShZep7/5HawFAbGVqm/Ryy/UR9U0vfNmVZweqUmgdcV9SYoz+0Q7fJh59u5s7xl6H6/bfZ8ws+3dJ+Pv5xPfDrJ+qbDthFO2QCBAgQIEBgjwItwWp+buqHDxdJRNdU3n94/xG95y/nef/u/XvZHsrxqfqPqG+6qJOboJJgdQLEI68iaszliyYaH+pkBz+lGhESqX/dH3l+/KLXbDlvK6/fqG86cl/t2AkQIECAAIEdCZwLVs88N7VFIrqmKq8NvX/w/uGkPVQ3uKRlW3n/0Hcc9r8/JF7y9R/1TS1925RlBatTah5wXVFjzh3SYAdUdrg9t/WrP9CB8ft0R6b288miaBdHf/1EfdMBu2iHTIAAAQIECOxRIApWG56b2kISXVP1hSlHv/50/N6/5ixkcOj96yTvX6O+qaVvm7KsYHVKzQOuK2rMDzqRno7jQbkiFDpZpn7Y8ZwY9dml+fz4DbWPc8s22n6ivumAXbRDJkCAAAECBPYoUAarFzw3tYUkuqY6+z5ko9eP98dl/71/OvceaWi59jNL+4n6ppa+bcqygtUpNQ+4rqgx3/9BGupsfllWf6pXT59bV12+nlZ/+KsptVc9zY/fUBuo20s9PVQ3LavL19PX1I/6pgN20Q6ZAAECBAgQ2KPAlc9NbSGJrqnKa7Qpr9/K9faN19urp/vq5fl1+Xo6l+sb1uXr6b56eX5dvp7O5fqGdfl6uq9enl+Xr6dzub5hXb6e7quX59fl6+lcrm9Yl6+n++rl+XX5ejqX6xvW5evpvnp5fl2+ns7l+oZ1+Xq6r16eX5evp3O5vmFdvp7uq5fn1+Xr6Vyub1iWj/qmlr5tyrKC1Sk1D7iuqDGPeRE8uItyxKc65YtI/Srw43f2UzHtp/hqTt1e6ungQ5Gt+UV90wG7aIdMgAABAgQIELhKILqm+vn93g6vH+v3sVu7/rX/p++Rnb99v/+L+qarOrsrKgtWr8BTteuixjz2D23d8Z9Mj/hDfVK+DoLUPxs08jv9w3viof1svv1EfZM+mwABAgQIECBAoE0guqY6uW7O78NcP2/++jk8r/n8nhs6/87/uTYytPyC9hP1TW2923SlBavTWR5yTVFjLjvkk0+Jhl5IPcvULz5l6jEqvetxfvzqNtEyveX2E/VNh+ykHTQBAgQIECBA4AqB6Jpq6Hpyy9eP6bjsv/dPQ+373DLtZ772E/VNV3R1V1UVrF7Fp3LUmAc7m+CTiN+X88rxKEgMlqtf3HkZ+Jycj2A5P373bSRoH/fL0usxWL7W9hP1TXpsAgQIECBAgACBNoHommqt138n1635veSGrl/tf/G+zPn7eAes9vvgTuDc/0R9U1vvNl1pwep0lodcU9SYwz8IuWMshj7Nme/TnOic8OcftYux89befqK+6ZCdtIMmQIAAAQIECFwhEF1Tjb1erMut/fqx3t962v57/1S3iZZp7Wfa9hP1TVd0dVdVFaxexady1JhPOoziE5b8ycK5zkf9osPhd/8JlfYTfIJbfFCRX1dePx9fP1HfpMcmQIAAAQIECBBoE4iuqfJ1Zx66/vT+LbeF8htu3r95/3bfLoL3rXnZpf1H1De19W7TlRasTmd5yDVFjTm/QJqGRYDYVC+/QNW/DyD5jfsDduKk/eyu/UR90yE7aQdNgAABAgQIELhCILqm+vk62vXz7q6fT94f5ffZfUPn3/nvaxtj5k/QfqK+6Yqu7qqqgtWr+FSOGnPdIZ98AvHLiyyaV9fL01HZaF4uXw+jstG8ul6ejspG83L5ehiVjebV9fJ0VDaal8vXw6hsNK+ul6ejstG8XL4eRmWjeXW9PB2Vjebl8vUwKhvNq+vl6ahsNC+Xr4dR2WheXS9PR2Wjebl8PYzKRvPqenk6KhvNy+XrYVQ2mlfXy9NR2WheLp+HUd+kxyZAgAABAgQIEGgTiK6p8vVW3zC6VovmqR/fEBJZRfP48YvaQNRWonlR3TQvKhvNW7p+1De19W7TlRasTmd5yDVFjbnvBXZufsuLNVqX+sVXUMZ8SlSV4ccvel2Nnbe29hP1TYfspB00AQIECBAgQOAKgeiaKl8fru36L+/X2KH99/5nbFuJymk/y7afqG+6oqu7qqpg9So+laPGnDqd8HkqDbd7qx98+sZv9NcttB/tJ+qb9NgECBAgQIAAAQJtAtE1VRwyuf584OL9m/dv1c1MD9rI/Td6vX4e2Jx5/UR9U1vvNl1pwep0lodcU9SY718QQy+EoWW58xkqM7RM/Y9/wIaMhpbx45fawFAbGVq2kvYT9U2H7KQdNAECBAgQIEDgCoHomur+/V6+7svDoWvEoWXqe/+R2sBQGxlapv0csv1EfdMVXd1VVQWrV/GpHDXm6A/t0G3y4d2FuXP8Zah+/232/IJP97Sfj39cD/z6ifomPTYBAgQIECBAgECbQHRN5f2H9x/Re/5ynvfv3r+X7aEcn6r/iPqmtt5tutKC1eksD7mmqDGXL5pofKiTHfyUakRIpP51f+T58Ytes+W8rbx+o77pkJ20gyZAgAABAgQIXCEQXVOV14beP3j/cNIeqhtc0rKtvH/oOw773x8SL/n6j/qmK7q6q6oKVq/iUzlqzLlDGuyAyg6357Z+9Qc6MH6f7sjUfj5ZFO3i6K+fqG/SYxMgQIAAAQIECLQJRNdUfWHK0a8/Hb/3rzkLGRx6/zrJ+9eob2rr3aYrLVidzvKQa4oa84NOpKfjeFCuCIVOlqkfdjwnRn12aT4/fkPt49yyjbafqG86ZCftoAkQIECAAAECVwhE11Rn34ds9Prx/rjsv/dP594jDS3XfmZpP1HfdEVXd1VVwepVfCpHjfn+D9JQZ/PLsvpTvXr63Lrq8vW0+sNfTam96ml+/IbaQN1e6umhumlZXb6evqZ+1DfpsQkQIECAAAECBNoEomuq8hptyuu3cr194/X26um+enl+Xb6ezuX6hnX5erqvXp5fl6+nc7m+YV2+nu6rl+fX5evpXK5vWJevp/vq5fl1+Xo6l+sb1uXr6b56eX5dvp7O5fqGdfl6uq9enl+Xr6dzub5hXb6e7quX59fl6+lcrm9Yl6+n++rl+XX5ejqX6xuW5aO+qa13m660YHU6y0OuKWrMY14ED+6iHPGpTvkiUr8K/Pid/VRM+ym+mlO3l3o6+FBka35R33TITtpBEyBAgAABAgSuEIiuqX5+v7fD68f6fezWrn/t/+l7ZOdv3+//or7piq7uqqqC1av4VI4a89g/tHXHfzI94g/1Sfk6CFL/bNDI7/QP74mH9rP59hP1TXpsAgQIECBAgACBNoHomurkujm/D3P9vPnr5/C85vN7buj8O//n2sjQ8gvaT9Q3tfVu05UWrE5necg1RY257JA1k3THAAAgAElEQVRPPiUaeiH1LFO/+JSpx6j0rsf58avbRMv0lttP1DcdspN20AQIECBAgACBKwSia6qh68ktXz+m47L/3j8Nte9zy7Sf+dpP1Ddd0dVdVVWwehWfylFjHuxsgk8ifl/OK8ejIDFYrn5x52Xgc3I+guX8+N23kaB93C9Lr8dg+VrbT9Q36bEJECBAgAABAgTaBKJrqrVe/51ct+b3khu6frX/xfsy5+/jHbDa74M7gXP/E/VNbb3bdKUFq9NZHnJNUWMO/yDkjrEY+jRnvk9zonPCn3/ULsbOW3v7ifqmQ3bSDpoAAQIECBAgcIVAdE019nqxLrf268d6f+tp++/9U90mWqa1n2nbT9Q3XdHVXVVVsHoVn8pRYz7pMIpPWPInC+c6H/WLDoff/SdU2k/wCW7xQUV+XXn9fHz9RH2THpsAAQIECBAgQKBNILqmytedeej60/u33BbKb7h5/+b92327CN635mWX9h9R39TWu01XWrA6neUh1xQ15vwCaRoWAWJTvfwCVf8+gOQ37g/YiZP2s7v2E/VNh+ykHTQBAgQIECBA4AqB6Jrq5+to18+7u34+eX+U32f3DZ1/57+vbYyZP0H7ifqmK7q6q6oKVq/iUzlqzHWHfPIJxC8vsmheXS9PR2Wjebl8PYzKRvPqenk6KhvNy+XrYVQ2mlfXy9NR2WheLl8Po7LRvLpeno7KRvNy+XoYlY3m1fXydFQ2mpfL18OobDSvrpeno7LRvFy+HkZlo3l1vTwdlY3m5fL1MCobzavr5emobDQvl6+HUdloXl0vT0dlo3m5fB5GfZMemwABAgQIECBAoE0guqbK11t9w+haLZqnfnxDSGQVzePHL2oDUVuJ5kV107yobDRv6fpR39TWu01XWrA6neUh1xQ15r4X2Ln5LS/WaF3qF19BGfMpUVWGH7/odTV23traT9Q3HbKTdtAECBAgQIAAgSsEomuqfH24tuu/vF9jh/bf+5+xbSUqp/0s236ivumKru6qqoLVq/hUjhpz6nTC56k03O6tfvDpG7/RX7fQfrSfqG/SYxMgQIAAAQIECLQJRNdUccjk+vOBi/dv3r9VNzM9aCP33+j1+nlgc+b1E/VNbb3bdKUFq9NZHnJNUWO+f0EMvRCGluXOZ6jM0DL1P/4BGzIaWsaPX2oDQ21kaNlK2k/UNx2yk3bQBAgQIECAAIErBKJrqvv3e/m6Lw+HrhGHlqnv/UdqA0NtZGiZ9nPI9hP1TVd0dVdVFaxexady1JijP7RDt8mHdxfmzvGXofr9t9nzCz7d034+/nE98Osn6pv02AQIECBAgAABAm0C0TWV9x/ef0Tv+ct53r97/162h3J8qv4j6pvaerfpSgtWp7M85Jqixly+aKLxoU528FOqESGR+tf9kefHL3rNlvO28vqN+qZDdtIOmgABAgQIECBwhUB0TVVeG3r/4P3DSXuobnBJy7by/qHvOOx/f0i85Os/6puu6OquqipYvYpP5agx5w5psAMqO9ye2/rVH+jA+H26I1P7+WRRtIujv36ivkmPTYAAAQIECBAg0CYQXVP1hSlHv/50/N6/5ixkcOj96yTvX6O+qa13m660YHU6y0OuKWrMDzqRno7jQbkiFDpZpn7Y8ZwY9dml+fz4DbWPc8s22n6ivumQnbSDJkCAAAECBAhcIRBdU519H7LR68f747L/3j+de480tFz7maX9RH3TFV3dVVUFq1fxqRw15vs/SEOdzS/L6k/16ulz66rL19PqD381pfaqp/nxG2oDdXupp4fqpmV1+Xr6mvpR36THJkCAAAECBAgQaBOIrqnKa7Qpr9/K9faN19urp/vq5fl1+Xo6l+sb1uXr6b56eX5dvp7O5fqGdfl6uq9enl+Xr6dzub5hXb6e7quX59fl6+lcrm9Yl6+n++rl+XX5ejqX6xvW5evpvnp5fl2+ns7l+oZ1+Xq6r16eX5evp3O5vmFdvp7uq5fn1+Xr6Vyub1iWj/qmtt5tutKC1eksD7mmqDGPeRE8uItyxKc65YtI/Srw43f2UzHtp/hqTt1e6ungQ5Gt+UV90yE7aQdNgAABAgQIELhCILqm+vn93g6vH+v3sVu7/rX/p++Rnb99v/+L+qYrurqrqgpWr+JTOWrMY//Q1h3/yfSIP9Qn5esgSP2zQSO/0z+8Jx7az+bbT9Q36bEJECBAgAABAgTaBKJrqpPr5vw+zPXz5q+fw/Oaz++5ofPv/J9rI0PLL2g/Ud/U1rtNV1qwOp3lIdcUNeayQz75lGjohdSzTP3iU6Yeo9K7HufHr24TLdNbbj9R33TITtpBEyBAgAABAgSuEIiuqYauJ7d8/ZiOy/57/zTUvs8t037maz9R33RFV3dVVcHqVXwqR415sLMJPon4fTmvHI+CxGC5+sWdl4HPyfkIlvPjd99GgvZxvyy9HoPla20/Ud+kxyZAgAABAgQIEGgTiK6p1nr9d3Ldmt9Lbuj61f4X78ucv493wGq/D+4Ezv1P1De19W7TlRasTmd5yDVFjTn8g5A7xmLo05z5Ps2Jzgl//lG7GDtv7e0n6psO2Uk7aAIECBAgQIDAFQLRNdXY68W63NqvH+v9raftv/dPdZtomdZ+pm0/Ud90RVd3VVXB6lV8KkeN+aTDKD5hyZ8snOt81C86HH73n1BpP8EnuMUHFfl15fXz8fUT9U2z9NivX3fds2dd9/TpLJuzEQIECBAgQIDALQWia6p83ZmHrj+9f8ttofyGm/dv3r/dt4vgfWtedmn/EfVNt+wLh9YtWB3SseysQNSY8wukaVgEiE318gtU/fsAkt+4P2AnTtrP7tpP1Ded7dAuLfD2bdc9f951jx513d3dx1/B6qWa6hEgQIAAAQIrEoiuqX6+jnb9vLvr55P3R/l9dt/Q+Xf++9rGmPkTtJ+ob1qq6xSsLiW/k+1GjbnukE8+gfjlRRbNq+vl6ahsNC+Xr4dR2WheXS9PR2Wjebl8PYzKRvPqenk6KhvNy+XrYVQ2mlfXy9NR2WheLl8Po7LRvLpeno7KRvNy+XoYlY3m1fXydFQ2mpfL18OobDSvrpeno7LRvFy+HkZlo3l1vTwdlY3m5fL1MCobzavr5emobDQvl8/DqG+atNt9/77rXrzousePP4WpOVRNQ8HqpNxWRoAAAQIECCwjEF1T5eutvmF0rRbNUz++ISSyiubx4xe1gaitRPOiumleVDaat3T9qG9appfsOsHqUvI72W7UmPteYOfmt7xYo3WpX3wFZcynRFUZfvyi19XYeWtrP1HfdHW3++FD17161XVPnsRhqmD1amIrIECAAAECBNYlEF1T5evDtV3/5f0aO7T/3v+MbStROe1n2fYT9U1L9Z6C1aXkd7LdqDGnTid8nkrD7d7qB5++8Rv9dQvtR/uJ+qaLu9383NQyOD037o7Vi7lVJECAAAECBNYjEF1TxSGT688HLt6/ef9W3cz0oI3cf6PX6+eBzZnXT9Q3LdVzClaXkt/JdqPGfP+CGHohDC3Lnc9QmaFl6n/8AzZkNLSMH7/UBobayNCylbSfqG9q6naj56aeC1PL5YLVJm6FCRAgQIAAgXUKRNdU9+/38nVfHg5dIw4tU9/7j9QGhtrI0DLt55DtJ+qblupFBatLye9ku1Fjjv7QDt0mH95dmDvHX4bq999mzy/4dE/7+fjH9cCvn6hvOtvtnntuahmcnhsXrJ7lVoAAAQIECBBYv0B0TeX9h/cf0Xv+cp73796/l+2hHJ+q/4j6pqV6VMHqUvI72W7UmMsXTTQ+1MkOfko1IiRS/7o/8vz4Ra/Zct5WXr9R3xR2uy3PTT0Xplp+/tmzjBhpA9qANqANaAObawP1dVV5bej9g/cPJ+2husElLdvK+4e+47D//SHxkq//ul9K00v9LLflpY7YdicViBpz7pAGO6Cyw+25rV/9gQ6M36c7MrWfTxZFuzj66yfqm046v0uem+qN4ObeCHbOmXOmDWgD2oA2oA1c3Qbq66q+MOXo15+O3/vXnIUMDr1/neT9a90vpemlfpbb8lJHbLuTCkSN+UEn0tNxPChXhEIny9QPO54Toz67NJ8fv6H2cW7ZRttP1Dd11z431Ruzq9+YCTrvGHodaQPagDagDWyuDdTXVWffh2z0+vH+uOy/90/n3iMNLdd+Zmk/db+Uppf6WW7LSx2x7U4qEDXm+z9IQ53NL8vqT/Xq6XPrqsvX0+oPfzWl9qqn+fEbagN1e6mnh+qmZXX5evqa+lHf1L1503XPnm3uzYwwUhipDWgD2oA2oA1oA0u2gfq6qrxGm/L6rVxv33i9vXq6r16eX5evp3O5vmFdvp7uq5fn1+Xr6Vyub1iXr6f76uX5dfl6OpfrG9bl6+m+enl+Xb6ezuX6hnX5erqvXp5fl6+nc7m+YV2+nu6rl+fX5evpXK5vWJevp/vq5fl1+Xo6l+sb1uXr6b56eX5dvp7O5fqGZfm6X0rTS/0st+Wljth2JxWIGvOYF8GDuyhHfKpTvojUrwI/fmc/FdN+iq/m1O2lng4+FNmaX9Q33Xd+6bmq6VEAT54IWd01pA1oA9qANqANaAPawJk2UF9X/fx+b4fXj/X72K1d/9r/0/fIzt++3//V/VKaXupnuS0vdcS2O6lA1JjH/qGtO/6T6RF/qE/K10GQ+meDRn6nf3hPPLSfzbefqG8KO7/377vu5cuue/zYm6ozb6qWvFPGtt2ppQ1oA9qANqANLNcG6uuqk+vm/D7M9fPmr5/D85rP77mh8+/8n2sjQ8svaD91v5Sml/pZbstLHbHtTioQNeayQz75lGjohdSzTP3iU6Yeo9K7HufHr24TLdNbbj9R33S283v3ruueP++6R4+uD1mfPj27OQUIECBAgAABAmsXiK6phq4nt3z9mI7L/nv/NNS+zy3TfuZrP1HftFR/KlhdSn4n240a82BnE3wS8ftyXjkeBYnBcvWLOy8Dn5PzESznx+++jQTt435Zej0Gy9fafqK+qanbvfZ5rILVJm6FCRAgQIAAgXUKRNdUa73+O7luze8lN3T9av+L92XO38c7YLXfB3cC5/4n6puW6kUFq0vJ72S7UWMO/yDkjrEY+jRnvk9zonPCn3/ULsbOW3v7ifqmi7rdS5/HKli9iFslAgQIECBAYF0C0TXV2OvFutzarx/r/a2n7b/3T3WbaJnWfqZtP1HftFTvKVhdSn4n240a80mHUXzCkj9ZONf5qF90OPzuP6HSfoJPcIsPKvLryuvn4+sn6puu7nZbnscqWL2a2woIECBAgACB5QWia6p83ZmHrj+9f8ttofyGm/dv3r/dt4vgfWtedmn/EfVNS/WYgtWl5Hey3agx5xdI07AIEJvq5Reo+vcBJL9xf8BOnLSf3bWfqG+atNs99zxWweqk3FZGgAABAgQILCMQXVP9fB3t+nl3188n74/y++y+ofPv/Pe1jTHzJ2g/Ud+0TC/ZdYLVpeR3st2oMdcd8sknEL+8yKJ5db08HZWN5uXy9TAqG82r6+XpqGw0L5evh/8/e+/3qkuT3fed/+DcKJGdm32TBAccTiAYklz4SArYyY2PiGIIEc6xHBLjXGQLy5YvInRGzo0kS++RjQyvhGFbaEay7JEOzAjsEYEdmBkYS5P34AELz3tzkNAooAzvi6ULyVdP+O6913NWr2dVdfWz+3m6u57Phk11Va9VPz69uqprPdXVmWyWFvUsnslmaSYfw0w2S4t6Fs9kszSTj2Emm6VFPYtnslmayccwk83Sop7FM9kszeRjmMlmaVHP4plslmbyMcxks7SoZ/FMNksz+Rhmslla1LN4JpulmbyFWd90sm43248Vx+rJcJMxBCAAAQhAAALnI5A9U9nzVinMntWyNPTzBSEZqywNfvDLbCCzlSwt01VaJpulLa2f9U3n6xmHJeFYHfIgNpFAZsylG2wsfcrNmuWFvnsFpeVXoiADP/hl91Vr2trsJ+ubJnZv08X9fqw4VqfzQwMCEIAABCAAgdURyJ6p7Plwbc9/Vq/WkPoz/2m1lUwO+1nWfrK+aakOFMfqUuQ7KTczZnU66X4qE5Z7o5/8+ga/5tctsB/sJ+ubztrtysnKHwQgAAEIQAACENg4geyZKncy8fx5wIX5G/O3sJjpwEb2b/Ry/xywGbl/sr5pqe4Wx+pS5DspNzPm/Q1RuxFq56zzqcnUzqF/P4DVGNXOwQ9+soGajdTOrcR+sr6pk26XZkAAAhCAAAQgAIGzEcieqfbzPXvus7D2jFg7hz7zD9lAzUZq57Cfi7SfrG86W8cYCsKxGoAQnUYgM+ZsoK0tk09XF1rn+BCiX15mD7/k1z3s535wveD7J+ubpvVuSEMAAhCAAAQgAAEIZM9UzD+Yf2Rzfp/G/J35u7cHfzxX/5H1TUv12DhWlyLfSbmZMfubJjuudbLVX6kanEToP26Qhx/8snvWp23l/s36pk66XZoBAQhAAAIQgAAEzkYge6byz4bMH5g/DOwhLHDRua3MH0rtoP5lJ/GS93/WN52tYwwF4VgNQIhOI5AZs3VI1Q7Id7iFZf3oVzow+L1fkYn9vGfh7OLS75+sb5rWuyENAQhAAAIQgAAEIJA9U5WcKZf+/En7mb+aL6QaMn+dZf6a9U1L9dg4Vpci30m5mTEfdCKFjuNAzjmFBufQTzueAaMSO6XDD341+xg7t1H7yfqmTrpdmgEBCEAAAhCAAATORiB7phqdh2z0+XHfLurP/GlsjlQ7j/2cxX6yvulsHWMoCMdqAEJ0GoHMmPcDUq2zeTgXf9WL8bG8onyMo19/NSXyinH4wa9mA9FeYrymq3NRPsYfo5/1TdN6N6QhAAEIQAACEIAABLJnKv+MNufzm8+3dBzLi/GSnqVH+Rg3uVIY5WO8pGfpUT7GTa4URvkYL+lZepSPcZMrhVE+xkt6lh7lY9zkSmGUj/GSnqVH+Rg3uVIY5WO8pGfpUT7GTa4URvkYL+lZepSPcZMrhVE+xkt6lh7lY9zkSqGXz/qmpXpsHKtLke+k3MyYW26Cg1WUDb/q+JsI/eDwg9/or2LYj3s1J9pLjCc/imyNX9Y3ddLt0gwIQAACEIAABCBwNgLZM9XdfK/D58c4j93a8y/1H86RuX59z/+yvulsHWMoCMdqAEJ0GoHMmFsH2tjxD+INA/VAPjqC0B91NMJvOPAOeGA/m7efrG+a1rshDQEIQAACEIAABCCQPVMNnpttHsbz8+afn9Pratd3LOT6c/3HbKR2/gj7yfqmpXpsHKtLke+k3MyYfYc8+JWodiMVzqHvfmUqMPK84zH84BdtYkp8y/aT9U2ddLs0AwIQgAAEIAABCJyNQPZMVXue3PLzo9pF/Zk/1ex77Bz2cz77yfqms3WMoSAcqwEI0WkEMmOudjbJLxEf+TR/nDkSk/Pou5WXCZ/B9UjOww9+extJ7GN/Tvdjcn6t9pP1TdN6N6QhAAEIQAACEIAABLJnqrU+/w2eW20uuaHnV+rv5mVcv/sVsNjvwUpg63+yvmmpHhvH6lLkOyk3M+Z0QLCO0YX8mnO+X3OyawJ/+Gd20Zq2dvvJ+qZOul2aAYFHEXj+/Plujv/r6+tH1QNlCEAAAhDYBoHsmar1eTHKrf35MdY3xqk/86doE1Pi2M+89pP1TUv1qjhWlyLfSbmZMQ86DPcLi/2yMNb5oO86HPjtf6HCfpJfcN0PFXZfcf/c3z9Z39RJt0szIPAoAtm9cUyanLP8QQACEIBA/wSyMcKeOy3k+ZP5m9mCf8ON+Rvzt71dJPNWO3ds/5H1TUv1yDhWlyLfSbmZMdsNMil0DsRJenaDor93QMKvbQAbcMJ+urOfrG/qpNulGRB4FIHs3jgmDcfqoy4DyhCAAAQ2QyAbI+6eo3l+7u75eTA/snl2KeT6c/1LttGSPoP9ZH3TUh0rjtWlyHdSbmbMsUMe/ALxcJNlaVHP4plslmbyMcxks7SoZ/FMNksz+Rhmslla1LN4JpulmXwMM9ksLepZPJPN0kw+hplslhb1LJ7JZmkmH8NMNkuLehbPZLM0k49hJpulRT2LZ7JZmsnHMJPN0qKexTPZLM3kY5jJZmlRz+KZbJZm8hZmfVMn3S7NgMCjCByzDcCzZ8928Z56/fr1o+qBMgQgAAEIbINA7P8Vt+etUpg9q2Vp6OcLQjJWWRr84JfZQGYrWVqmq7RMNktbWj/rm5bqVXGsLkW+k3IzYy7dYGPpU27WLC/03SsoLb8SBRn4wS+7r1rT1mY/Wd/USbdLMyBwdgJyxvp76uXLl2evAwVCAAIQgMAyBHz/b8f2fLi25z+rV2tI/Zn/tNpKJof9LGs/1h/5cJlecrfDsboU+U7K9UZsx+p00v1UJiz33qL+m9v/Z/fZL/7fd/+/+MXb3W/81sfDX3OPbL/yUb7KU6HKyTp2n7ZFfln9v/Lb/2+daXAOWx6Pab/4Gmvxtjz9fkH7tBOUr7xb6//DP/b3dvof1HOCfqkdreWvWd/6Ix920u3SDAiclcCrV68GTlWtXv3000/PWgcKgwAEIACB5Qj4Zyk7zp4Be3h+PGhXmL/pmdv/+/neY9of5x/7fEP5B/Vzc5HHlK98l9KPc91929W2E7XfX0ObWy/VfrumKt9Y/N0PPryb4/3YBx/e2duAibvmprvk9bM6LMHP+iMfLtVT4lhdinwn5XojtmO7uaodYUsnWZOpnbPOpiZTO3ek/l/5X//3weTzz/1Xf/69U87ytHBC+crH2CpUR1tl21LGhPL319PyVXgmfQ16vu1yIt7V54Tl/9f/7YtBmUu2Py37gb9YGJs9l9ZrdEJ++zrXyqidszbUZGrnHvSNjQ876XZpBgTORuD29nbfz+heevr06e7t27dnK5+CIAABCEBgeQL+WcqO98979txmYe0ZrXZuI/r/8X/yZwfjouZ/Axa1NlbO/Xvf+acH+WoONMhXfCr6e9maTO3cgvz9nEb2lc5rZm6/2bFCzf2W5vfTP/9Luzjn93XUsc5Lbl9Xu2Y+rF3j2jnLoyZTO7eQfmSk+FJ/y5W8VIspd1YCmTFnN3ttmXz664bdnA/hFvR/7pe/OBgQxcZ+XTq2/tKPjLWK0zPuhZ9vkx0XHavOPuZuf+ZYPfb6WTvm1m/hYmUrnLv8Yd753kZDmfJrInNfPys33jeK8wcBCLQT0KrUq6urwRjEvqrt/JCEAAQg0AuB7JnqVM9v9hyncI3Pr1rg4nnIIerr7I9b6y9nmc9Tztu1tt/aN+f1LzlWW/lZnWJY0/e8B47VwRzz9PMXzevj3NPXLTv+3v/hf9p9+bd/v2h3xqHW/jmvn5UXw3OUn/FZqt9lprkU+U7KzYw53lQxXrvJWn6JW7N+/BUz+8VtSv3/t7/1I4OBVr+KTtGP7BXfkn7mQDx1/ePgFhmeuvxYXoz/2u3Xd/FX7b2dNfySuHT9z1V+1jd10u3SDAichcD19fVg/NE+q/xBAAIQgMDlEcieqQbPpxf0/ClHWOTxc7/0xUc5ueQo83nun+sbnXxbnz//8Gd+8uzt97xLjlVv46eYv8iWSqtUVSf9l84rfV+/C7r/9m1+uDf8dbTjpXpoHKtLke+kXDNgH5rBVzsgN1CUBoMt6sdf3OwXR2OShoXOUO2Pjtopr4VskZ/no/pnjlUvc3dc4Xcg6+3OjoP+mGP1IM+gb+dPwV88olNV997kBzBru8Iz1t/YDMITle/7JDvupNulGRA4OYGPPvpoMMnRPcQWACfHTgEQgAAEVknAnqN82OvzY8vze3SEKm7Pti36d7IPz7+Zo9beeLQ80/BEz89T6x/rdox+nD9n85pYzmPtz9uyd6weU39ftyn6cQGV6vS3P/OTO9mEz1P2kMlmnKaU78uw463p++tox0t1ojhWlyLfSblmwD60G3MfFjr+/Xnv5MmON6SfvbpvG2I3t/eBQdxaoMlJu3F+KaMzX/8Dx+qZyz9g8FB+fPXI33PZwLrPZyX139cns9Fa2pH193zsuJNul2ZA4OQEtDrV7huFL1++PHmZFAABCEAAAusk4McDOx59rjvy+W2f74r14xxNTKIzrOT427fv4dk3Pt/vnbQrbn9sQxpfef3NjhV6x+q+LSeuf+YzGOyfmpQfbUWLbQ7szuZUif6+bSZTCzei76+jHS/Vi+JYXYp8J+WaAftwyk0bfxWJ8bG8onyML6Eff8XUL0ylesT6+nj8GJY605iPl9e5GI/yMR7lYzzKx3iUj/EoH+NRPsajfIxH+RiP8jEe5RU/cKxWBp1MP5ZRi7foa+CNdfL3m47NsRrzq5Wtc1E+xresHxkpzh8EIDBOIPtglfZb5Q8CEIAABC6TQPZM5Z8Re3p+9O0qHau98a3CgVOsMndQnp5XfNVbTttSuZbu9WN+JlML0f/DwY/H3+M/XjVy7TLekWeNvelHJ+nBR9AK9YhzQtndMeX7Om5ZP+ubluqlmWkuRb6TcjNj9jeqPx7ctPFXkBhPOpOt6McNyG1T8yn1T18L+c2P3w+0kVeMb5iftxl/PIWf17PjVv04YE3VN/kYtpZverKB6Fy3+y0+hP3wZ/7ee9tIrr3ynFq+1cPCrekbKx920u3SDAiclEBcrfrq1auTlkfmEIAABCBwJIF3745UnKbmn6Xs+O758ILnH1rUYCwUav5gz8w+rD0/661Gn0f2dmJNv2VVLPruA1TOXj330rXTdTwVvzjfLL3hGsuPDllbXONtzh9HfX+uB/vx19GOp/Vu80njWJ2P5UXmZAbsw7sb1nVcgxu44PQ5kNm4ftwHs+XXR8/gp37+c4OBdv9ayAg/laMVsuqsrcPWIG1xdb5aAenLisc6r03EJevllbccfWqb8lM5ltedzoP8nY5zApuedKQrp6COfd6xDtbRx3zTPWYdE8lrwLH2yi7tWPVtuQ6SP7Dn3/2ju7YaW/PuXD0AACAASURBVDE1rmJyUK8Z7DfuL2t1UvviObEcMJyh/EF+jnFT+grKN14+vMhOmkZDYAIBVqtOgIUoBCAAgaUJXF3tdvrXdi03N7vdiRyt/lnKjtPnwRU8/6X1an2OnVB/zTmMhYW/4eY/LfXQvMJ0FWr+NaanhRdaxKP5h+YsttjC5leaM2quUHxF/IGF5hKaP9j/Xbm/80d3cyXlbfMcP1+L8zKrq9VJZds8yuZfk+ryMP88mFeF66d62JzM2m/lqb4lJ6XVV6HnLl1rv8q2vP18T2mj+U6wH+Xt62Dl+zpmx9U54ITys7xt/p2eC9cglVmgfM/QjpfqlnGsLkW+k3LNgH3ob7TBryQtN2SQ2ap+HCg1QHkuY8c2SBjXMYegBpHozDXdLFR9SgNu7LAVl3yWj9I0yGQ6Sv9z/+WfL+pZfmJV4vGLX7gd6KudmazaUqujlaVQA1mNpz0QmI7yjtfTzvlQehroff0eY7+RqfK3AT2eK3F5TPlqx5b1/bWx4066XZoBgZMRePFi+MMSe6ueDDUZQwACEHg8gefPdzttdeT/5Wh98WK3e/16t3v79vFl7JT9k4N//7wbj7f8/Djl+TfOGeREnKIf5242j8j4tc5H/LUqzQ9UR53zskqL8087r3rqfJx/WFp0EpqehdI3NtKJ/7Eu+oBTlFFc86DI3MqIodpi86YsLy+vPMW3JW85jyWb5Wlp2fWzcxaKpf7lJI/XqaYf34yNusq/pm/l18It6fvraMezdHpHZIJj9QhoqLwnYAbsw9qNmv0S8pH/dcMfJx3vVvQ1MHomGlDuOuGkfbH9UVeD1Z5pot8yCPi62LH0lG8sPw6aNaei6ib9qKPBMz4sWLlZuHeuhvbFfLNX3lV+6UEgK8vSNDBl7Y88p+S9v86Z7SottC8r3661tV310fFd+oO+nbO27AfVJH/Lz+v7tHj9/bmD4yT/teobGx++77k4ggAEIoF3794Nxi3dO0rjDwIQgAAEVkpADlTvVM2Onz59tKPVP0vZ8Vqf/w6eXSc+f0/Rj04uzRla9X/ul744GHNtXpbpf/m3f/+ouY6u1d0cK3l+1+pYu5YKo3PTn7O6xflHbL/XyY7385Uw/9T8zst7uTsev/NHd/PoKXMyy+9uDpW0384rVL5T8pbsUvYfFxLdOayT9g3sKDm/VP2tXnOV76+jHS/VW+NYXYp8J+WaAfvQbpixcEu/hmRtGat/7KDNkWd5lfTjwHYwuDw47aSfOT01+ElHA4n+1eGqE84cndkveXHQ9Nc2HptDtKajclW+6iT50q+a9iut8VEY8/UsjF9koPKUplWp0leoeGz/d3znnzpYYaoyxS+20+K6pqqD/v/GD/0faVvUVt+G0rHVv3RePFT/7HyNSyafpY2Vn+n4tLXr2zXzYSfdLs2AwEkIvH79etD3afUqfxCAAAQgsGIC2gM7c6bW0o5wtPpnKTv2z4RTjtf+/DjWllj/OL/I5lY+T9PXykdjqTDOE71ONjeRvuYjmhPo3+Z7Pk8dq35+haWVL90oW4pb3eL8w7ddxzbfU5jN9yRj5fv2xboo7s/rOM6rlb/k/HxP5cY2SM7nZeVHOR83tso/m0NK1pj4vFuOrfwW2SgTF1+pHtn8Oer5+GPKVz5r0/fXzY6X6rFxrC5FvpNyzYB9OLjh3C8kg18mSiv64g27YX11uJ6LOmnfsZWO40BkHWbkl3WuKrPEP/u1M3MCxtfvrQ0a1JW/Hhg0eKs9Vrc40JqOZGww9/XP5DVwxQ77F784vhWAH9RV7mB/I2c/WfvvfuULtqgvQ1r9fah9b+M1U9viIK767OVc+b79+/Oh7Nh+v8LV60d+/gGkdP29/mPL34K+v3Z23Em3SzMgcBICV1dXg77vRvv18QcBCEAAAuslcIxjNTpdzdH6wQe73e1t2lZ7jvJhfBa81OdPzV88l7v5zMjzv+YPXufA4ej041xIspnz1vjrXJwbZfMdzR18HexY8xqtprX5nuZ/NpeL8w/TUV6aZ+1t4qH+cS4seaXt5R7mQbEu/g1FzV/inFftszpZXrX2Z1vAWd19uGfr+Kt8lRUdu4pb2Qqt/Lu0oO/lSsct+tHBrrjl16Jvslm4VX1//ew47cTOkIhj9QyQey7CDNiH2c06muY6oFHZxBnlHVBr0VcnHAe2OAjs6/rQ/jhg+Q5zL/vQfg2SnnvmJI06GiS9zv5XPMc/1kHycfCI+cZBXzpjjuRY/31d3PWNdfEORNUhtmeMQcxvz9e1Pw5aakv2EGAMsuuscux8U+jKb5GP7fAPIC36BzITy9+CvrdzO+65L6ZtEHgMgbgNwFNNtPmDAAQgAIF1E3jzZvqK1ehYzeLau1VO2wdHqz1H+fDuWbDD58eDZ1w3Lzk49zuHc5FsPhP14hzIFpdEOcXjAo7BXKjAPzo09/Md15bozNS1HZu7xfmHdAb1cflbW2L9B3V5qH+sS8xTjlFve3tHcWP7M74+PzvWvNLqHcPo3JXOOf0PkaPK1/w71nNSvMCvOY8V6Nu18+FSnTaO1aXId1KuN2I7jjfj4BeQhw43S4t6Fs9kszSTj2Emm6VFPYtnslmayfswdoI2EJT0o7wGxkxWafEX0tJgEPXtOlno66vjbNCMecc8azpRVmVYmtXBwrG62EBr+p8NK1rFL+ZhspYuGe0rJLaxXZKJjtW/8UOHH9eKecZrIR5WXpRVepZm8jHMZOOqYuMSdUtlZXlmulvWN5vyYSfdLs2AwOwE4jYAfLRqdsRkCAEIQGB+AnJ8Zo7RmdN+68mT3T948mT33e4jVqXnRkvPnjWzNJOPYSabpUU9i2eyWZrJxzCTzdKkF1czah6QyVpalLc3AH0dTDbOS4qLdJxTUzL++decmZanyonOzLgK1MtaveL8Q2WU6mP60SFpdbE8s7qobqafnbf5tM/DH6tOf+V/ud+Gzs/3fJ6ej45jnl7W8o5vNWbzSJPN9LM0k4+hl42OctW3NvdTXl7f8s7S7FwMM9ksLepZPJPN0kw+hplslhavo+JL/S1X8lItptxZCWTGHG+M1nh2s7TqSm6N+upwPaPays8v/+vfH6xw1QDX0n4NHqUBPNOPA7TJGL/oJG355fUYHZVbqovVKeYbB5HIV6zl5CwN8pZvFlr7Y51Uh0zep8WHEw2A/nzLsZXfIptxmaKfldGbvr/v7HjWzo/MINARgefPnw/GqjdaBcUfBCAAAQisk8Cnn96vJv3lXz6LY1XO2zdPnuz+s8Sx2tvzY/aMXEtT+6PjK1voYXlER2Ntbmg6CqWXOfJK/O3ZV2GLM3NstarqEOcfyrdUvq97rS7Sj/OoON+LfDVHNkdoS/m+Lnbs66TjlrljtpDm2PKtHmP6amesq79WY/pWTincun5ko/hSf8uVvFSLKXdWApkx68ZN93OcsFy8J305Jj2n7FdJMYuDhjrvQSf4CH4qU/lroI/bEwzKSAbNfeddKT8baGO+2esS0YlpOnb9Y75xoJV85GusVW8NRnvelfpbuQpLdcrqb3oHDwSf+cnhtdOvyI3lK09rv+V/Fzr9MS5j+oN83S/clt6DvtmBD2ft/MgMAh0R8PeJjj/VpJ0/CEAAAhA4P4F37+6dplqNqtfx9a+PCer1/KurszlS9ythX74cOFRtvLBnRh/28Pzo23N37J6/D849PEPLKefnV4PFMUE/Ouc0P7N8H8vv126/vp/v2XVS2OJY1VxmrPxj5x/H1MWYaP6kuZzPw47FWXNbMdQ1GKv/Ps/f/aNBfna9xvTjfE88fJ5j+l42O476apu11UI54ktO4Kh/V0awv6xcS9uivnHx4fk77fsScawuRb6Tcr0R27HdnFVHUstNXpOpnTNHUU2mdm5m/fhL051zMCk/OvT2DkGrjw8TfXFXB6/yVIYcizFPu0Y+3F+vh/zHBs07+VB+1LkbwIPMoJyHc7F+USbme8dO9XR569db/zDj22bHcr7qQWa/ebnTH5RZc6xW+MeBtnSN92VVym+RiXva7rlU6rjPN/AbpHekb9feh510uzQDArMSuL0dfiTw2bNns+ZPZhCAAAQg8EDg7dt7p6neCjCnqRym+tfe1jO/wv+o/F6+3O3k5N2pWk8O/nt9fvRzjIM2Vp7foxNsP+cIz9Z+QYjmLwdOskoZqpvkNT/Ss7/+NZeKWwvE63U3LwvP/9L1cnsHb6X8Y+cfvpx9XRyXWBfFI3vVz+eTHYuD5nvZyt67/FzbvP6gTk4m1kFbyXk9XYcoc6z97PN5uMbRnlSu6nlgL45jbOM+T5OptG0vW5OpnWsp4wT6/nrY8VLjDY7Vpch3Uq4ZsA/3N6bdYCOv6ae/jjhd5Vdbpr52fXWAno8GVM9I9Y+/xMXXQmrt11cYNQCNORd9Hfxx5Jc5M2vlSz/qDAaoyvWTnK+L56LjmG820Kp8DaD+QcXnGY/FyecT25/Vaaz9ys+X4/M/hf22cPEsx+rvZbPjLer762HHnXS7NAMCsxKI+6teX1/Pmj+ZQQACELgIAuY0vbm5d5qqLzWn6ZocprW6yLnrHKp23ew5yofx+bmX50ffjinPv/HZXAtcon78CJOcZ768eOz1NVeU/DHzvTgvUzktTkJfvnRiG+N8p1R/bzdWF28/pXlUVn5r+zUv/Kmf/1yRb1anUv0tPdZTPOxcFsb6exnffp+u65w5yqOtlPR9XseUvzV9fx3t2Pqtc4c4Vs9NvLPyzIB96G/I7Lh2k1d/5Xlwtm5RP/7qFH9Ji6ta978aBgezePr2t6zWtGtjv+LFznpwjRInaRw0ffmmGwdaGzTtvA+9/oETM/ySFfNVXby+z1cO7B/74MN0MDIGPlTZB7/6/U5lK4CK/cWBNjLz9SzV/04mtN/r2bH0My5T9C2vg7Cx/AM9s9MV6ftrbceddb80BwKzEJAj1e4RhTdyCvAHAQhAAALvCei1fP2/fn3vNJXzUU5TrfCvOSq3ck4OVa2gLWwD48cIOx48C67o+W9QL3s+DfOnA5mZ6h8Xefh5hp7fi/PBkfJbVmvaddH8Js4rlRbnH3Hu0uIkPHb+YXVTqLpE/tHJm82jrP5yPGpVamTty/DH5pA0fSvby2R1MjkLpV9kNnL9lEcs3/K9Cx/0S/N6taFFf5Cns/3W8reo76+jHb/vuM97hGP1vLy7K80M2Id2U1Y7AH+zFzqjnvTjL5QaEIyTnMl+cNAvcRqIx9pf6nylrwHib3/mJ+8G1jhQ6tzgegX+xUHTXzN/nDhjVcZY/dX+g7q4fKXfVJdQf+WrQfenfu5zd9sh1H7ZvFsZHPRrddpfM1dPXb840Cre0v67/EL5VkZNv4VLTd/KOLb8Leh7G7fj7jpgGgSBGQjED1dpawD+IAABCFwEAfsI1Fr2My05YrW3qhy52mvVthAwZ+/f+TvHO3dHHKpmA/Yc5cPSYphLfv6MDk2/UEZzO8/vbg7i5xMPx5FffOa3PDR31KpYzTlUjuT0fG76JqdQc5vBs/vditXh23ZRP8orHuuisqOcle/T07q4+U82j/L66fHDG4tiLg6+jHictd/L+PNZ/a38WE9jZucV1vS9XLx/5CvI5qzehmr6du7Y8req76+jHVu/de4Qx+q5iXdWnhmwD+3G3Ieu49ynJQNJ8Vwn+tF5au2Vg9Tzs1/W7HzseC3d5yd9dcal/XxMR6EvS8f+nI4PBs3PHA6aYzp+gCrVX3lIztdnLN8fbqhLzEPli3Hp1804YB3UqcH+4kA7eNBo0D+os78/Ev2Da5Q82OzzTPT353w5peON6nu7suPOul+aA4FZCFxdXQ36YT5cNQtWMoEABJYmYB+ByvYzXeIjUCWnqVa9ymmqVbBymmpVrDlNWxhKp5R3Kb3RoWrF23OUD0efJTf6/Lhv1xH1j85TPx/SfMPzi/OPfbn2PP6w12Z0tmn+lzn0or4vy9fD5OLc5SDPpP3Hzj+m1uVuHpWUb3Uvhaqf5nuRmcrXXNDrjdUpm7+OMrNrp3BC/aNtqG7Feb0vo3Y8oXzPZX+8EX1/He3Y+q1zhzhWz028s/LMgH24vyFrN/vDufirSoyP5RXlY3xN+rEzlhNU9S2+FlLhF52x4q+0lvb7a6Vjz0j6UwZNKy/qZAO4L8eOv+e/GTpWLT87H/O9G2gdF5OXXEv79cATB1ufp/I7cKy68qxeFlr58dr6PE02C03fzsW4pcewxKVV3/KL8jFucqUwysd4Sc/So3yMm1wpjPI+Hu1ccf4gAIFDAvFeOZQgBQIQgMDKCHz00b3zMdvPVE7DkkPx3Om2x6r2W5UDVPWd4jRtwa48W9tlDtVPPmnJeS8TxwnF/bOZf/7y6aXjKB/jJT1Lj/IxbnKlMMrHeEnP0qO8j8fVk3qLTnpxKzbNSUr5WXp0uGkOIz1fnmRjPM4T4rxM8nHuIh0rtxTGfG2+E8uP+t5+VJcor7csvYzl6/NRu1V+Nt+L+cV6Km+tbLX8JO/L+55kRa/J+rDELJbvdbJjLx+vseql66x2ZrpK8/pZvKRn6T3p++tox/uO68wHzDTPDLy34syAfWg3bQwHN3H8FSTGE2fW1vV/4zc/HnTitjLVO/pKr4WIpW9//Cqjfr2MvGNc+nFLAl23OznHPw5GNrj58uOvcLE+cQCP9Tf9MSdmqS4lff+QkrVfafol09vrXftc+0t1qrVfK2kP8gw2XNO39sQ6+7jXj7xbVvJ6/YPyXPt9mf54a/r+ethxb/0v7YHAHAS0FYD/nyNP8oAABCBwNAFzPNp+pmv8CJQclOY0tVfztTJWdddHrM75pzLHHKvmUC3soTpWXXuO8uHdM2KHz4/+2VfHU59/41zrx376w4OPFNsc8OB5PMwdoiNPTttB/Qr8o95+Xubko4zmXIO8H+ri23/s/MPbzb4uyv+hPrEuiltdVH5xruzaY/IWxoVLd3k6+WKdwjXw7Y97wYqHlVcKvb6112TlPPVtU53kC/Dz2Zp+zM/y9WHv+v462vFYf3aq8zhWT0X2QvI1A/bh3c3sOi5/czcfd6rvnXbqSOPgu38tZKT90eGovHwnnHW0Oh9/LdV1i9ck5u0Htyhr8agzGDTDAGU6Cj2PQV0e2h/zjXWJvwq38ItlxjzjeV/f0rHy8PeABt6SbFP6xOsf25Bd/6Zy7VqNlD+a1wr0/fWw4wvplmkmBCAAAQhAYH0E/H6m5jRd40egsv1MzWmq7QXW9idHbsmx+kiHqjXVnqN8mD4LruD5L62XPd+OhTPV32/XprlX3HtV85u0nqH8OL+oLcC5y6+wfUA2L4t539UplB/rODYvK80/vN201CXOazxP5dXCL+rs54gPNpDWaaT9KTNvUyP6nqfm5bGOig/m8z7vluMJ5fu67I83qO+vox1bv3XuEMfquYl3Vp4ZsA/3N2f8la+lQwgyg19ZwjlfTul4bfpxuX90dMbOtFR//cLlmes4DhhiYvrKNzohTT+yGx00k+sQdWzQtPJjGRYfc2L+4hduB+2MA23kKQezf3Uilh/rKQZxcB6rk9Xdh3GgtXrG8r1Oy3FJP7bDyot5lvSjXCm+ZX2zbx921v3SHAhAAAIQgMA6CNh+plo9aSs49aElrepc836mqqutkD1yNecqLkB0rM7kULW2+WcpOy49Oyp9y8+Pc9Q/vtru53tyntXY+fLjPEfs47zF56VtB3xZdq0yh2ycu/h8S9fv2PmH1UOhzRF9vWNdxK92Xu2Jc2Yvrw8Y+zJ1bFsymJw/H+tUan+sp2dm+Sos6XuZmJefw7bo+7zi8SXp++tox9ZvnTvEsXpu4p2VZwbsw3hzD+LJLyEf+TR/nDjwsl/CtqavjtPzsuO710ImtD/+yqV8o3NVg4jSoqyVqfDLv/377wev30k+XuVexyjxjwNtHKD2NhDad+DEDOdjvtkr7/EBQhz0ur8f7ORs1a/Fkb10o/0c1MnbYaif2iX9ODgqvm9zg/5eNsl/f075PJw/4GLlNer7PGP7/bmD4yT/tep7G7fjzrpfmgMBCEAAAhA4PQFzmmYfgZIDLzr1lorbq/nHfgTq9CRPV4IxlxNbq4FndhLbc5QP1/r8d/Ds6p6f/blT1l/zL8/KH9teny3ly3nodXWsuYvmAV5f5WnuEec5Xte3XcfxtXY/b4qyj51/+HrYHNHXf2xLNc1VY9sUF8u7BTVufpRx2G+94OZkWZ0O2m3yD/nH+d6eWTI/GuQVzuu6xvb4+kw5vuMZ8h+UvYD9n7P8jNXpOtp6zjhW63w4O0IgM+aDm8k6pRBe0q8pnknc49MY7jvnwMnr+uMPf+kLB4Ot5VUK1YnHPWeiM1b18PolJ6G/flHHBk1f33gs/aoT83frTl4rXwPqMYPTd3znnxqsbrX6jdXJ5Kx8xeNAW2Jmugq9vk9vOY68W8qL+T6m/MfW/xz63obteKQ74zQEIAABCEDgsgjoNXKt2Mw+AmXOuqVDOW/NaRo/AnXu/UzXah1yJusanujPnqN8GJ8rW+O9P38ahzifMHZf/tduQUvDnC/OMSyfWijnayzf3ugz/jHflnnosfMPX1d9uNgYWRjrks1r4vZ5Ps/asVj41a3Wfq8jVlaXWhjr2cIs5qfyI0dfl6nHrXW3elj7LT41XJt+xutE3eBotjhWRxEhUCOQGfPghnO/oPhfpmo3ce/6GtgiN/9ayJT2Z6+IxLwtLoeqBpZYfuyQS6/f165fHCD2eY5cf8lZ/RTKLnz7DzZJt5WZ4UFEbaqtyvVl6FiDrD1gRFvUlyG9vJ2vtT8OtPsHgpH2W94+9O23X4h13pcfee/LC/xK+r68eNxSftTx8bXo+2tox7W+jHMQgAAEIACBrgjYK+4ffHD/ev4a9zP1TlPbQmDN+5l2ZSDtjbHnKB/6Zz8dr+X5765eJ3r+jm328dj+bI528PEpN5+J+pa3nv9Li3L89bBjzQm0wjOWrzwsT4Vx7qL53/58gd+x8w+rm8L9HNG1PdbFv6Ho5z9yrk5ZTKOyBm9mujJjnWr8jUusp3jYuRZ9k4177vq6TD02nlPKt3r4cKv6Ga/2nm1eSRyr8/K8uNwyY/Y3afOx68CbdVzn6B1IW9CXk1Mdof3/9M9/bt8xT62/Xv9QfpljUQ5EDaSS8flqYLey7zpkx18OR38urmj1+dhx1ImDt8nFUHK+rHg+5lusy0P9dV5tywZdpelcmodr/1idYh0V1/Xz7UjL8PYaj135Wf4x7ZDL8fZzl/fE8mN91nj/ZX3TxXXQNBgCEIAABPoj4D8CZc5I28/02bP1vJqffQTKnL0zv6re30VeV4uyZ6penx8PnnHjM7uPjzw/+7mBjr0jbio/6Wq+l81xsvmeFtP48qNTV3MVf15zi7G2Hzv/8OUM5ogP/GJdavMotUuOSeWZ2aXmw+J0wNpft4cPKFu9BnUKcp5JrGcLM69vxzEfq8cxYWvdrexBOGK/A9mMywr0MxtYqvfEsboU+U7KzYw53oSDX0AebsosLepZPJPN0kw+hplslhb1LJ7JZmkmH8NMNkuLehbPZLM0k49hJpulRT2LZ7JZmsnHMJPN0qKexTPZLM3kY5jJZmlRz+KZbJZm8jHMZLO0qGfxTDZLM/kYZrJZWtSzeCabpZl8DDPZLC3qWTyTzdJM3sKsb+qk26UZEIAABCDQK4HafqZr/giU9vU0p2mv1+aC25U9U9nzVinMntWyNPT/KHVoZqyyNPjBL7OBzFaytExXaZlslra0ftY3LdVV41hdinwn5WbGXLrBxtKn3KxZXuj/YTowZ6yyNPjBL7OL1rS12U/WN3XS7dIMCEAAAhDYIoG4n6lWm9reoWv8CFTcz1SOU/4ukkD2TGXPh2t7/rN6tYbUn/lPq61kctjPsvaT9U1LddI4Vpci30m5mTGr0/H7oew7oQnLxdFPfn2DX7PjGPvBfrK+qZNul2ZAAAIQgMDaCNhqTdvPVE5Jc5ou/fEnK7+2nykfgVqbRa2qPtkz1X5+514R5vmb5+8Du2D+yvzV9REH9uHOHdN/ZH3TUp0njtWlyHdSbmbM+xum1pHWztkNVpOpnUP/vgOvMaqdgx/8ZAM1G6mdW4n9ZH1TJ90uzYAABCAAgXMR8PuZ6nV3rTJd40egsv1M+QjUuayk+3KyZ6r9fM+e+yysPSPWzqHP/EM2ULOR2jns5yLtJ+ubluqQcawuRb6TcjNjzgba2jL59NcJ6xwfQvTLy+zhl/w6jP3cD64XfP9kfVMn3S7NgAAEIACBOQjYfqZabRo/ArXm/UxVV1shy0eg5rAE8hghkD1TMf9g/pHN+X0a83fm794e/PFc/UfWN410Zyc7jWP1ZGgvI+PMmP1Nkx3XOtnqr1QNTiL0HzfIww9+2T3r07Zy/2Z902X0yrQSAhCAAAR25jTVqk1zmtqr+Wvcz1SrYFVPPgKF8a6QQPZM5Z8NmT8wfxjYQ1jgonNbmT+U2kH9y07iJe//rG9aqgvFsboU+U7KzYzZOqRqB+Q73MKyfvQrHRj83q/IxH7es3B2cen3T9Y3kfZkB4PTMehkWKcZEFg/gfgRqDXuZ6p9Tc2RGz8CtfB+powDpxsHLoltyZly6c+ftJ/5q/lCqiHz11nmr1mfu9RDDI7Vpch3Um5mzAedSKHjOJBzTqHBOfTTjmfAqMRO6fCDX80+xs5t1H6yvok0JpOntoFOhnaaAYHlCNgr7mvez7T2ESitlF3x36n7QPK/nHF2dB6y0efHfbuoP/OnsTlS7Tz2cxb7ycacpYZgHKtLke+k3MyY9wNSrbN5OBd/1YvxsbyifIyjX381JfKKcfjBr2YD0V5ivKarc1E+xh+jn/VNpF3OhG+pa93J0E4zIDA/Af8RKHs1/8WL+1Wdz57tdvbl+qXD7CNQ5uztYD/TpfpGyu1v/PXPaHM+v/l8S8exvBgv6Vl6lI9xkyuFUT7GS3qWHuVjj3b9AwAAIABJREFU3ORKYZSP8ZKepUf5GDe5UhjlY7ykZ+lRPsZNrhRG+Rgv6Vl6lI9xkyuFUT7GS3qWHuVj3ORKYZSP8ZKepUf5GDe5UhjlY7ykZ+lRPsZNrhR6+Wxsmf8Bpi1HHKttnJAqEMiMueUmOFhF2fCrjr+J0A8OP/iN/iqG/bhXc6K9xHjyo8jW+GV9E2n9TezWdk0LQyXJEOibQG0/0zV/BMrvZ9qB07TFyNbWZ1Kf7Y7Ld/O9Dp8f4zx2a8+/1H84R+b69T3/y8aQlrHwFDI4Vk9B9YLyzIy5daCNHf8g3jBQD+SjIwj9UUcj/IYD74AH9rN5+8n6JtK2O4HbyrW7oOGfpl4KgbifqVab2t6ha/wIVNzPVKtN+dsT2EpfSj3XP14PnpttHsbz8+afn9Pratd3LOT6c/3HbKR2/gj7ycaK/YB35gMcq2cG3ltxmTH7DnnwK1HtRiqcQ9/9ylRg5HnHY/jBL9rElPiW7Sfrm1bzqunSr7pS/iyvHac21tsgT3v6JmCvuN/c3H+Rfo0fgcr2M1V9VfeFPwK1RePI+q1/+fGf7OL/1775xwdpUaYWR78vfpnd1J4nt/z8qHZRf+ZPNfseO4f9nM9+sr5pqbEZx+pS5DspNzPmameT/BLxkU/zx5kjMTmPvlt5mfAZXI/kPPzgt7eRxD7253Q/JufXaj9Z34Rj9cksDkU43nNMbayTsZ1mbJyA3890zR+ByvYzffPm3mm68o9AbdVCsn6r5iC1c1/LnK9JmsnHEP3Eeb0hfpndrPX5b/DcanPJDT2/Un83L+P63a+AxX4PVgJb/5P1TUuNzzhWlyLfSbmZMacDgnWMLuTXnPP9mpNdE/jDP7OL1rS120/WN+EQxLE6pw2kNtbJ2E4zVkzAO03jR6DWuJ+pPlBl9bQVsp98smLAfVct67eiE3QszmrUvlajjl1vnc/spvV5Mcqt/fkx1jfGqT/zp2gTU+LYz7z2k/VNS43iOFaXIt9JuZkxDzoM9wuL/bIw1vmg7zoc+O1/ocJ+kl9w3Q8Vdl9x/9zfP1nfNKdTjbxw0qY21snYTjMWIlD7CNQa9zN9+fLeaeo/ArUQOoptI5D1W+ZYy1aV6lwp3fQsLMmV0k3PwpJcKd30LCzJldJNz8KSXCnd9CwsyZXSTc/Cklwp3fQsLMmV0k3PwpKc0jO7sedOC3n+ZP5mtuDfcGP+xvxtbxfJvNXOHdt/ZH1T22g4vxSO1fmZXlSOmTHbDTIpdA7ESXp2g6K/d0DCr20AG3DCfrqzn6xvwhmKM3ROG0ht7KKeAGjsJALxI1Br3M9U+y/bh6niR6DYz3TS5V6rcNZvmWON8PB1fZjcM8ns5u45mufn7p6fB/Mjm2eXQq4/179kGy3pM9hP1jctNf7iWF2KfCflZsYcO+TBLxAPN1mWFvUsnslmaSYfw0w2S4t6Fs9kszSTj2Emm6VFPYtnslmayccwk83Sop7FM9kszeRjmMlmaVHP4plslmbyMcxks7SoZ/FMNksz+Rhmslla1LN4JpulmXwMM9ksLepZPJPN0kw+hplslhb1LJ7JZmkmb2HWN83pVCMvnLSpjXUyttOMiQTsFfe4n6mclGv5WFz2ESj2M514obcvnvVbJedh9sp/aVVjlgf6h1sGbJVfZjf2vFUKs2e1LA39fEFIxipLgx/8MhvIbCVLy3SVlslmaUvrZ33TUiM1jtWlyHdSbmbMpRtsLH3KzZrlhb57BaXlV6IgAz/4ZfdVa9ra7Cfrm1bj4FiLo4V6PMrpldpYJ2M7zXggUNvP9NmzR9nPrP1R9hEoc/aqDfxB4IFA1m997eNDB2DmKC2lod8/v8xu7Plwbc9/Vq/WkPoz/2m1lUwO+1nWfrK+aakBH8fqUuQ7KTczZnU66X4qE5Z7o5/8+ga/5tctsB/sJ+ubZnVk4JRcj1NpoWuR2lgnY/tFNCPbz1QfWtIq0zV+BCrbzxSn6UWY6pyNzPot7zCdsqLS69kx+o/bTmCt/DK7yZ1MPH8ecGH+xvwtLGY6sJH9G73cPwdsRu6frG+ac8yckheO1Sm0kD0gkBnz/oao3Qi1c9b51GRq59C/H8BqjGrn4Ac/2UDNRmrnVmI/Wd+EY5XX9+e0gdTGDkZJEhYhEPcz1Vfpbe/QNX4EKu5nqtWm/EHgBASyfsucoi3hWh1/LXWXDPU/zvGb2c1+vmfPfRbWnhFr59Bn/iEbqNlI7Rz2c5H2k/VNJxg6m7LEsdqECaESgcyYs4G2tkw+XV1oneNDiH55mT38kl/3sJ/7wfWC75+sb5rTqUZeOGlTGysNlqTPR8Becb+5uf8i/Ro/ApXtZ6r6qu58BGo+WyCnyQSyfqvmlKw5ImvnLM+aTO0c+vcO0Bqj2rm5+WV2w/yD+Uc25/dpzN+Zv3t78Mdz9R9Z3zR5YJxJAcfqTCAvNZvMmP1Nkx3XOtnqr1QNTiL0HzfIww9+2T3r07Zy/2Z9E85QnKFz2kBqY5f6MDBHu/1+pvEjUGvfz5SPQM1hAeRxBgJZvyUnXJuTrryXKPrjK0Fre9GunV9mN/7ZkPkD84eBPYQFLjq3lflDqR3Uv+wkXvL+z/qmMwylaRE4VlMsJLYSyIzZOqRqB+Q73MKyfvQrHRj83q/IxH7es3B2cen3T9Y3zelUIy+ctKmNtQ6elybnnaZ6LV//a97PVHWzetoKWfYzvTSr7bK9Wb9lqxst/No3yw5Uk6mF6PfHL7ObkjPl0p8/aT/zV/OFVEPmr7PMX7O+aanBG8fqUuQ7KTcz5oNOpNBxHMg5p9DgHPppxzNgVGKndPjBr2YfY+c2aj9Z34QzFGfonDaQ2lgnY/ukZmQfgVrjfqZa9ap6ZR+BmtRghCGwXQJZv1VykrasoizpKh398VWsW+GX2c3oPGSjz4/7dlF/5k9jc6TaeeznLPaT9U1LjdA4Vpci30m5mTHvB6RaZ/NwLv6qF+NjeUX5GEe//mpK5BXj8INfzQaivcR4TVfnonyMP0Y/65vmdKqRF07a1MY6Gdv3zYgfgVrjfqZPnrz/MFX8CBT7me4vJQcQEIGs3zrGCRpXpU51oqI/XNW6dn6Z3fhntDmf33y+peNYXoyX9Cw9yse4yZXCKB/jJT1Lj/IxbnKlMMrHeEnP0qN8jJtcKYzyMV7Ss/QoH+MmVwqjfIyX9Cw9yse4yZXCKB/jJT1Lj/IxbnKlMMrHeEnP0qN8jJtcKYzyMV7Ss/QoH+MmVwq9fNY3LTXa41hdinwn5WbG3HITHKyibPhVx99E6AeHH/xGfxXDftyrOdFeYjz5UWRr/LK+CWcoztA5bSC1sS2N7faKe9zPVKs65axcw3/2ESj2M92SlVHXlRHI+q3aqsnodJ3qAER/uHJ3q/wyu7mb73X4/BjnsVt7/qX+wzky16/v+V/WNy017OJYXYp8J+Vmxtw60MaOfxBvGKgH8tERhP6ooxF+w4F3wAP72bz9ZH3TKhxFa3BWUYdZnIapja1hbM/2M9Xr73KYrv0jUObs1fYC/EEAArMTyPot71g9xvGH/vtX/nvll9nN4LnZ5mE8P2/++Tm9rnZ9x0KuP9d/zEZq54+wn6xvmn3gbMwQx2ojKMRyApkx+w558CtR7UYqnEPf/cpUYOR5x2P4wS/axJT4lu0n65twrK5kFWInjt3UxvKhcr7UbD/TNX8EKtvPlI9AzWcP5ASBiQSyfss7Ru04vqpv6a0h+sNX/Vu5mdza+GV2U3ue3PLzo9pF/Zk/1ex77Bz2cz77yfqmicPibOI4VmdDeZkZZcZc7WySXyI+8mn+OHMkJufRdysvEz6D65Gchx/89jaS2Mf+nO7H5Pxa7Sfrm3Cs4lid0wZSG3vMo4DtZ6pX3e2L9Gv8CJTVyfYz1VYCttL0Me1HFwIQODmBrN8yZ14tzFZiZmmlPDLZLA3996tfPYuMVZbmdfxxJpuleR1/nNnNWp//Bs+tNpfc0PMr9XfzMq7f/QpY7PdgJbD1P1nfdPKBtFAAjtUCGJLbCGTGnA4I1jG6kF9zzvdrTnZN4A//zC5a09ZuP1nfNKdTjbxw0qY2Vho6zfF4c3PvNF3jR6Cy/UxVX9Wdj0CVrizpENgUgazf8g60luO1raZsqbOXof7TV9NmdtP6vBjl1v78GOsb49Sf+VO0iSlx7Gde+8n6pqUGZRyrS5HvpNzMmAcdhvuFxX5ZGOt80HcdDvz2v1BhP8kvuO6HCruvuH/u75+sb8IZijN0ThuINva3tMWBVpqueT9TrTa11bB8BKqTJzGaAYF2ArHfUtycjqUVjKV007OwJFdKNz0LS3KldNOzsCRXSjc9C0typXTTs7AkV0o3PQtLcqV007OwJFdKNz0LS3JKz+zGnjst5PmT+ZvZgn/Djfkb87e9XSTzVjt3bP+R9U3tI+K8kjhW5+V5cbllxmw3yKTQORAn6dkNiv7eAQm/tgFswAn76c5+sr5pTqcaeeGkjTb2C0vtHasPUslhqr1WzWlqK2TZz/TinstoMARqBGK/pbg51gjz1/DhUnGs8vzc3fPzYH5k8+xSyPXn+pdsoyV9BvvJxrTaGHjKczhWT0n3AvLOjDl2yINfIB5usiwt6lk8k83STD6GmWyWFvUsnslmaSYfw0w2S4t6Fs9kszSTj2Emm6VFPYtnslmayccwk83Sop7FM9kszeRjmMlmaVHP4plslmbyMcxks7SoZ/FMNksz+Rhmslla1LN4JpulmXwMM9ksLepZPJPN0kzewqxvwhmKM3ROG4g29g9O4Vg1p2n2EagLeMagiRCAwLwEYr+leMlxmL0yX1rVmOWB/uEr91vll9mNPW+VwuxZLUtDP18QkrHK0uAHv8wGMlvJ0jJdpWWyWdrS+lnfNO+o2Z4bjtV2VkgmBDJjLt1gY+lTbtYsL/TdKygtvxIFGfjBL7uvWtPWZj9Z3zSnU428cNJGG/s/pzpW40eg2M80ecogCQIQmJNA7LcU/9rHhw7AzFFaSkO/f36Z3djz4dqe/6xerSH1Z/7TaiuZHPazrP1kfdOcY+aUvHCsTqGF7AGBzJjV6aT7qUxY7o1+8usb/Jpft8B+sJ+sb8IZijN0ThuINvbfm2M1+wgU+5kePD+QAAEInJ9A7LcU9w7TKSsqvZ4do/+47QTWyi+zm9zJxPPnARfmb8zfwmKmAxvZv9HL/XPAZuT+yfqm84+s9yXiWF2KfCflZsa8vyFqN0LtnHU+NZnaOfTvB7Aao9o5+MFPNlCzkdq5ldhP1jfN6VQ7Nq9vaRL75MnuN93/sXlFPZ+nju38H7qylK7y7dzUMNZf8al5SD7W9dh8jil7Lp3UxjoZ22kGBCDQJ4Gs3zKnaEs4h+Pvn/6Lb+xufvUr+3/FW8qWTK3827f/3z5P5e/z/fWvvHs49+W70J9rLdvKj/VXua15WP1jXVXflnxMv7W8KHesfmY3+/mePfdZWHtGrJ1Dn/mHbKBmI7Vz2M9F2k/WNy01euNYXYp8J+VmxpwNtLVl8unqQuscH0L0y8vs4Zf8uof93A+uF3z/ZH3TXA61x+Tzfz15cvB13TmcijHfZ87hKUdq5HFsG/5+yOtnXDmtef6bkIfq9kNH5NNa3qnkIlPF+YMABCCwZgJZvxWdbz5ec8TVzlkemcxfv341GJP+oz/znxYdk5l+Ke+Y7/f/tR/cO2J/6Ed+elDmd//F792fs/yyMCtfup6jnKKZrtIyfaX/6E/8o0Eeyu8n/uGvHORT0q/l7esyl75vrx0z/2D+kc35fRrzd+bv3h788Vz9h/VHPlxqDGYWsBT5Tsr1RmzH/qbJjmudbPVXqgYnEfqPG+ThB7/snvVpW7l/rT/y4akcbFPzldPT10vOyql5RPn/uZKnVof68nQc9VvjcqT6vI6pu5yoPg871sra1nqsQc7q7cNOhnaaAQEIdErA91d23O6kK+8lWnPgmaPP9mLVik8r28JfaVi1avqWnw9V/nf8+396kK93eGaO1ajv49mxlZ85Vqe0X3nLmWxtt/A//y+eHzhWfT2sfJ9mx1PLNz0Lx/Stjj70z4bMH5g/DOwhLHDRua3MH0rtoP5lJ/GS97/vk+x4qeEbx+pS5Dsp1wzYh9YhVTsg3+EWlvWjX+nA4Pd+RSb2856Fs4tLv398n2THa3DGqQ5/NzgW/erSY+ooh6S10cLfc07KOR2rccXqMY7V/yCpr+r9j12dj+Fwbh1j7cNOhnaaAQEIdErA91d2bM41C7/2zbID1WRqYYu+nIhWvkKtLrU8W/RN1sKf/YV/PsgvroIdc6xaPgrHys8cq1P05fD1bffHcjqPle/Lyo5Poe/raMclZ8qlP3/Sfuav5guphsxfZ5m/Wn/kw6WGbxyrS5HvpFxvxHZ80IkUOo4DOecUGpxDP+14BoxK7JQOP/jV7GPs3Ebtx/ojH57b8VYqT6/++3rpWK/Hl+TH0uWQ9Pl9X8hrTY7VXwt19at3H+tgHuM093nP3I47GdppBgQg0CkB66t8mDnnlDa2irGkZ+k1fb327uug1aamZ2FN32Qs/Et/+a8O8tOr9l5/imPV8vT6lqZwzLFqsiV9OZGt7XHl6sDB/PF6PoRl9fXh6Dxko8+P+3ZRf+ZPY3Ok2nns5yz24/skO15q+MaxuhT5Tso1A/bhfkCqdTYP5+KvejE+lleUj3H066+mRF4xDj/41Wwg2kuM13R1LsrH+GP0fZ9kx3M71h6Tn5yfVi+FWsV6bH7fHfKS89LntSbHqm+3Vq7GbQG0V6yv+5qP/fWz406GdpoBAQh0SsD6Kh/KEVhyApqTMIZxVeRU/duP/uDg1X2tOo3llOK+fH30ybdHx/FDUNGx+l1/4XsHZU2pf+ZYbdVXvfyWBXIIe+eqzsW6Zwx8+3W+tXzLa6p+5Ku4f0ab8/nN51s6juXFeEnP0qN8jJtcKYzyMV7Ss/QoH+MmVwqjfIyX9Cw9yse4yZXCKB/jJT1Lj/IxbnKlMMrHeEnP0qN8jJtcKYzyMV7Ss/QoH+MmVwqjfIyX9Cw9yse4yZXCKB/jJT1Lj/IxbnKl0MtnfdNSwzeO1aXId1JuZswtN8HBKsqGX3X8TYR+cPjBb/CAl9kg9uNezYn2EuPJjyJb45f1TWty0sWVm3IyHlO/+CGoLJ+1OFbjSl3tCxs/uqW0YzgsoZPaWCdjO82AAAT6JJD1W+ZsK4XeaeePS/Ix3ev4Y79yU/WSkzHqKu51/LHJxg9BxXykEx2rco6a/ljoy9Rx5lit5eH1f/wf/pOBE1grd+NHt9Qen5/X98depnbsdfxxTcefk05mN3fP2h0+P8Y5xNaef6n/cI7M9et7/pf1TUuN3jhWlyLfSbmZMbcOtLHjH8QbBuqBfHQEoT/qaITfcOAd8MB+Nm8/Wd+0hPOtVmbca/SY1Zpxv9Zs5etaHKtxf1ZbWeu3A9B18/vD1vgtfS61sU7GdpoBAQj0SSDrt6ITzcenHk9x3GV7jd6+/YOBU7Gl/Lhfa7bytdWx2lL/mmN1TD/W9de/8m6nf39d4v6wLQxMZqx8kyuFJX1fPzsePDfbPIzn580/P6fX1a7vWMj15/qP2Ujt/BH2Y/2RD5cavXGsLkW+k3K9Edux75AHvxLVbqTCOfTdr0wFRp53PIYf/KJNTIlv2X6sP/Lh0o64WH58DV7xKDMWj85ZrQqNOmtxrEYHqj66pbpG5/AxH8SKbT5H3NuWHXcytNMMCECgUwLWV/kwc7LFV8UzmVpaq75/DV510gpO5duqr489+baYUzLqtzpWrU1R39IV1hyrJpfpRweqnKwmHx2uN5//8v6cyUwJs/Ifo+8Z23HteXLLz49qF/Vn/lSz77Fz2M/57Mf6Ix8uNXzjWF2KfCfleiO242pnk/wS8ZFP88eZIzE5j75beZnwGVyP5Dz84Le3kcQ+9ud0Pybn12o/1h/58BzOtillZK/xm7OxJZ/4Gr32Ws301uBYjXX1r/zHLQK28hErb1t23MnQTjMgAIFOCVhf5cMWh1u2kjFLK+WVySotvsZfekW/pB9fo5cDNatD5ljN8sx0leZlWxyrMR/px7r+6I+/f+U/cvAfsYrlW96+TpZWCjPZLK2k7+3Fjtf6/Dd4brW55IaeX6m/m5dx/e5XwGK/ByuBrf+x/siHSw3fOFaXIt9Jud6I7TgdEKxjdCG/5pzv15zsmsAf/pldtKat3X6sP/Jh5nRcOm3sw1O1+sUVr/ZqfdRZg2M11vVXgxP4MRxie88V97Zlx50M7TQDAhDolID1VT4sOdNK6XOuhsw+PKWVnaWyle7L9x+CUptKupljtVZG7Zw+fOX5aUuDmrydi3X1H6nKOPjzlodC336f3np8jL5vrx23Pi9GubU/P8b6xjj1Z/4UbWJKHPuZ136sP/LhUsM3jtWlyHdSrjdiOx50GO4XFvtlYazzQd91OPDb/0KF/SS/4LofKuy+4v65v3+sP/LhuRxuU8qJH7H6a8HhWMpLK1t927QlQGm169KO1ayusV2Rw/c1coj5nDPu+dtxJ0M7zYAABDolYH2VD80hV1rBWEo3PQtLcqV009PHpnx9ah9vMh2F2kvV68WPVpmsym9xrJbqGdNLK1ajnC+/pa6Rg62+LeVr+VtYkiulm56FJTmle852bM+dFvL8yfzNbMG/4cb8jfnb3i6SeaudO7b/sP7Ih0sN3zhWlyLfSbneiO3YbpBJoXMgTtKzGxT9vQMSfm0D2IAT9tOd/Vh/5MNzOt1ay4pOR9W35CD1eUZHZG1/1syxqn1Mj/mXw9MzbdkP9R8HnayuGYdsv1jPYOljz8GOOxnaaQYEINApAeurfGiOtaXC6HT0e4/W6qTX5X07bH/WTCc6VrUXq9KO+Y/7wrasWI1O0+wDW5GD7RebtefcaZ6zHd89R/P83N3z82B+ZPPsUsj15/qXbKMlfQb7sf7Ih0sN3zhWlyLfSbneiO04dsiDXyAebrIsLepZPJPN0kw+hplslhb1LJ7JZmkmH8NMNkuLehbPZLM0k49hJpulRT2LZ7JZmsnHMJPN0qKexTPZLM3kY5jJZmlRz+KZbJZm8jHMZLO0qGfxTDZLM/kYZrJZWtSzeCabpZl8DDPZLC3qWTyTzdJM3kLrj3y4tCOuVH58TV6OyJKspcdX57Vfq52LYeZY9Vwec9ziWG2tq/Zd9XXRR61iW9YU93W1406G9ottxrt373avX7/evXz5cvf8+fO7/xcvXuxevXq1e/v27cVyoeH9ELC+yoclJ132ynhpVWOWxxT96KzUR6lq+vHVeb1mH+vg9aNj1bf/scclx6qVHz9aldXV6h63C4gO2FPxt/J9aPVXWsbInrdKYfaslqWhny8IyVhlafCDX2YDma1kaZmu0jLZLG1p/axvWmrExrG6FPlOys2MuXSDjaVPuVmzvNB3r6C0/EoUZOAHv+y+ak1bm/1kfdOanHK+LtHxKUekPx+P48eexuRj/hmbY9PGHKvxA121D1PFD1zVtjeITJaIZ8w6GdovrhlyqMqRml1TnyYZyfIHga0S8PZsx1/7+I8PnJLewTZ2PId+dHzqQ0+1crU61eqvcEw+5u91H3t88/kvV+saP0wV6+r5xQ9clbY38Gy8vk9vPW7RzxjZ8+Hanv+sXq0h9Wf+02ormRz2s6z9ZH3TUuMzjtWlyHdSbmbM6nTS/VQmLPdGP/n1DX7Nr1tgP9hP1jct4XxrLVMOR1/n2mvwWsnpZUsfrbKyl3SsTl2NK2fqlLZZG5cIfT3tuJOh/aKaoZWoT58+HdidXc8slCyrVy/KRLpqbGbT3gE3ZUWk17PjY/Xjqs6x1+C1XYBvi320qlT+SR2r7uNVWfnZalzjFcNf+RffGLRLbfz1L9c/5uXzyMr358eOS/qetR3nTiaePw+4MH9j/hYWMx3YyP6NXu6fAzYj94/1Rz5catDGsboU+U7K9UZsx/sbonYj1M5Z51OTqZ1D/34AqzGqnYMf/GQDNRupnVuJ/Vh/5MMlnG+tZcZ9SGsrQaMTdmxP1syxqrRj/qOjtFZP1Ss6SmsOY7GKTuOx1bitfE8h523LjjsZ2i+mGSWnqrYC0Ov/+tdWAHZ9LZRz9dNPP70YTjS0HwJmwz4cc7b58yXHm5epHdf0Sx+F8vlJPzphpedlsuPoWJVjVq/wT///8i46dUtbAageOudZt+wfG/P3K1xr/LJ2x7Rj9X0b7Hg/37PnPgtrz4i1c+gz/5AN1Gykdg77uUj7sf7Ih0uN2DhWlyLfSbneiO04G2hry+TT1YXWOT6E6JeX2cMv+XUP+7kfXC/4/rH+yIencK7NlWd8vb/0ynx8XV6OzrE6/MuwClRMxnRK5+VI9Ux/ppJX/MCWnKTRmau6+bToYFZZtf1jS/U8R7rnYMedDO0X04xnz54N7Fnx7FX/29vbg1Wtcr7yB4GtEbC+yofR+ebjNUdc7ZzlUZOJ5+Lr/fo4VZRRvvF1+dpHq0w/OlbljLVzVtcszGRaHMCW1/f/wPADW2rT3pn7+S+/P3ZO3vhRrtKerFndrFwLazK1c1Hf24sdM/9g/pHN+X0a83fm794e/PFc/Yf1Rz5calzGsboU+U7K9UZsx/6myY5rnWz1V6oGJxH6jxvk4Qe/7J71aVu5f60/8uE5nG2PKSN+vClzKP7N4NiUU3KsTMl4Djoe0ymdlyPV51Vbsfp9QdbrTTlucR6X6nvK9KwNnQztF9GMm5ubgS3LqVpbhSrnqr/mWrXKHwS2RsDbsB3LidbmZCvvxTqXvv94U3Qo2l6g/tV6yehDVmPlZ45Vcx5ObX/mWM3KV718e4z3MaGcx9Z+X287zsq3cxY+Rj+rs382ZP7A/GFgD2GBi85tZf5Qagf1LzuJl7z/s75pqXEZx+pS5DspNzNm65CqHZDvcAvL+tGvdGDwe78iE/t5z8LZxaXfP1nfdEon2xx5x9Woei1N0oXPAAAgAElEQVTe5xtfrS+tavU6Op7TsRpXrJYcq783k1NV13GtH7FKbayTsf0SmnF1dTVwlLbsmxo/cCVnK38Q2BKBrN8yx5uF/mvwljYlfIx+XI36s7/wzwev+Svu26DVnbFuWfljjlWfR6bvz2eOVX/e9OMKXF/vqccq05dRO7byazK1c5l+Vt+SM+XSnz9pP/NX84VUQ+avs8xfs75pqTEZx+pS5DspNzPmg06k0HEcyDmn0OAc+mnHM2BUYqd0+MGvZh9j5zZqP1nfFB2Oa4z7PUl17OsYX63Xa/P+fOl4Ccdq3Cs1ux5T0lrbWmJwivSs/p0M7d03Q05Uf/1aX+t//fr13ZYAcrDq/82bN92zooF9EfB2b8clJ1vLKsiSrtKP0f+n4eNNf+kv/9WBQzG+Ji/5Uh18+VMcq5af17c0hWOOVZONe6Ua72ND+0CX5T8Wluo/pmfnvX5W59F5yEafH/ftov7Mn8bmSLXz2M9Z7Cfrm5YatXGsLkW+k3IzY94PSLXO5uFc/FUvxsfyivIxjn791ZTIK8bhB7+aDUR7ifGars5F+Rh/jH7WN53CuTZ3ntEhqVWsVkZ8tf7funMmk4VLOFbjB7Z8O7I6xrT4kazW1bkxn1PGUxvrZGzvvRn6KJW/fjhIe7/itM8IeLu3YznSvBPNHGu1MK5qnFM/OiT1Sr3qEl+t9x+CGis/Ola/6y8MV4CO6XsWmWM16kcHsVhbO5RXCz+/5YH0/ercFn1f53g8Vd9sxYf+GW3O5zefb+k4lhfjJT1Lj/IxbnKlMMrHeEnP0qN8jJtcKYzyMV7Ss/QoH+MmVwqjfIyX9Cw9yse4yZXCKB/jJT1Lj/IxbnKlMMrHeEnP0qN8jJtcKYzyMV7Ss/QoH+MmVwqjfIyX9Cw9yse4yZVCL+/7JDu28e7cIY7VcxPvrDwzYB+23AQHqygbftXxNxH6weEHv9FfxbAf92pOtJcYT34U2Ro/3yfZ8SmdbHPlHT9iZfuLxlfrLb2l3HM7VuOWBnHl7bF1VjtadM8lY3blw86G+G6bE1/p77ahNAwCgYDvr+w4Ot1i3DsN/XGUK8W9jj8uycdX6H/8Z//JnWM1piteysOnq8zoWJ30av3Hf7IvR3lljlVfno7jlgbmFG1pv+UV87jfT/YP9nUxubHQl+mPx/TsvHTMVnx4N9/r8PkxzmO39vxL/YdzZK5f3/M/3yfZcRj2zhbFsXo21H0WZAbsw9aBNnb8g3jDQD2Qj44g9EcdjfAbDrwDHtjP5u3H90l2fC6H22PL8StTzSmpV+GtHQqnrAA9t2M1foQr7hXbyieuep3iTG4t4zFy/nrYcZ8jfX+t0oen7JrJyer/3r17t9OHrbSq1f5Z0eoJcbxlAmb3PjQHmsJjHG9z62tlp6+fbQeg0NLto1W+7Fr9Wx2rLe2vOVZNP360Ku4VG+ttcdNXXK/+W3stHHMme33Lc0pY0rfyfTh4brZ5GM/Pm39+Tq+rXd+xkOvP9R+zkdr5I+zH90l2vNQYjWN1KfKdlGsG7EPfIQ9+JardSIVz6LtfmQqMPO94DD/4RZuYEt+y/fg+yY4f40Q7p27cS1VO1O92jtWpr8Wf07GqD2wZbwv/zZErTX8myUv5n/Na1Mqy9vmwk6G9+2b4a/bixYu79sqhqr1W/Tl/LGesHK38QWDLBLxN23HmeIuvimcytbTH6n//D/zg4F6MTkZbAVqqQyy/1bFq+UV9S1dYc6zqfFxZKyer1285tvJjWX77g1o+pl+TqZ2L+mYrPqw9T275+VHtov7Mn2r2PXYO+zmf/fg+yY6XGqNxrC5FvpNyzYB9WO1skl8iPvJp/jhzJCbn0XcrLxM+g+uRnIcf/PY2ktjH/pzux+T8Wu3H90l2XHOSremcnIf+I1Z+Bava8vcnOhfP6ViNK2unOoH9dYjbIhzTdp/f3MdmVz7sZGjvuhnxw1VylmpFql/F6q9pPH727Nnu008/7ZoRjeuXQLRnxWsONjuXrWTM0kw+hplslmZ6N7/6lYFjNToYdb6mb/lYmDlWp+h72awuVo5Cv7JWfOUE9vomm6XZOQujk1b52Qe7WvQtn0w2SzP5GGZ2s9bnv8Fzq80lN/T8Sv3dvIzrd78CFvs9WAls/U/WNy01guNYXYp8J+VmxpwOCNYxupBfc873a052TeAP/8wuWtPWbj9Z3zS3Y+2U+cWPN/n2yOE4pexzOlbj6/tytE6pa5SN2wo8xlEb835s3F8TO+5kaO+6Gbe3twOHjVas2vXzYdyH1Z+Tc5U/CGyRgLdjO45OtLF4XM04Jh/Pt+rHjzdZff/DP/Nnm5zBvtzMserPTznWh6+sLgrl5DX9uLJW580RajKt7Tf5uK3A//gDP7gvz2SmhFPLV96+vXbc+rwY5db+/BjrG+PUn/lTtIkpcexnXvux/siHS43NOFaXIt9Jud6I7XjQYbhfWOyXhbHOB33X4cBv/wsV9pP8gut+qLD7ivvn/v6x/siHj3WknVNfr8/7utuxHI1T63Eux2pW56lO4Ni2uC2COEzZXzbmN2fcrokPOxnau25GdKz66yeHadxPVStcMycr2wJ0bSbdNs7bux2bU660grGUbnoWluRK6aZnYZT70Z/4R+k4qHTT8WHUt3NKb3Gs1vQtL4WlFatZOXIOl/L1eeq4JKcVr3atLNQ+tK36pXyn6Fu5PrTnTgt5/mT+Zrbg33Bj/sb8bW8XybzVzh3bf/g+yY6XGsBxrC5FvpNyzYB9aDfIpNA5ECfp2Q2K/t4BCb+2AWzACfvpzn58n2THczrVzpGX31fV2nCMU/FcjtW4ylb1n4OT3xZBHI5xLs9Rj5iHXRMfdjK0d92MkmNVK1drr/hn+6/W5LuGSOM2S8D3V3YcHWxriWerP1XnzKk4VucWx+pYHna+5FjV+bjKVuWa3rGhVrzatbKw5Fw+towxPSvXh3fP0Tw/d/f8PJgf2Ty7FHL9uf4l22hJn8F+fJ9kx0sN0DhWlyLfSblmwD6MHfLgF4iHmyxLi3oWz2SzNJOPYSabpUU9i2eyWZrJxzCTzdKinsUz2SzN5GOYyWZpUc/imWyWZvIxzGSztKhn8Uw2SzP5GGayWVrUs3gmm6WZfAwz2Swt6lk8k83STD6GmWyWFvUsnslmaSYfw0w2S4t6Fs9kszSTt9D3SXYcHWNrj2u15n/35MlOe6za/zF11kpS01eoPI/JRzqxTopbXnJ4+nKOcQJbXj7UdgI+X9V/DR+xMrvyYSdDe9fNyByrV1dXVaeqAdGKVn+9X79+bacIIbAJAt5+7bjkVMteGW9d/ag859D/69ev7laIypmp/7/5Iz/V7Kj05WuvUul/10M+yrfUbkv3+vu0j/9kF+tkr/rLEWz1vCvrL3zvTmmmq/BYflq1Olf9fX1qx779Zis+tOetUpg9q2Vp6OcLQjJWWRr84JfZQGYrWVqmq7RMNktbWt/3SXa81GCMY3Up8p2Uawbsw9INNpY+5WbN8kLfvYLS8itRkIEf/LL7qjVtbfbj+yQ79s46jt87RGFxHAuzKx92MrR33YzMsfrBBx80tfnm5mbgWNUqV/4gsCUCvr+y4699/McD51/N2ZadQ79/fmYrPrTnw7U9/1m9WkPqz/yn1VYyOexnWfvxfZIdLzUm41hdinwn5ZoB+1CdTrqfyoTl3ugnv77Br/l1C+wH+/F9kh3jQDzOgQi3nJvZlQ87Gdq7bkbmWNU+qi1/evXfX2/tvcofBLZEwNuvHXtn6ZQVlV7PjtH/k0c6qdepb7biw9zJxPPnARfmb8zfwmKmAxvZv9HL/XPAZuT+8X2SHS81JuNYXYp8J+WaAftwf0PUboTaOet8ajK1c+jfD2A1RrVz8IOfbKBmI7VzK7Ef3yfZMQ7C3EEIl+O4mF35sJOhvetmROeort+UP3+9p+pOKQdZCJyCQLRfxc0p2hLiOF2n47Pl2knm2OuX2c1+vmfPfRbWnhFr59Bn/iEbqNlI7Rz2c5H2k/VNpxg7W/Kc9jTZkiMyF0UgM+ZsoK0tk09XF1rn+BCiX15mD7/k1z3s535wveD7J+ubcCAe50CEW84ttbGLegLYbmPjtZvSEq/79OnTKarIQmBxAt5+7bjmlKs54mrnLM+aTO0c+vcO3Bqj2rm5+Zmt+JD5B/OPbM7v05i/M3/39uCP5+o/fJ9kx0sNtDhWlyLfSblmwD70N012XOtkq79SNTiJ0H/cIA8/+GX3rE/byv3r+yQ7xkGYOwjhchwXsysfdjK0d98MvcLvr5u2B2j983psBdBKDbm1EPD2a8dywrU56cp7iaI/vpK1thft2vmZrfjQPxsyf2D+MLCHsMBF57Yyfyi1g/qXncRL3v++T7LjpcZbHKtLke+kXDNgH1qHVO2AfIdbWNaPfqUDg9/7FZnYz3sWzi4u/f7xfZId40A8zoEIt5yb2ZUPOxnau2/G9fX1wLH66tWrpja/efNmoPfy5csmPYQgsBYCvr+yY1vdaKH/GrylTQnRLzugWziukZ/Zig9LzpRLf/6k/cxfzRdSDZm/zjJ/9X2SHS813uJYXYp8J+WaAfvwoBMpdBwHcs4pNDiHftrxDBiV2CkdfvCr2cfYuY3aj++T7BgHYe4ghMtxXMyufNjJ0N59M/SxKn/drq6umtosR6rXu7m5adJDCAJrIeDt145Lzr6WVZQlXaWjP76KdSv8zFZ8ODoP2ejz475d1J/509gcqXYe+zmL/fg+yY6XGm9xrC5FvpNyzYB9uB+Qap3Nw7n4q16Mj+UV5WMc/fqrKZFXjMMPfjUbiPYS4zVdnYvyMf4Yfd8n2TEOxOMciHDLuZld+bCTof0imvHs2bOBk1SrWGt/2i7AX2vtr6oPYfEHgS0R8DZsx8c4QeOqyqlOVPSHq1rXzs9sxYf+GW3O5zefb+k4lhfjJT1Lj/IxbnKlMMrHeEnP0qN8jJtcKYzyMV7Ss/QoH+MmVwqjfIyX9Cw9yse4yZXCKB/jJT1Lj/IxbnKlMMrHeEnP0qN8jJtcKYzyMV7Ss/QoH+MmVwqjfIyX9Cw9yse4yZVCL+/7JDteakzGsboU+U7KNQP2YctNcLCKsuFXHX8ToR8cfvAb/VUM+3Gv5kR7ifHkR5Gt8fN9kh3jIMwdhHA5jovZlQ87GdovohnRUarrWNoSQLJypPprXZK9CHg0crMEvA3bcW3VZHS6TnUAoj9cubtVfmYrPryb73X4/BjnsVt7/qX+wzky16/v+Z/vk+x4qQEax+pS5Dsp1wzYh60Dbez4B/GGgXogHx1B6I86GuE3HHgHPLCfzduP75PsGAficQ5EuOXczK582MnQfjHNiK/261pqWwA5TeVM1av+L168GDhUJaPVrqxWvRgz6aqhvr+yY+9YPcbxh/77V/575We24sPBc7PNw3h+3vzzc3pd7fqOhVx/rv+YjdTOH2E/vk+y46UGbRyrS5HvpFwzYB/6DnnwK1HtRiqcQ9/9ylRg5HnHY/jBL9rElPiW7cf3SXaMgzB3EMLlOC5mVz7sZGi/qGZkzlV/TeMxTtWLMo/uGhvtWXHvGLXj+Kq+pbeG6A9f9W/lZnJr45fZTe15csvPj2oX9Wf+VLPvsXPYz/nsJ+ublhq4cawuRb6TcjNjrnY2yS8RH/k0f5w5EpPz6LuVlwmfwfVIzsMPfnsbSexjf073Y3J+rfaT9U04EI9zIMIt55baWCdj+6U1482bNwev+mfXV05YVqpemnX01d7Mrs2ZVwuzlZhZWimPTDZLQ//96lfPImOVpXkdf5zJZmlexx9ndrPW57/Bc6vNJTf0/Er93byM63e/Ahb7PVgJbP1P1jctNWrjWF2KfCflZsacDgjWMbqQX3PO92tOdk3gD//MLlrT1m4/Wd+EgzB3EMLlOC6pjXUytl9qM/Tqv5ynz58/H/xra4B3795dKhba3RGBrN/yDrSW47Wtpmyps5eh/tNX02Z20/q8GOXW/vwY6xvj1J/5U7SJKXHsZ177yfqmpYZsHKtLke+k3MyYBx2G+4XFflkY63zQdx0O/Pa/UGE/yS+47ocKu6+4f+7vn6xvwoF4nAMRbjm31MY6GdtpBgQg0CeBrN8yp2NpBWMp3fQsLMmV0k3PwpJcKd30LCzJldJNz8KSXCnd9CwsyZXSTc/Cklwp3fQsLMmV0k3PwpKc0jO7sedOC3n+ZP5mtuDfcGP+xvxtbxfJvNXOHdt/ZH3TUqM3jtWlyHdSbmbMdoNMCp0DcZKe3aDo7x2Q8GsbwAacsJ/u7Cfrm3AQ5g5CuBzHJbWxTsZ2mgEBCPRJIOu3zLFGmL+GD5eKY5Xn5+6enwfzI5tnl0KuP9e/ZBst6TPYTzamLTV641hdinwn5WbGHDvkwS8QDzdZlhb1LJ7JZmkmH8NMNkuLehbPZLM0k49hJpulRT2LZ7JZmsnHMJPN0qKexTPZLM3kY5jJZmlRz+KZbJZm8jHMZLO0qGfxTDZLM/kYZrJZWtSzeCabpZl8DDPZLC3qWTyTzdJMPoaZbJYW9SyeyWZpJm9h1jfhQDzOgQi3nFtqY52M7TQDAhDok0DWb5Uch9kr86VVjVke6B++cr9Vfpnd2PNWKcye1bI09PMFIRmrLA1+8MtsILOVLC3TVVomm6UtrZ/1TUuN3jhWlyLfSbmZMZdusLH0KTdrlhf67hWUll+Jggz84JfdV61pa7OfrG/CQZg7COFyHJfUxjoZ22kGBCDQJ4Gs3/rax4cOwMxRWkpDv39+md3Y8+Hanv+sXq0h9Wf+02ormRz2s6z9ZH3TUqM3jtWlyHdSbmbM6nTS/VQmLPdGP/n1DX7Nr1tgP9hP1jfhQDzOgQi3nFtqY52M7TQDAhDok0DWb3mH6ZQVlV7PjtF/3HYCa+WX2U3uZOL584AL8zfmb2Ex04GN7N/o5f45YDNy/2R901KjN47Vpch3Um5mzPsbonYj1M5Z51OTqZ1D/34AqzGqnYMf/GQDNRupnVuJ/WR9Ew7C3EEIl+O4pDbWydhOMyAAgT4JZP2WOUVbwrU6/lrqLhnqf5zjN7Ob/XzPnvssrD0j1s6hz/xDNlCzkdo57Oci7Sfrm5YavXGsLkW+k3IzY84G2toy+XR1oXWODyH65WX28Et+3cN+7gfXC75/sr4JB+JxDkS45dxSG+tkbKcZEIBAnwSyfqvmlKw5ImvnLM+aTO0c+vcO0Bqj2rm5+WV2w/yD+Uc25/dpzN+Zv3t78Mdz9R9Z37TU6I1jdSnynZSbGbO/abLjWidb/ZWqwUmE/uMGefjBL7tnfdpW7t+sb8JBmDsI4XIcl9TGOhnbaQYEINAngazfkhOuzUlX3ksU/fGVoLW9aNfOL7Mb/2zI/IH5w8AewgIXndvK/KHUDupfdhIvef9nfdNSozeO1aXId1JuZszWIVU7IN/hFpb1o1/pwOD3fkUm9vOehbOLS79/sr4JB+JxDkS45dxSG+tkbKcZEIBAnwSyfstWN1r4tW+WHagmUwvR749fZjclZ8qlP3/Sfuav5guphsxfZ5m/Zn3TUqM3jtWlyHdSbmbMB51IoeM4kHNOocE59NOOZ8CoxE7p8INfzT7Gzm3UfrK+CQdh7iCEy3FcUhvrZGynGRCAQJ8Esn6r5CRtWUVZ0lU6+uOrWLfCL7Ob0XnIRp8f9+2i/syfxuZItfPYz1nsJ+ublhq9cawuRb6TcjNj3g9Itc7m4Vz8VS/Gx/KK8jGOfv3VlMgrxuEHv5oNRHuJ8ZquzkX5GH+MftY34UA8zoEIt5xbamOdjO00AwIQ6JNA1m8d4wSNq1KnOlHRH65qXTu/zG78M9qcz28+39JxLC/GS3qWHuVj3ORKYZSP8ZKepUf5GDe5UhjlY7ykZ+lRPsZNrhRG+Rgv6Vl6lI9xkyuFUT7GS3qWHuVj3ORKYZSP8ZKepUf5GDe5UhjlY7ykZ+lRPsZNrhRG+Rgv6Vl6lI9xkyuFXj7rm5YavXGsLkW+k3IzYybtyQ4GMMAGsAFs4PJsoJOhnWZAAAKdEmBcurxxiWvONccGsIFLsoGlhm8cq0uR76TcS7pJaSuDEjaADWAD2EDNBjoZ2mkGBCDQKYFa/8U5xjdsABvABrCBrdvAUsM3jtWlyHdS7tZvPOrP4IENYAPYADYwlw10MrTTDAhAoFMCc/V15MO4iQ1gA9gANrBGG1hq+MaxuhT5Tspd481EnejksQFsABvABpawgU6GdpoBAQh0SmCJfpEyGY+xAWwAG8AGzmUDSw3fOFaXIt9Ruee6SSiHDhkbwAawAWxgrTbQ0bBOUyAAgY4JrLUPpV6M79gANoANYAOPtYGlhm8cq0uRp1wIQAACEIAABCAAAQhAAAIQgAAEIAABCEBgswRwrG720lFxCEAAAhCAAAQgAAEIQAACEIAABCAAAQhAYCkCOFaXIk+5EIAABCAAAQhAAAIQgAAEIAABCEAAAhCAwGYJ4Fjd7KWj4hCAAAQgAAEIQAACEIAABCAAAQhAAAIQgMBSBHCsLkWeciEAAQhAAAIQgAAEIAABCEAAAhCAAAQgAIHNEsCxutlLR8UhAAEIQAACEIAABCAAAQhAAAIQgAAEIACBpQjgWF2KPOVCAAIQgAAEIAABCEAAAhCAAAQgAAEIQAACmyWAY3Wzl46KQwACEIAABCAAAQhAAAIQgAAEIAABCEAAAksRwLG6FHnKhQAEIAABCEAAAhCAAAQgAAEIQAACEIAABDZLAMfqZi8dFYcABCAAAQhAAAIQgAAEIAABCEAAAhCAAASWIoBjdSnylAsBCEAAAhCAAAQgAAEIQAACEIAABCAAAQhslgCO1c1eOioOAQhAAAIQgAAEIAABCEAAAhCAAAQgAAEILEUAx+pS5CkXAhCAAAQgAAEIQAACEIAABCAAAQhAAAIQ2CwBHKubvXRUHAIQgAAEIAABCEAAAhCAAAQgAAEIQAACEFiKAI7VpchTLgQgAAEIQGAhAre3tzv7//TTTxeqBcVCAAIQgAAEIAABCEAAAhDYNgEcq9u+ftQeAhCAAAQgMInA9fX17smTJ/t/OVj5gwAEIAABCEAAAhCAAAQgAIHpBHCsTmeGBgQgAAEIQGCTBORE9U5VHeNY3eSlpNIQgAAEIAABCEAAAhCAwAoI4FhdwUWgChCAAAQgAIFTE9Ar/1dXVzhWTw2a/CEAAQhAAAIQgAAEIACBiyGAY/ViLjUNhQAEIACBSybw4sWLA6cqK1Yv2SJoOwQgAAEIQAACEIAABCDwWAI4Vh9LEH0IQAACEIDAygnc3NykTlUcqyu/cFQPAhCAAAQgAAEIQAACEFg1ARyrq748VA4CEIAABCDwOALv3r3bPX36FMfq4zCiDQEIQAACEIAABCAAAQhA4IAAjtUDJCRAAAIQgAAE+iHw/PnzvVNVDtZnz57t46xY7ec60xIIQAACEIAABCAAAQhA4PwEcKyenzklQgACEIAABM5C4NWrVwMn6ps3b3be0Ypj9SyXgUIgAAEIQAACEIAABCAAgU4J4Fjt9MLSLAhAAAIQuGwCb9++HThVr6+v74DgWL1su6D1EIAABCAAAQhAAAIQgMB8BHCszseSnCAAAQhAAAKrIPDJJ5/srq6u9o5VHX/66ad3dcOxuopLRCUgAAEIQAACEIAABCAAgQ4I4Fjt4CLSBAhAAAIQgIAnoNWpes3f/m9vb/encazuUXAAAQhAAAIQgAAEIHBmAnoutX+9YcUfBLZOAMfq1q8g9YcABCAAAQg4AtpH1RyqCrXPqv/DseppcAwBCEAAAhCAAAQgcGoCcqS+ePFi8Ixqz6v6uOrLly937969O3U1yB8CJyGAY/UkWMkUAhCAQBuBL73Y7fT/9Ve73bs3u923+dG2DRxSKQG97q+HU3tQffbs2YEcjtUDJCRAAAIQgAAEIAABCJyAgJ5N5TS1Z9OxMC4IOEGVyBICsxPAsTo7UjKEAAQg0E5AjtSbp7vdzz0Z/n/h+W53+/Le4fqt293u391vj9meMZIXSSCuBMher8KxepGmQaMhAAEIQAACEIDAWQnIqaof+cecqfG8HLH8QWBLBHCsbulqUVcIQKBLAnKcRseq4h8GZ6scsHK4fvV6t/vmzW4nPf4gYARev349eHD94IMP7NQgxLE6wEEEAhCAAAQgAAEIQOAEBOKe/3KgytHq9/6X81XPsP6NK8mxcvUEF4QsT0YAx+rJ0JIxBCAAgXYCcpRmztWWtM9dsZ1AO+k+JbUy1T+Qynla+sOxWiJDOgQgAAEIQAACEIDAHATkPJ2yEjU+y0qXPVfnuBLkcQ4COFbPQZkyIJAQkN/jxYvdjj26EzgXmqRX/1scqdlq1kwvbifwh+wH361l+des5GCtPYjiWO3WDGgYBCAAAQhAAAIQWAWBuK9qtu9/rGj8ACtbAkRCxNdKAMfqWq8M9eqawO3tbvfkyft/fbT7U/bQ7PqatzZOH7LKnKRzpX3+8FtGrVVDbqUE9KqUXxFwc3NTrSmO1SoeTkIAAhCAAAQgAAEIPJKAf5NKz6n+9f9a1n6xgPS0VQB/EFg7ARyra79C1K9LAldX752q5mB9+nS3G/GHdMmCRg0J6CNVcn7O5UiN+bAv65B3DzHvVNWxHKe1//igqwdYL98DE9oAAQhAAAIQgAAEILAMAb055Z9PrzT5bfyLCwZaHbKN2SMGgZMQwLF6EqxkCoEyATlPzZmahdoiQCta+btcAnplXx+qklM0fsAqOkrH4l5fWwPw1x8B/+A6x3F/hGgRBCAAAQhAAAIQgMC5CMT9VfUDfutf3A6Aj1i1kkNuSQI4VpekT9kXS+D1691OK1Qzx6qlvXzJ/qsXayC73e7bb6etWvUO1JKzlT1W+7SoOZypPo8+KdEqCEAAAhCAAAQgAIFzEIiO1SnO0aj7Qh8l4Q8CKyeAY3XlF4jq9UtA28VcX9edq3K+av9V/kb/iOMAACAASURBVC6TwDdvpjlXSw5VpX/l+jIZXkKr/Wv8LcdsBXAJVkEbIQABCEAAAhCAwDIEHuMc1bcC/A/+U1a7LtNaSoXAbodjFSuAwMIE3r7d7fR2hK1UzUJtS/PmzcIVpfhFCHz1+vHOVW0roL1b+YOACOgB1T+w6uGXPwhAAAIQgAAEIAABCMxB4O3bt4NnzSl7rF5fXw90cazOcUXI49QEcKyemjD5Q6CRgByn2UetvKNVDlg5Yvm7LAJfevE45+q/+uCyeNHaOgEcq3U+nIUABCAAAQhAAAIQeByB+IZU6w/5csL6BQA4Vh93HdA+DwEcq+fhTCkQaCagV/9b9l/VVgL8XQYBrTb9/LPjnav6aJX2bOUPAiKAYxU7gAAEIAABCEAAAhA4JYGXL18OHKTPnj3bfToygdVerN6pqmMcq6e8SuQ9FwEcq3ORJB8IzEhAY44+XuVXq8ZjOV/1ESz+LoOAnKt6pb+2j6o/l33MStsKsCXAZdhLrZU4Vmt0OAcBCEAAAhCAAAQg8FgCcZ9VOUlrztXXr18fOFVxrD72KqB/LgI4Vs9FmnIgcAQBbX3Ysv8qWyQeAXeDKlp1OsW56h2tdiz9b+CQ3+DVn6/KOFbnY0lOEIAABCAAAQhAAAI5gbhfqhyl2iJAq1n1kSo5X7VKVQ5Xncv+WbGasyV1XQRwrK7relAbCKQEbm7a9l999y5VJ7EjAt+8eb9qNVuVag7UsfBzV7vd7/HNoo4so70pOFbbWSEJAQhAAAIQgAAEIHAcAb36X3OaZo5UOVz9/qw4Vo9jj9Z5CeBYPS9vSoPA0QQ++WS30/6rcUuAGL++3u1Gtq85ug4oroPAb71671wtOVC//mq3kxN2bIWr9l/9Qxzy67iwZ6qFHli1OsD+3/GLzJnIUwwEIAABCEAAAhC4LAJyrmYrV6NTVc7UN/qa807z3ferV3GsXpa9bLW1OFa3euWo98USkA/kxYu6g1X7r2qVK3/9Erh9WXauyplqe6kqlJO15IC1dMmYTr/UaBkEIAABCEAAAhCAAAQgcG4Ceu1fWwBcXV0NHKda0ar9Ve3DVgq9Y1VOWf4gsHYCOFbXfoWoHwQKBLSv6rNndQerzrP/agHgxpPlBP38s9xhqpWq8U+rUr/0Ipc356ocspluzIs4BCAAAQhAAAIQgAAEIACBuQnEj17pDSv+ILB2AjhW136FqB8ERghoZapWqMYtAXxcK1x523cE5AZPy7n62auhs1Sv9tf+vnVbdsiag1UOW8nxBwEIQAACEIAABCAAAQhA4FwE4rYBcrTyB4G1E8CxuvYrRP0g0EBAe6rqLQnvTM2O9YMf+682AN2QyLffDvdRbXWI/qsPhnrmVPWhVriy/+qGjIGqQgACEIAABCAAAQhAYAUE9Eq/nKL616v+rX9xq4BWPeQgsCQBHKtL0qdsCMxMQKtSnz+vO1ivrth/dWbsi2f37s39qlXtuzrlTytev3o9XPHqHas61vYAd/uvfjIlZ2QhAAEIQAACEIAABCAAgUsl8OLFi8FeqS0fS43bACgP/iCwBQI4VrdwlagjBCYS0BsTcqBmq1YtTQ5Y3qyYCHbF4tob9djVpdLTFgLRqerjn7ti/9UVX36qBgEIQAACEIAABCAAgdUQ0CpV/xGqsb1StcJVH7LyOm/evFlNe6gIBGoEcKzW6HAOAhsnoLcuxvZfffmS7QE2fplnq762EZAD1TtUP3wyjMsB+3tsdTQbczKCAAQgAAEIQAACEIBAbwS0QtU7SZ8+fbqT8zT7y5yqz7UKiD8IbIQAjtWNXCiqCYFjCWj8kvPUVqpmoZyvfHDxWML96enVf20B4B2s8VjbDmgrAf4gAAEIQAACEIAABCAAAQhEAnE7AO2fGleh6vX/uFJVDtm3b9/G7IhDYLUEcKyu9tJQMQjMS0BjU8v+q7xxMS/3reYmp6mcp9Gh6uO2/+pW20i9IQABCEAAAhCAAAQgAIHTENBKVK1U9StX7biUrvM3NzenqRC5QuBEBHCsnggs2UJgrQTkOG3Zf5UfCdd6Bc9br2+/bdt/VR/Q4g8CEIAABCAAAQhAAAIQgIAR0MpTrVQ1h2otlLM1rmi1fAghsGYCOFbXfHWoGwROREDbA+jV/7H9V6+v2X/1RJdgc9nKcRr3X/WrV3Ws/VeP/YDW5oBQYQhAAAIQgAAEIAABCEBglIBWrurjVSUHq9J1vrQH62gBCEBgYQI4Vhe+ABQPgSUJvHvXtv+qPoLFHwS0PcBvNey/+tVr9l/FWiAAAQhAAAIQgAAEIACBIQF91Er7qtq/4vxBYOsEcKxu/QpSfwjMQOD2tm3/VcnxBwGtSm3Zf/UbOOQxFghAAAIQgAAEIAABCEAAAhDomACO1Y4vLk2DwFQC2id8bHsAfQCLHxanku1T/lu34/uvfvZqt5McfxCAAAQgAAEIQAACEIAABCAAgd4I4Fjt7YrSHgg8koDtv/rkyW5X+9cerZ988sjCUO+CwDdvdrubp7td3HPVx7/0gv1Xu7jYNAICEIAABCAAAQhAAAIQgAAE9gRwrO5RcAABCHgCWpX64kXduarVrVrlyh8EtP/q11/VnatytEpGsvxBAAIQgAAEIAABCEAAAhCAAAS2TgDH6tavIPWHwIkJaF/VZ8/qDladZ//VE1+IjWSv/Ve1OtWvVo3HWt2qVa78QQACEIAABCAAAQhAAAIQgAAEtkwAx+qWrx51h8AZCbx+Pb7/6suX7L96xkuy6qK0r+o/e1Z3sH7+GfuvrvoiUjkIQAACEIAABCAAAQhAAAIQqBLAsVrFw0kIQMAT0P6r19f11avaHkD7r0qWPwh84/X4/qu3L9l/FUuBAAQgAAEIQAACEIAABCAAge0RwLG6vWtGjSGwOAHtv/r8ed3BenXF/quLX6iVVEB7qn71erh69cMnw7i2B2D/1ZVcMKoBAQhAAAIQgAAEIAABCEAAAk0EcKw2YUIIAhDICGhfVTlQnzwp/8sB+/Ztpk3apRHQ/qtfeD50qMb9Vz97xf6rl2YXtBcCEIAABCAAAQhAAAIQgMBWCeBY3eqVo94QWBEBvfqvLQBqDlbtv8r2ACu6aAtW5d2b3e5zV3UHqxyw38Yhv+BVomgIQAACEIAABCAAAQhAAAIQGCOAY3WMEOchAIEmAnKaynlac67a/qtNGSLUPQG9+q8tAOKqVR/X/qvaSoA/CEAAAhCAAAQgAAEIQAACEIDA2gjgWF3bFaE+ENg4Ab3237L/6ps3G28o1Z+FgJymcp7GPVe9c9X2X52lQDKBAAQgAAEIQAACEIAABCAAAQjMRADH6kwgyQYCEBgSuLlp239VH8LiDwJ67X9s/1VtH6BtBPiDAAQgAAEIQAACEIAABCAAAQisgQCO1TVcBeoAgU4JaHuAlv1Xr6/Zf7VTE5jcrG/etO2/qg9h8QcBCEAAAhCAAAQgAAEIQAACEFiSAI7VJelTNgQuhIBWpbbsv/r69YUAoZlVAtoeoGX/1a9e73b/7pNqVpyEAAQgAAEIQAACEIAABCAAAQicjACO1ZOhJWMIQCASuL3d7Z49q3/gSuclxx8EtCpV+6/6/VbjsfZf/QYOeYwFAhCAAAQgAAEIQAACEIAABBYggGN1AegUCYFLJ6D9V58+rTtYX7zY7dh/9dIt5b7937rd7T7/rO5g1f6rkuMPAhCAAAQgAAEIQAACEIAABCBwLgI4Vs9FmnIgAIEBAdt/9cmTuoNVe7RKlj8IaP9VrVCNq1Z9/Esvdjv2X8VWIAABCEAAAhCAAAQgAAEIQOAcBHCsnoMyZUAAAkUCWpWq1ak1B6tWt2qVK38QsP1X5Uz98EnZyao9WiXLHwQgAAEIQAACEIAABCAAAQhA4FQEcKyeiiz5QgACkwhoX9Wrq7qD9flz9l+dBLVjYa1K1epUv1o1Hmt1q1a58gcBCEAAAhCAAAQgAAEIQAACEDgFARyrp6BKnhCAwNEEXr8e33/15Uv2Xz0acGeK2ldV+6tGp6qPf+E5+692dtlpDgQgAAEIQAACEIAABCAAgVUQwLG6istAJSAAAU9Ae6peX9dXr2p7APZf9dQu+/gbrw/3X41bBdy+ZP/Vy7YSWg8BCEAAAhCAAAQgAAEIQGBeAjhW5+VJbhCAwIwE3r7d7fT6f23/VW0f8ObNjIWS1WYJaE/Vr17XV69qewD2X93sJabiEIAABCAAAQhAAAIQgAAEVkUAx+qqLgeVgQAEMgJynLbsvypHLH8Q0P6rev3fbwcQjz97tdu9wyGPsUAAAhCAAAQgAAEIQAACEIDAIwjgWH0EPFQhAIHzEtCr/9oCoLaCVfuvaisB/iAgx2nL/qvfxiGPsUAAAhCAAAQgAAEIQAACEIDAEQRwrB4BDRUIQGA5AnKaynlac67K+aqPYPEHARHQq//aAiCuWvVx7b+qrQT4gwAEIAABCEAAAhCAAAQgAAEItBLAsdpKCjkIQGBVBG5v2/ZflRx/EJDTVM5T70yNx7b/KrQgAAEIQAACEIAABCAAAQhAAAItBHCstlBCBgIQWC2Bm5u2/VffvVttE6jYGQl86zbff/XDJ++drto+QHL8QQACEIAABCAAAQhAAAIQgAAEagRwrNbocA4CENgEAW0P0LL/6vU1+69u4oKeoZLfvGnbf1UfwuIPAhCAAAQgAAEIQAACEIAABCCQEcCxmlEhDQIQ2CQBrUp98WJ8/1WtcuUPAtoeoGX/1a9es/8q1gIBCEAAAhCAAAQgAAEIQAAChwRwrB4yIQUCENg4Ae2r+uxZ3cGq8+y/uvELPVP1tSr1Sy/ebwUQ915VXPuvfoMPos1EnGwgAAEIQAACEIAABCAAAQj0QQDHah/XkVZAAAIJAa1Mffq07mDVClf2X03gXWDS793udp9/Vnew/rNn7L96gaZBkyEAAQhAAAIQgAAEIAABCKQEcKymWEiEAAR6IaD9V7W36pMn9X/t0SpZ/iCg/Ve1QjVbuWppWuHK/qvYCgQgAAEIQAACEIAABCAAgcsmgGP1sq8/rYfAxRDQqtTnz+vO1aur3Y79Vy/GJKoNtf1XzZFaCrVHq2T5gwAEIAABCEAAAhCAAAQgAIHLI4Bj9fKuOS2GwEUT0L6qcqDWVrDKAcv+qxdtJvvGa1XqF57nq1c/fHKfrtWtWuXKHwQgAAEIQAACEIAABCAAAQhcFgEcq5d1vWktBCDwQOD16/H9V1++ZP9VDOaegPZf/dxV7mC11axywH7rFmIQgAAEIAABCEAAAhCAAAQgcCkEcKxeypWmnRCAwAEB7akq52lt9ao+fqX9V/mDgAh84/X4/qu3L9l/FWuBAAQgAAEIQAACEIAABCBwCQRwrF7CVaaNEIBAlcDbt237r755U82GkxdCQHuqfvW6vnpV2wP8Fg75C7EImgkBCEAAAhCAAAQgAAEIXCoBHKuXeuVpNwQgcEBAjtOW/VfliOUPAt9+W95/1bYH0PYB73DIYywQgAAEIAABCEAAAhCAAAS6JIBjtcvLSqMgAIHHENCr/9oCoLZFwPX1bqetBPiDgBynLfuvyhHLHwQgAAEIQAACEIAABCAAAQj0QwDHaj/XkpZAAAIzEnj3rm3/VX0Eiz8IiMDXX7Xtv6qtBPiDAAQgAAEIQAACEIAABCAAge0TwLG6/WtICyAAgRMSuL1t239VcvxBQE5TfbzKtgLIQu2/qo9g8QcBCEAAAhCAAAQgAAEIQAAC2yaAY3Xb14/aQwACZyJwc9O2/6pWuvK3XgJv377dvXr1avf8+fPB//X19e7NjF8n+9bt/f6rHz4pO1m1fYDk+IMABCAAAQhAAAIQgAAEIACBbRLAsbrN60atIQCBBQhoT1Xtv1rbe1XnJMP+qwtcoEqRn3766Z0j9cmTJ7va/9XV1awO1m/etO2/+m9xyFeuHqcgAAEIQAACEIAABCAAAQiskwCO1XVeF2oFAQismIBWpf7/7d2/jiTHme7httdpZw16fQME6gYOUTcgoq+A6BsgUD6dNmesbUuDsbYBUTJ2D8EiB5DBhYiSwTGGWGwvBOzhkZwGRNE4OsKMRO1y+Gd38+CdPt8w6uuIyMiqzKrIzF8Cg8zKjMiMfLK6BL2M+ur8PB+w6sevNMuV5fgCmqV6enqaDVR92KoZrH0tKg+g+quxsgDhvqerpqH+al/qnAcBBBBAAAEEEEAAAQQQGF6AYHV4Y66AAAITFVBd1cUiH7DqOPVXj/cG0ExVzUL1wenFxUVzfX3dbDabV6UBYm36LA0gga9vm+aT83zAqvqrmuXKggACCCCAAAIIIIAAAgggUL8AwWr9z4gRIoBA5QJXV02jGaq5EgGa4Ur91cM/SNVTDUNVzVzVDNbYorDVt1Uw2/eiuqofLPIBq45Tf7Vvec6HAAIIIIAAAggggAACCPQrQLDarydnQwCBmQoof9O3x3PhqsJX6q8e9g3iSwBohmpu0Y9aheGqZrUOtWhmqmaohuUA/LZmuGqmKwsCCCCAAAIIIIAAAggggEB9AgSr9T0TRoQAAiMW0KzU5TIfsJ6dUX/1EI9YX+UPQ1KFpm2LgtSwj2axDrmopqpqq/pA9fHJ9j7VaKX+6pBPgnMjgAACCCCAAAIIIIAAAt0FCFa7m9EDAQQQaBXQxEgFqLkZrMr5Et9Kbz0/DdoFfBmAK9VsaFk0ozUMVkvC2JZTFh3WrNQny+0w1Yetvzij/moRJo0QQAABBBBAAAEEEEAAgQMJEKweCJrLIIDAPAX01f+2+quaFDlAKc95gru7Vo1UhaUKVW8LitweK1i1YauuqgJUH6qGrxXAUn/VxFgjgAACCCCAAAIIIIAAAscTIFg9nj1XRgCBmQgoNFV4mpu9avVXZ0JS7W2uVqutGaua9XqM5TdX7fVXNxfUXz3Gs+GaCCCAAAIIIIAAAggggIAJEKyaBGsEEEBgYAF97b+k/up6PfBAOH1U4ObmZitUVUmAklmu0ZP1sFM1VRWehrNV/bZ+/Er1V1kQQAABBBBAAAEEEEAAAQQOL0CwenhzrogAAjMXUHBaUn+14JvrM5fs5/YVnvp6rApVNXu1huVPN2X1V28J5Gt4XIwBAQQQQAABBBBAAAEEZiRAsDqjh82tIoBAPQIqD1BSf1XZHvVX+39uqrmqH6ZaLBb3ZqkqVL1Q7YbKFgWnJfVXFcSyIIAAAggggAACCCCAAAIIDC9AsDq8MVdAAAEEkgKalVpSf7XgB+2T1+DAfQGFqgpQY//Oz8/vd6hoj776rxIAvixA+PrpqmlUSoAFAQQQQAABBBBAAAEEEEBgOAGC1eFsOTMCCCBQLLDZNM1ikf+BK5UPUDuW/QVSM1UtaD09PW3WFRe7/fq2rP6qfgSLBQEEEEAAAQQQQAABBBBAYBgBgtVhXDkrAgggsJPA9XXTnJ7mA1ZNqKT+6k68rzvpq/6qq7rZbF4FqKqnqjDVglVbX+uBVLx8tSmrv6p2LAgggAACCCCAAAIIIIAAAv0KEKz268nZEEAAgb0FrP7qyUk+YFWNVuqv7s39+gQvXryI1lzVj1vVvvz2Ol5/9fHJjyUDniybRjNdWRBAAAEEEEAAAQQQQAABBPoRIFjtx5GzIIAAAr0LKM/T7NRcwKrZrZVPquzdZcgTKlw9Ozvbmrla4w9ZxQxUU1X1V8Naq7FttaH+akyQfQgggAACCCCAAAIIIIBANwGC1W5etEYAAQQOLqC6qqqvmgtYl0vqr/b1YD788MOtYFUlAsa0aFbqJ+f5gFU/fqVZriwIIIAAAggggAACCCCAAAK7CxCs7m5HTwQQQOCgAldX7fVXLy6ov9rHQ7Eaq7bu45yHPofqqn6wyAesOk791UM/Ga6HAAIIIIAAAggggAACUxEgWJ3Kk+Q+EEBgFgKqqbpa5WevaoIl9Vf3ezssFoutWav7ne24vTUzVTNUY2UBbJ9muFJ/9bjPiasjgAACCCCAAAIIIIDA+AQIVsf3zBgxAggg0Kj+qr7+nysPoPIB6/V8sc7Pz5vlctnoq/yaedplsT5jnrEa3q9qqj5d5cNVha/UXw3V2EYAAQQQQAABBBBAAAEE8gLd/p9m/lwcRQABBBA4sICC05L6qzc3Bx5YBZdTqGrBqNbrwpT59vZ2q1/XULaCW08OQbNSnyzzAesvzprmf1N/NWnIAQQQQAABBBBAAAEEEEDABAhWTYI1AgggMGIBffVfJQByM1hVf1WlBOayrFarrYD0QgAFy+Xl5VY/zXyd2qK6qgpQrRRAbK0A9g+bqd0594MAAggggAACCCCAAAII9CdAsNqfJWdCAAEEjirw/HnTKDvMhatWf/WoAz3QxW9ubrYCUs083WzySaGOh7Ncu8x0PdBt9XoZffW/rf7q5qJpVEqABQEEEEAAAQQQQAABBBBAYFuAYHXbg1cIIIDA6AWUHZbUX23JGEfvoBvw5QBUOzUVrl5dXb2ux2rhqvpPfVFoqvA0NmvV9ln91albcH8IIIAAAggggAACCCCAQBcBgtUuWrRFAAEERiRwfV1Wf1U/hDXV5cWLF/fCUoWmi8Wi0Vf+9U8lA87Ozu7NVFUIq/5zWf50U1Z/9XbGP4g2l/cC94kAAggggAACCCCAAAJlAgSrZU60QgABBEYpoFywpP7qajXd+qsqCaCQ1GahlqwVvOpHrOa4KDhV/dXHJ+lZrKq/qiCWZXgB/eDYb6+b5unqLvhuq41rs4xzz8/a5Nb0T7//c252DL92vw8Wd+9plSThP9gM/1nCFRBAAAEEEEBgGAGC1WFcOSsCCCBQlYAyQv0GU1v91aurqobd22A081Q/XtUWqiqA1SzWOc1UjSGrPEBJ/dXPVtRfjfn1sU9hqgJsC+pYYzGH94DKkujH9VgQQAABBBBAAIGxCBCsjuVJMU4EEECgBwHVVV0s8gGrjk+1/qpmoV5fX7/6+r/qp9o/hanr9Xr2gap/i2m2ZKz+ajgbT/VXfzPRQN57HOK1AtW2Wamh/y5hG/33C2nxG95P/1GBgPUQnzhcAwEEEEAAAQT2FSBY3VeQ/ggggMAIBVR/9fQ0H7BqhutMvw0/wic67JD/sGmfPakwUO1YdhNQaYX/udgvsNolZKUP5jW/B1QC47vnu/1N0QsBBBBAAAEEEDiEAMHqIZS5BgIIIFChgNVfzZUH0DHVaJ3RbzhV+KTqGZJmU2qGai6I0UwzzXRlKRcocZX5P771n80v3/m+efrw5et/nz34cTvcX7pNf/xK3yuxdvu8f9Zv/9C8/+Z/ZT9P9L7Xf7ShpnP55wktEUAAAQQQQOCwAgSrh/XmaggggEB1ApqVulzmZ6+enTWNZrmyIKDZY6q/mgtXdUxtvmWmWesbJmepr5wrfPrX9/+j+eOXf35VquL58+ev1qoD3PYv1ja2L3WeWNvYPvrHn0XMKrZv7n5fffGX5vNH3zQ/dyFrWHJB/0GHcLX144QGCCCAAAIIIHAEAYLVI6BzSQQQQKBGAdVVVYCam8GqAHaq9VdrfCY1j0mzUj85vwtYwwAkDFwVhmg2JktcwELVmJ8C1dvPv24NTxXKdQnrYiEe/cvDavzuh8h9vn/0HxF8wGqfKYSr8c8R9iKAAAIIIIDAcQUIVo/rz9URQACB6gT+7u/a669eXFB/tboHd6QB6QdmPmipDarj/BDN9gNS4GyBUbj++zf+u/m3j/69KFAl5Bs25Iv5tu3rM2Rsu1bs+FSu/+v3vo3+fRCubn+O8AoBBBBAAAEEji9AsHr8Z8AIEEAAgeoEVFNV4Wlu9qp+/Er1V1kQkMBvrtrrr24uqL8qK32lOQxTbVsz9UpnqcZCNfbdD1oxGa+JZq/a30a41n+o+e4Fn7sIIIAAAggggEAdAgSrdTwHRoEAAghUKXBzU1Z/db2ucvgM6sACCjv0K95hCOK3NeNMX4GfczASm+GrH6ayOqphGJibgZg7ZufItckdo/9dIJkzyh3Drx+/22d/iX6e6HOGBQEEEEAAAQQQqEGAYLWGp8AYEEBg9gL6P+GbzWbrn/bVsig4Lam/qiCWBQHVX32yzAes+qXvOdZftbqqYeCsr//fPmuvp1oS5FmgF1vTn1qqsfdF6b5jvX9SM1f1OcOCAAIIIIAAAggcW4Bg9dhPgOsjgMBsBfR/Zi8vL5vFYtGcnJxE/+nY1dVVNUb66r9KAORKBKiEwHN+Db6aZ3bMgaiuqgLUMEQMtzV7dU7hiGbp6p5DA237mqrHCrAsYOP6BLD2XthlPcT7J1ZzVaVFWBBAAAEEEEAAgWMLEKwe+wlwfQQQmKWAZqeenp5Gw9RYyHp2dtbcVDId9Pa2rP5qRXnwLN9jNd20ZmnGAkXtn9OiOrQ+VP3lO9/v/ENVu4Re9BlvzdE5PzuVydDMbv/3M6f/MDOnz0ruFQEEEEAAgTEJEKyO6WkxVgQQmITAer1OBqoKW1OBq/bXEq7qQWw2ZfVX1Y4FAc3W1AwzC0Z+fja/Oqvh7N3HJ3cWX33xl1fBatdZfr69f90Wwvn2/jX98wGs9/Kv8evfLywJYH8/1Frlf1sQQAABBBBA4NgCBKvHfgJcHwEEZiVwe3t7LzjVbNTr6+stB/2fcpUJ8CGr2ta2aOgl9Vc105UFgf97c1d/dW71Vf9082OobOHyP737XdFs1a6hnQ/16M9X+/17osvrmt4/ftaq/gMNCwIIIIAAAgggcEwBgtVj6nNtBBCYncDFxcXWbFXVUNX/wU0tmqHqw9Waaq7auHULqr+aq72qY2qTuV07HWsEJicQKwPga6t2Cbtom58Ric80fWK1VvUfLVgQQAABBBBAAIFjCRCsHkue6yKAwCwFfEiqGaxti4LUsO6qwthaF93O+Xk+YNWPX7kJurXeDuNCoDeBT863Z6xq5l0u/KtplmBunKljjJ9Zsqn3Rsn+1Pvnd5/+9XU5EZv5PbfZ7719KHEiBBBAAAEEEOhF8tSY+gAAIABJREFUgGC1F0ZOggACCLQL6AerwoD0XAlk4RL203bti+qqKv/NzWDVceqv1v4kGV9fAvrKsgVBWq/f/qFJhUclwZPa0J/wsvS9Ems31vdP+Hek7bn9CF5fn0mcBwEEEEAAAQT6Eaj//533c5+cBQEEEDi6gOqohgGpaqiWLsvlcqtvab9jt9PMVM1QzQWsypcLJu4e+1a4PgJ7CYRhkH545+nDl9kZq7EgzPaNNRBj/Hdfz+f57ReI/8P/+GHrP1I8We71p0lnBBBAAAEEEEBgLwGC1b346IwAAgiUC+hr/wpXFajqn//BqtyZ9KNVYSiba1vbMdVUXa3y4arCV+XMz5/XNnrGg0A/AmGwqu1YsJoK3FL7Lai0dapdar/1s3WqXWq/9bN1ql1qv/Wzdapdar/1s3WqXWq/9bN1ql1qv/Wzdapdar/1s3WqXWq/9bN1ql1qv/Wzdapdar/1s3WqXWq/9bN1qp3fr9ne4d8TwWo/n1GcBQEEEEAAAQR2EyBY3c2NXggggMDBBBTIhqGq6rSOcdGs1OUyH7CenVF/dYzPljG3C4RBUCpYtYCJ9TR/eInn2s9zJVht/7yhBQIIIIAAAggcToBg9XDWXAkBBBDYSeDi4mIrWNXrMS+qq6oANVceQAEs9VfH/JQZuxfYJVj1M/UUzMX2pQK7WNvYPvrHA7+YVWwffof1I1j1ny68RgABBBBAAIFjChCsHlOfayOAAAItAjc3N1uhqmau6kewprDoq/9t9VeVIauUAAsCYxfIBatdwrpYiEf//Wp24jcuPx+sfkyN1bF/PDJ+BBBAAAEERi1AsDrqx8fgEUBgygIKUHxtVf2I1ZQWhaYKT3OzV63+6pTum3uZn0AuWA3DUkK+cYV84bPTNs9v+Ofng1VqrM7v85Q7RgABBBBAoCYBgtWangZjQQABBP6/gP4P+mKx2Jqtqtqqqrc6xeXmpqz+6no9xbvnnuYgUBqs+qCO1/GvmeMyXxeC1Tl8YnKPCCCAAAIIjEeAYHU8z4qRIoDATARioapKAKxnkCrqFkvqr040X57JO3yetxkLVktmN+ba5I5Z8JhrkztG/7vgMmeUO4bfcH4Eq/P8DOWuEUAAAQQQqFWAYLXWJ8O4EEBglgKakepnqipUvb6+no2HygOU1F9drai/Ops3xQRuNBasWvhWui4J8nLnov/wX1PHPz2Ttq/3H8HqBD4QuQUEEEAAAQQmJECwOqGHya0ggMC4BfRDVfq6v4LU8N+cQtXwCWpWakn91aursBfbCNQp0CVY7SuAyoV8uWNcnwA29/5oOzb0+4dgtc7POEaFAAIIIIDAXAUIVuf65LlvBBCoSkDhKaFq/JFsNmX1V9WOBYFaBboEq23BFcfTsyKxmb4NwWqtn3KMCwEEEEAAgXkKEKzO87lz1wggUJHA5eXl1gxVzVZVyKoZrCw/Cqgawulp05ycpP+dnzcN9Vd/NGOrHgEfrH724JsmDAG7zvLz7f3r8Nyxbd/ev471Cff59v512Da27dv717E+4T7f3r8O28a2fXv/OtYn3Ofb+9dh29i2b+9fx/qE+3x7/zpsG9v27f3rWJ9wn2/vX4dtY9u+vX8d62P7FKw+Pmka+5t6sqzn75yRIIAAAggggMD8BAhW5/fMuWMEEKhI4OLi4l6oenZ2RqiaeEZWfzUXruqYarSqLQsCtQhYCGTrpw9fbgWrFhrF1l1CJ/rfn7GJ37RKGzBjtZZPNcaBAAIIIIAAAhIgWOV9gAACCBxJIBaq6oerFIyw5AU0K1WzU3MBq2a3zug3v/JgHD26gAWqtu4SrMbCUvbdD1AxmYcJwerRP84YAAIIIIAAAggEAgSrAQabCCCAwKEEYqGq9hGqdnsCqqt6dpYPWBeLpqH+ajdXWvcvYIGqrduCVWZZTmuWZdfQl+effv4Eq/1/PnFGBBBAAAEEENhdgGB1dzt6IoAAAjsJpELVnU5Gp1cCV1ft9VcvLqi/ytvleAIWqNpawSrhWTo8Kwki8ZunH8Hq8T7HuDICCCCAAAII3BcgWL1vwh4EEEBgMIH1en2vpqqCVpb9BVRBYbXKz15VeQDVX33+fP/rcQYEughYoKq1fninbcZqLlgkUJxnoGjvibk//w9/8v3rH67S3xM/XtXlk4i2CCCAAAIIINC3AMFq36KcDwEEEEgI6P8Un56ebgWr5yoUytKrgOqvLpf5gFXlA9brXi/LyRDICoTBqrZjwWoqMEvtt6DN1ql2qf3Wz9apdqn91s/WqXap/dbP1ql2qf3Wz9apdqn91s/WqXap/dbP1ql2qf3Wz9apdqn91s/WqXap/dbP1ql2qf3Wz9apdqn91s/WqXZ+PzNWsx81HEQAAQQQQACBAwsQrB4YnMshgMB8BS4vL7dC1ZOTk0Y/VrVcLjv/m69i+Z0rOG2rv6oA9uam/Jy0RGBXgZJg1QIm1vP4ESae827PmWB1108h+iGAAAIIIIDAEAIEq0Oock4EEEAgIqAAVWFqH/8ip2dXQkBf/VcJgJOT9D9VY1ApARYEhhLYJVj1M/UUxMX2pQK6WNvYPvrHA76YVWwffof1I1gd6lOK8yKAAAIIIIDALgIEq7uo0QcBBBDYQaCPQNXOscPlZ91FoanC01y4avVXZw3FzQ8mkAtWu4R1sRCP/tRcjb0vSveN7f3jg9WPl4P92XJiBBBAAAEEEECgVYBgtZWIBggggEA/Art85T/Vp58Rze8s+tp/Sf3VzWZ+NtzxsAK5YDUMwMYWcoVj1zbjJ+T174kur0vePz5Y5cerhv3s4uwIIIAAAgggkBcgWM37cBQBBBBAYIIC19dl9Vf1Q1gsCPQhUBqsdgmhaBv/Cjou03YhWO3jE4lzIIAAAggggEBfAgSrfUlyHgQQQACBUQmoPEBJ/dXVivqro3qwlQ42FqyWzM7Ltckds3Ax1yZ3jP534WTOKHcMv+H8CFYr/ZBjWAgggAACCMxUgGB1pg+e20YAAQQQuBPQrNTz8/b6q1dXiCGwu0AsWLXwrXRdEuTlzkV/vqafe3+0Havl/UOwuvvnED0RQAABBBBAoH8BgtX+TTkjAggggMAIBVRXdbHIB6w6Tv3VET7cCobcJVgdMsB6+PBh0/bvwYMHW20ePXrUfPrpp01b8GbHhxy/XSO3Lr3+F198sXWfdo+l/VNjmHL/999/f8ssZjD0/ROsVvCBxhAQQAABBBBA4LUAweprCjYQQAABBBBoGtVfPT3NB6ya4Ur9Vd4tXQS6BKuxsKqvfScnJ80+/959991GgWRf4znmeRSkhhYKnI85njFc++23394yO8aYCVa7fPLQFgEEEEAAAQSGFiBYHVqY8yOAAAIIjE7A6q+enOQDVtVoVVsWBNoEfLD62YNvtkK8rrP8fHv/OhV4hUHirttvvPFG8+zZs6OM3+7L369/be1Sa7XfJ1j11/OvU9e1/b69f23tUmvf3r9O9bP9vr1/be38OhWslva38/n2/rW1i60VrD4+aRr7m3qybPvr4zgCCCCAAAIIIDCcAMHqcLacGQEEEEBg5AKalbpc5sNVzW7VLFcWBHICFgLZ+unDl1vBZCxAsn1dQifrE67D/ruGqb6fwtXPP/+86B7C64fjKt0eqn9psDrU9Y99/7tcPxWs5s7Vtx8zVnOfNBxDAAEEEEAAgUMLEKweWpzrIYAAAgiMTkB1Vc/O8gGrAljqr47u0R5swBao2rpLsJoLrboe8wFprv+XX375alan6mq+9dZbW18B13kUsuX6136sNFit/T4OOb5dgtW+x0ewerCPLS6EAAIIIIAAAgUCBKsFSDRBAAEEEEBAAldX7fVXLy6ov8q75b6ABaq2bgtW+57lZ+FWabDqr6+QVfVVff/UrFXf365fuj5E/1yweojr5yxqvX5psDrk+AlW73++sAcBBBBAAAEEjidAsHo8e66MAAIIIDBCAdVUXa3ys1dVHkD1V1kQMAELVG2tYHXI8CkV2vlgNNUutV8lAMJz7PODT8e4//C+csFq2C61fezxH+P6pcFqyizcv+v4CVbtU4U1AggggAACCNQgQLBaw1NgDAgggAACoxO4uWmvv6ryAev16G6NAQ8gYIGq1vrhnbYZq2EA5bd3DaR0njAU1bY/d9trP2t1l2BV49dM19Rs17YxpO7fSheU9t81WE1dv+26ut8vvvhikEBd5y31LBm/ziVPf099BKsl1/fXDV9/+JPvX/9wlf6e+PGqAT6wOCUCCCCAAAIIFAsQrBZT0RABBBBAAIH7AgpOS+qvKohlma9AGKxqOxaspgKn1P4wbNJ2ql24Pxeshu3Cc4f7FaSG5wiD1bBd2F+h33vvvfeqJmvYN9xWYPfo0aNomJc6r66h+q8+7LPzar+Op/r7YPXBgwf3gsTQ1e5B57V/uje7V38dnV9B9JtvvrllpvFpn86X62/nDa+r+7H98orVvtW59VwsGPXjsv7hWuOIjVUzlLXfxumtw3OkrpPaH/bVdqqd38+M1fl+jnLnCCCAAAII1ChAsFrjU2FMCCCAAAKjE9BX/1UC4OQk/U/1V1VKgGV+AiXBqg+ahnhtoaOtu15DIZ/11VrhXuocqbqsYX+/rSDvo48+Sp7TrqU2scDSn0+vFT7GZnP6YDUMie06tvYzdXXeMOS0dlrrvt95550tp9i4bF/uujpfGGaqre4lFqja+WxdaqlnaH1Sa51L1w3HorbhfR9qm2B1fp+f3DECCCCAAAI1CxCs1vx0GBsCCCCAwKgEFJoqPM2Fqwpf9SNYLPMS2CVY9TP1FFzF9qUCrVhbH5yl+saupcBQAVt4DpvJ6M+jtiXhX3gu29Y11D82fu1ToGltS9c6p8YanrMtWLW2XUPVXe5b1/CGdv0wzFQ7/wxyBnbfdm47p732QXnbufy17Tyxtb+W2sT2xfqm2qo/weq8Pju5WwQQQAABBGoXIFit/QkxPgQQQACB0QlsNmX1V9WOZR4CuWC1S9gUC6G69PfBWSrA8tfRrEYfqimUS/XXzEp/LbVXmKnQVP0UdGrmaWx2Z2oWpw9DdQ3NXFXYaiGv1urvx6uAMrwvf67YNUtC1dA/FqrqHLqWXVvbsfOap7WzdRishqa6PzPVOTX+2PVj96Vzyz48n7bVX5Z6RvqnNqnrq73OE96/jbnLumt/H6x+vJzHZwh3iQACCCCAAAJ1ChCs1vlcGBUCCCCAwAQErq/L6q/e3k7gZrmFrEAuWA1DqK4hU9hX2239fZCm0C38pzqj4WsFgLGwTvssIA3HoOtrvw81FdCF7fy2/zq6+vs2eu2//u/HEd6/vrrux+EDztBD9x32j4Wfqa//a2yxewiv5+8nNvP22bNn9+47FmxqbCl/H1TLINbWW+qc4f2H441ZWLAatkv1D9vktkv6+2CVH6/KfvRwEAEEEEAAAQQGFiBYHRiY0yOAAAIIzFtA5QFUfzVXHkDHVivqr075nVIarOZCpz6OhUHirtuaJRkL6mx8P/vZz7ZmQiqUs2O5tQ9BfVs/w1LBYG4c6u/DznAsCj1DAwWrdk0fJGpssTqt1l5rH1S2hclt47Nz+2BV17FjsfXvf//7e2PxAe8ulj6wjQWrsfH0vY9gdcqflNwbAggggAAC4xMgWB3fM2PECCCAAAIjFNCs1PPzfMCq+qua5coyPYFYsFoyOy/XJnfMwizfJgwSd93WLFEFc/7cdk2FeArhLBBMBYy+v7W3cel8YRsfdirAtWum1goZ7XwKR0uCVX+dVKgajs0HlboXP34/RuufC5TVxrsoLG47t8Jvu2+tfbDq7zE1E9fGqOupxEJ4Tm37e/Kvw/5djlnbWH+C1el9PnJHCCCAAAIIjFmAYHXMT4+xI4AAAgiMTkB1VReLfMCq49RfHd2jzQ44FqxaeFS6joVMpX3VTv19MLbP6zCkLBlH2/h9gOjP6UsStM1Wtf6aaaq2/vqxGas+cAxDVd/fzq+1SiiElhZ+hm1S/f1MUB+Cepe2mbO6pmbfhuPROcPr+9m1CqDDsca21d8/g1i71L7w+qk2uf3Wn2A1+1HDQQQQQAABBBA4sADB6oHBuRwCCCCAAAIS0MxUzVDNlQjQDFfqr07j/dIlWLUAKRcy5Y7l+odhm7YVuPl/v/rVr7b2aTamnwFp59F+P5bc9cO2Cgg1U1Ln8IGdzh+21bZdU+vc1+FLr6/7Ds/pZ47qmEJPP47Yax9+Klj1rqnXPsz96U9/unVNf+7Y9cN9uv9YsBq2Ce9b9uGxnJ9/H4T9bDvX39rk1m39CVan8ZnIXSCAAAIIIDAVAYLVqTxJ7gMBBBBAYHQCqr+q2qq5cFXhq2q0qi3LeAW6BKu50GnfY2Ggpu0u51MQ6mc66hwKDHPn0VfIFTQqQFRIGAsw/bhiYwvb6Dy5a5Yc88FqeP5wO1XKILyGDz/D/l23w1qvuoY/d3jd1HYuWPVf6e9i6c+buv6Q+wlWx/s5yMgRQAABBBCYogDB6hSfKveEAAIIIDAqAc1KXS7zAevZGfVXR/VQ3WB9sPrZg2+2gsG2WXo+qPLt/Wvf3l77kM/2l/bXV+p9uKrANNZfwaWfjemvn3ttY9NaoW7Y1oeBseuH/f222pcGqwqCfdkBfz0ffoZj7bpdEqz66/vXPgANw29/3xq77++97LUC8vB+bH9p/1T7Lv0VrD4+aRr7m3qydH9svEQAAQQQQAABBA4oQLB6QGwuhQACCCCAQE5AdVUVoOZmsCqApf5qTrHOYxYC2frpw5dbwaoFTrF1l9CprX8Yimk71t7v89f34Vrsa/k+vPPXtdf6Grq+Xq5Zob4cgI1D128LVq1tbO3Hb21iY1SIqv0+PG4rCXDoYNXuIbXuGqymzqP9oZ//ka5cPzsW9rd9Xda+PzNW6/yMY1QIIIAAAgjMVYBgda5PnvtGAAEEEKhW4Oqqvf7qxQXlAap9gJGBWaBq6y7BapcQqq2tBZq2bmsfOx4LJMN2CkFjX/dXOKnAT+Gc2oR9tO3DSX/cxqy12vrjXV/7+9CYnz179uq8/piumSsJ4MfuZ7h2HVvY3p87PJbazgWrGtuulv68qesPuZ9gNfIBwy4EEEAAAQQQOJoAwerR6LkwAggggAACaYHnz5tG4Wlu9qrVX02fhSO1CFigauu2YNXP0usaVKX6h4GatlPnTfVXe/3gVO48PghUYBkLUv21fT9/PLymzumPh6/D8Ssk1Zi1Vn1Ra+fDU4WGdkz9/Q816ZqpwNSPXee2c+2yDsfvz11yvgcPHmw9Iz+eNsvw+uH1vEl4LNxO9Q/b5LZz/QlWa/lUYxwIIIAAAgggIAGCVd4HCCCAAAIIVCxwc1NWf3W9rvgmGNrrepBhsJoLj3Khkx3bpX8YqGnbztVl7cM1XwrAXyMVqvrxK7gM+/ow0JcKCEPS3Pg1UzY8r40nF6zqfApRcyUBwvH7mZwyyo1Jx6y/ZsKqv9Yakw9vU8Gq9Y9dx4/HW/pzmknsXOE+/wzCY123c+PPnYtglQ9UBBBAAAEEEKhJgGC1pqfBWBBAAAEEEEgIKDgtqb+qIJalPgELVLXWD++0zVjNBUu7BlI6Zxgwajt3ndgxhX4+ANUPVFlbH1bGrhEbf6yfDwN9oBvOMLXr+7Ufr8Zu1/fXjJ1PYac3W6/Xr+/XrufPlZvdate3vj689SUHfAjq+9t5wnUuWFV/fzx8huF5wm0F2d4iPF66XTL+3Lk+/Mn3W/+hgh+vqu/zjhEhgAACCCAwJwGC1Tk9be4VAQQQQGDUAi9eNM3lZXv91dWK+qu1PegwWNV2LFhNBU6p/T58SrUL9+eCsbBdeG7br5DSz1jU+SwAVTvNfPTXsOPhOcPtkvOqvT+3wstw1qqNMzx3LkD0Yai+Ph/2tW0/4zUVmvqA1MLK2Ljs3H58Orcds7UPVm2/X4fX8ef1zyAWklp92dR5/Tj0nMO24fVL9odttF3anxmrtX26MR4EEEAAAQTmLUCwOu/nz90jgAACCIxQ4Pa2rP6qfgSLpQ6BkmDVB01DvI6Fngrdcv9Un9SHi3YehW1+nAoH7bjW6uvb2GsFfLGwVv18GKg+PtxT39TX2GO1YMMgVucPx6kw0sYVrv2s19Q9xa6ncFX9w/PZ9qNHj7aur/PGxuDv2frn1m3BqvpqbOH967nFzDV+39b65cYw1DGC1To+0xgFAggggAACCNwJEKzyTkAAAQQQQGCkAptNWf1VtWM5rsAuwWpsBl9sXyrAirW1QKyPtYK4MKi0ccRCOIWrVkNU4Z22Y+3CccW+cq/r+eBWfXQu+4EqBZY+jFQblRIITdqC1bBtrCSA/8q+7j92Txqvrm33r9AzFiZrnxlqbdf39xK2SW2nglU7p/opMPWzbL2lzhNrY88pdX3tD69l7WL77Jhfx9pqH8HqcT/LuDoCCCCAAAIIbAsQrG578AoBBBBAAIHRCVxft5cHOD9vGs10ZTmOQC5YjQVIPmTKve7S3wKxfdfhTFF//VRgl7umzudnfCqkjN23ZqjGwtXc+WPnagtW/bV9wKkx6F79/cfC1dzYdEz3r3P5a+q1v65v46+v46lg1fftahkbS+z6/jq51137+2D14+Vx/qa5KgIIIIAAAgggIAGCVd4HCCCAAAIITEDA6q+enDRN7p9qtKoty2EFcsFqGDp1DZnCvtpu698W8LUd18xTBaD+uvbarp/7in94DYWTCgGtfxiYWnBpx8K1zp8qT+DPrxmsYV/bjgWrNn5rE65js2V9mQPrr2uG9xKOyW9rNquFqtY/vG4szAyPh9vWvzRYVV9du81S96IZt/684bW1bdf3+0tfl/T3wSo/XnXYzzKuhgACCCCAAALbAgSr2x68QgABBBBAYNQCmpWq2am5cPX0tGk0y5XlcAKlwWppALVrO/1Ak8Kx0n8KH/UvVce0bRwK4xQcKhwM/2lWpwJaCxTtPNoXjk1hph2LrXVc7cNza9sCYH/+8BzW166n+wyPx7YtXLQ+Wsfa2T7dj+41Nj6Fr233p/OEJqkf2LLr2Vr3Eo6x5Dp6xrFnpXGaoz+vXe+Qa4LVw31ucSUEEEAAAQQQaBcgWG03ogUCCCCAAAKjE1Bd1cUiH7DqOPVXD/NoY8Fqyey8XJvcMQu6cm1yx+j/4lVgmjPKHcNvOD+C1cN8ZnEVBBBAAAEEECgTIFgtc6IVAggggAACoxS4umqvv3pxQf3VoR9uLFi18K10XRLk5c5F/+fZ2aU5Ox3Drw4/gtWhP604PwIIIIAAAgh0ESBY7aJFWwQQQAABBEYooJqqq1V+9qrKA1B/dbiH2yVYJcCrI8BrC1pTx3l+wz4/gtXhPqc4MwIIIIAAAgh0FyBY7W5GDwQQQAABBEYpoPqry2U+YD07o/7qEA+3S7CaCuzYf/f1chzm7UCwOsQnFOdEAAEEEEAAgV0FCFZ3laMfAggggAACIxVYr5tGAWruB64UwN7cjPQGKxy2D1Y/e/DN1tfSu85y9O3967bw0bf3r+mfDy+9l3+N33B+ClYfnzSN/U09WVb4B8+QEEAAAQQQQGA2AgSrs3nU3CgCCCCAAALbAvrqv0oA5AJW1V99/ny7H6+6C1gIZOunD19uBau5IK5raOfPRf9hv5ruvf1r/Pv1Z8Zq988feiCAAAIIIIDAcAIEq8PZcmYEEEAAAQSqF1D9VYWnuXDV6q9WfzMVD9ACVVt3CVZ9UMfr/GxIfKbtQ7Ba8QcdQ0MAAQQQQGCGAgSrM3zo3DICCCCAAAJeQF/7L6m/utn4nrwuEbBA1dZtwSqzHPud5dg1bMW/Xn+C1ZJPHNoggAACCCCAwKEECFYPJc11EEAAAQQQGIHA9XVZ/VX9ENaui2q8zm2xQNXWClYJ7+oN70qCWJ7fcZ4fwercPj25XwQQQAABBOoWIFit+/kwOgQQQAABBA4uoPIAJfVXV6umUdsui2a8quzA1VWXXuNva4Gq1vrhnbYZq7lgj0DvOIGePRP8j+v/4U++f/3DVfp74serxv/5yB0ggAACCCAwZgGC1TE/PcaOAAIIIIDAgAKalVpSf7VLSBqWG9Ds2LksYbCq7ViwmgrsUvst6LN1ql1qv/Wzdapdar/1s3WqXWq/9bN1ql1qv/Wzdapdar/1s3WqXWq/9bN1ql1qv/Wzdapdar/1s3WqXWq/9bN1ql1qv/Wzdapdar/1s3Wqnd/PjNW5fGpynwgggAACCIxDgGB1HM+JUSKAAAIIIHA0Ac0yXSzyP3Cl4231VxWkhj+SpR/FUm3XOSwlwaoFTKyn/eNLPN/9ni/B6hw+MblHBBBAAAEExiNAsDqeZ8VIEUAAAQQQOKqAglGFoWE46rfPz5smVn9VJQPOzu731fm6lhM4KsKOF98lWPUz9RTIxfalgrpY29g++seDvphVbB9+h/UjWN3xQ4huCCCAAAIIIDCIAMHqIKycFAEEEEAAgWkKWP1VH6j616rRGgameu3b2GvNdg3bTlEuF6x2CetiIR79j1vzE//D+vtg9ePlFD8xuCcEEEAAAQQQGIsAwepYnhTjRAABBBBAoCIBzUoN66VaSBquNRtVs1zVNtwf21Yt1ykvuWA1DEsJ6Q4b0oX22sa/fn8frPLjVVP+5OTeEEAAAQQQqF+AYLX+Z8QIEUAAAQQQqFZAdVVjX/EPw9O//dv2YFXtNat1qktpsOqDPl7Hv2aOy3xdCFan+inJfSGAAAIIIDBOAYLVcT43Ro0AAggggEBVAldX7fVXw7A1ta0ZrlNcYsFqyezIXJvcMQsec21yx+h/F1zmjHLH8BvOj2B1ip+Q3BMCCCCAAALjFSBYHe+zY+QIIIAAAghUJaA6qatV2ezUVLCq8gE3N1XdVi+DiQWrFr6VrkuCvNy56F//19x5fumZuPb+JVjt5SOJkyCAAAIIIIBATwIEqz1BchoEEEAAAQQQuBP4l39pr7+aCla1X+Fcnrt0AAAKCklEQVTq1H7MqkuwagFSLmTLHaM/AWru/dF2rPb3D8Eq/0uDAAIIIIAAAjUJEKzW9DQYCwIIIIAAAhMRUDD6N3+z++zVxWJa4WqXYLUt+OJ4elYjNtO3IVidyP9IcBsIIIAAAghMRIBgdSIPkttAAAEEEECgJoF9SwJo5ur5eU13tN9YfLD62YNvmjAE7DpL0Lf3r8Nzx7Z9e/861ifc59v712Hb2LZv71/H+oT7fHv/Omwb2/bt/etYn3Cfb+9fh21j2769fx3rE+7z7f3rsG1s27f3r2N9wn2+vX8dto1t+/b+dayP7VOw+vikaexv6slyv79NeiOAAAIIIIAAAvsIEKzuo0dfBBBAAAEEELgncHu7+0xVXyJAAe0UFguBbP304cutYNVCo9i6S+hE//szNvGbVmkEZqxO4RORe0AAAQQQQGA6AgSr03mW3AkCCCCAAAJVCCyX/QWrClqvr6u4rb0GYYGqrbsEq7GwlH33A1RM5mFCsLrXRxGdEUAAAQQQQKBnAYLVnkE5HQIIIIAAAnMW2Gz6DVVtBuvNzbhVLVC1dVuwyizLac2y7Br68vzTz59gddyfhYweAQQQQACBqQkQrE7tiXI/CCCAAAIIHFHg7GyYYPX0tGlUYmCsy/XpjzUhFa7+8p3vG8KzdHhWEkTiN08/+48Ttt5cjPVTgXEjgAACCCCAwBQECFan8BS5BwQQQAABBCoQuLoaJlS1WauLRdO8eFHBje4wBP3AjgVB+uGdn7/5X8U1Vn3ISKA4z0DR3gdzfv63n3+99cNV+pv658sd/iDpggACCCCAAAII9CRAsNoTJKdBAAEEEEAAgaZRKQAFrPrRqb5rrSpgPT8fp7LCHwtWba2QyMIyrVOBWWp/2Jf++KXeJ6n9Y3z/fP7om3t/R19txvmZwKgRQAABBBBAYBoCBKvTeI7cBQIIIIAAAtUK6Cv8ClwvL++CUc08tVmou6wvRvjVX4U/Fqja+tfvfbsVrPqgi9fz+DEmnnP5c9ZMb/v70VolNlgQQAABBBBAAIFjChCsHlOfayOAAAIIIDBjAf0g1fX1XeCq2a1d6rOq39gWX2f179/47+aPX/45Ga7GZhrG9qWCuVjb2D76x4O9mFVsH36H8fvdp3/dClUVrFJfdWyfgowXAQQQQACB6QkQrE7vmXJHCCCAAAIIjFZANVRLywmo3ZiWp6v7s1afPnyZLAGQCuz8/i5hn++r1/SnZmvsfVG671Dvn/XbP9wLVikDMKZPQMaKAAIIIIDANAUIVqf5XLkrBBBAAAEEJiUQKydweto0mvU6luXr2/vBqmatfvXFX17PWj1USJUKzbg+IWvqvVGyf6j3T6y26i/OxvKXzzgRQAABBBBAYMoCBKtTfrrcGwIIIIAAAghUJaCvLoc1IrX9j2/9Z7YkQEmgRZv419FxGb+LfuRN/wHC/93crqv602YwCCCAAAIIIDBTAYLVmT54bhsBBBBAAAEEDi/w3Yu7H9zxIdE/vfvd61mrYRiYmwGYO2bnyLXJHaP/XSCZM8odw68fv//z+xeN/8Eq/e08WR7+b5crIoAAAggggAACMQGC1ZgK+xBAAAEEEEAAgYEEfnt9f9aqwqJUuFoS0lmb3LokCKR/eoYnfoctk6ASGZrN7f8jhH4ETmU1WBBAAAEEEEAAgRoECFZreAqMAQEEEEAAAQRmJRArCaAASUHSH/7Xn6OzV3OhZ3iMAPCwAWBor2389/f/3ad/jX79X38j+g8TLAgggAACCCCAQC0CBKu1PAnGgQACCCCAAAKzEvhgEZ+5qnqS+rEeH9jxOj2bFJtp2Pzxyz83v37v23uzVG3W6j9fzuojgptFAAEEEEAAgREIEKyO4CExRAQQQAABBBCYnoDqrabCVQVJqi35r+//R/SHrfysSP+6LWj07f1r+ueDSu/lX+PXzU+ztBWoxn6kykJVzfJmQQABBBBAAAEEahMgWK3tiTAeBBBAAAEEEJiNgMLVVFkAC5S0Xr/9Q/P04cvm3z7690Zfk+727+uO7f356d/NG79tr/j7R//RYPPet9E6quF7X9t8/X82H4ncKAIIIIAAAqMTIFgd3SNjwAgggAACCCAwNYHfXDWNfpTHB0q8xmTO74FfnDXNV5up/bVzPwgggAACCCAwJQGC1Sk9Te4FAQQQQAABBEYroF86f7K8CxIfn+wXKNIfv30C2RreP6qnqhndLAgggAACCCCAQM0CBKs1Px3GhgACCCCAAAKzE9AMvU/O9wsG9wnV6Iv9sd4DmrX9dNU0+o8MLAgggAACCCCAwBgECFbH8JQYIwIIIIAAAgjMTkCz9VRbUiFrWCaghtmE+wRvjH+/4HZqfvoBN9UZvl3P7k+cG0YAAQQQQACBCQgQrE7gIXILCCCAAAIIIDAPAc1mTf37Q3AstZ3qq/2pPuF++uOfeg+E75PUdtj3Tzfz+JvlLhFAAAEEEEBg2gIEq9N+vtwdAggggAACCCCAAAIIIIAAAggggAACCAwgQLA6ACqnRAABBBBAAAEEEEAAAQQQQAABBBBAAIFpCxCsTvv5cncIIIAAAggggAACCCCAAAIIIIAAAgggMIAAweoAqJwSAQQQQAABBBBAAAEEEEAAAQQQQAABBKYtQLA67efL3SGAAAIIIIAAAggggAACCCCAAAIIIIDAAAIEqwOgckoEEEAAAQQQQAABBBBAAAEEEEAAAQQQmLYAweq0ny93hwACCCCAAAIIIIAAAggggAACCCCAAAIDCBCsDoDKKRFAAAEEEEAAAQQQQAABBBBAAAEEEEBg2gIEq9N+vtwdAggggAACCCCAAAIIIIAAAggggAACCAwgQLA6ACqnRAABBBBAAAEEEEAAAQQQQAABBBBAAIFpCxCsTvv5cncIIIAAAggggAACCCCAAAIIIIAAAgggMIAAweoAqJwSAQQQQAABBBBAAAEEEEAAAQQQQAABBKYtQLA67efL3SGAAAIIIIAAAggggAACCCCAAAIIIIDAAAIEqwOgckoEEEAAAQQQQAABBBBAAAEEEEAAAQQQmLYAweq0ny93hwACCCCAAAIIIIAAAggggAACCCCAAAIDCBCsDoDKKRFAAAEEEEAAAQQQQAABBBBAAAEEEEBg2gIEq9N+vtwdAggggAACCCCAAAIIIIAAAggggAACCAwgQLA6ACqnRAABBBBAAAEEEEAAAQQQQAABBBBAAIFpCxCsTvv5cncIIIAAAggggAACCCCAAAIIIIAAAgggMIAAweoAqJwSAQQQQAABBBBAAAEEEEAAAQQQQAABBKYtQLA67efL3SGAAAIIIIAAAggggAACCCCAAAIIIIDAAAIEqwOgckoEEEAAAQQQQAABBBBAAAEEEEAAAQQQmLYAweq0ny93hwACCCCAAAIIIIAAAggggAACCCCAAAIDCPw/IuWKnqIpOFYAAAAASUVORK5CYII=;" vertex="1" parent="1">
          <mxGeometry x="40" y="157.39" width="759.49" height="482.61" as="geometry" />
        </mxCell>
      </root>
    </mxGraphModel>
  </diagram>
</mxfile>
